<svg width="169" height="57" viewBox="0 0 169 57" fill="none" xmlns="http://www.w3.org/2000/svg">
<rect y="0.826111" width="168.977" height="55.8947" rx="27.9474" fill="#272420"/>
<g filter="url(#filter0_ii_3586_16494)">
<path d="M24.4981 15.3133C24.185 15.6459 24 16.1621 24 16.8307V40.7159C24 41.3855 24.185 41.9007 24.4981 42.2333L24.5777 42.3111L37.9058 28.931V28.7733V28.6156L24.5777 15.2344L24.4981 15.3133Z" fill="url(#paint0_linear_3586_16494)"/>
<path d="M42.3476 33.3922L37.9056 28.9308V28.7731V28.6154L42.3486 24.155L42.4487 24.2122L47.7126 27.2146C49.2155 28.0722 49.2155 29.4751 47.7126 30.3337L42.4487 33.3361L42.3476 33.3922Z" fill="url(#paint1_linear_3586_16494)"/>
<g filter="url(#filter1_i_3586_16494)">
<path d="M42.4489 33.3349L37.9047 28.773L24.498 42.2331C24.9929 42.7601 25.8116 42.8249 26.7336 42.3L42.4489 33.3349Z" fill="url(#paint2_linear_3586_16494)"/>
</g>
<path d="M42.4489 24.2113L26.7336 15.2473C25.8116 14.7214 24.9929 14.7873 24.498 15.3143L37.9058 28.7743L42.4489 24.2113Z" fill="url(#paint3_linear_3586_16494)"/>
</g>
<path d="M61.1437 20.8981C60.9325 20.8981 60.7213 20.8813 60.5101 20.8477C60.2989 20.8189 60.0997 20.7733 59.9125 20.7109C59.7253 20.6437 59.5573 20.5621 59.4085 20.4661C59.3221 20.4085 59.2621 20.3389 59.2285 20.2573C59.1949 20.1757 59.1829 20.0965 59.1925 20.0197C59.2069 19.9381 59.2381 19.8685 59.2861 19.8109C59.3389 19.7485 59.4037 19.7101 59.4805 19.6957C59.5573 19.6813 59.6413 19.7029 59.7325 19.7605C59.9437 19.8853 60.1669 19.9765 60.4021 20.0341C60.6373 20.0917 60.8845 20.1205 61.1437 20.1205C61.5229 20.1205 61.7989 20.0581 61.9717 19.9333C62.1445 19.8037 62.2309 19.6381 62.2309 19.4365C62.2309 19.2685 62.1685 19.1365 62.0437 19.0405C61.9237 18.9445 61.7149 18.8653 61.4173 18.8029L60.6253 18.6373C60.1693 18.5413 59.8285 18.3805 59.6029 18.1549C59.3821 17.9245 59.2717 17.6221 59.2717 17.2477C59.2717 17.0125 59.3197 16.7989 59.4157 16.6069C59.5117 16.4149 59.6461 16.2493 59.8189 16.1101C59.9965 15.9709 60.2053 15.8653 60.4453 15.7933C60.6901 15.7165 60.9589 15.6781 61.2517 15.6781C61.5397 15.6781 61.8133 15.7141 62.0725 15.7861C62.3317 15.8581 62.5645 15.9637 62.7709 16.1029C62.8477 16.1557 62.8981 16.2205 62.9221 16.2973C62.9509 16.3741 62.9581 16.4509 62.9437 16.5277C62.9293 16.5997 62.8957 16.6621 62.8429 16.7149C62.7901 16.7677 62.7229 16.7989 62.6413 16.8085C62.5645 16.8181 62.4757 16.7941 62.3749 16.7365C62.1973 16.6357 62.0173 16.5637 61.8349 16.5205C61.6525 16.4773 61.4557 16.4557 61.2445 16.4557C61.0237 16.4557 60.8341 16.4869 60.6757 16.5493C60.5173 16.6117 60.3949 16.7005 60.3085 16.8157C60.2269 16.9261 60.1861 17.0581 60.1861 17.2117C60.1861 17.3845 60.2437 17.5237 60.3589 17.6293C60.4741 17.7301 60.6709 17.8093 60.9493 17.8669L61.7341 18.0325C62.2093 18.1333 62.5621 18.2917 62.7925 18.5077C63.0277 18.7237 63.1453 19.0117 63.1453 19.3717C63.1453 19.6021 63.0973 19.8109 63.0013 19.9981C62.9101 20.1853 62.7757 20.3461 62.5981 20.4805C62.4253 20.6149 62.2165 20.7181 61.9717 20.7901C61.7269 20.8621 61.4509 20.8981 61.1437 20.8981ZM63.9516 20.8837C63.8364 20.8837 63.7428 20.8573 63.6708 20.8045C63.6036 20.7517 63.5628 20.6821 63.5484 20.5957C63.534 20.5045 63.5508 20.4037 63.5988 20.2933L65.4996 16.0813C65.562 15.9421 65.6364 15.8437 65.7228 15.7861C65.814 15.7237 65.9172 15.6925 66.0324 15.6925C66.1428 15.6925 66.2412 15.7237 66.3276 15.7861C66.4188 15.8437 66.4956 15.9421 66.558 16.0813L68.466 20.2933C68.5188 20.4037 68.538 20.5045 68.5236 20.5957C68.5092 20.6869 68.4684 20.7589 68.4012 20.8117C68.334 20.8597 68.2452 20.8837 68.1348 20.8837C68.0004 20.8837 67.8948 20.8525 67.818 20.7901C67.746 20.7229 67.6812 20.6221 67.6236 20.4877L67.1556 19.4005L67.5444 19.6525H64.506L64.8948 19.4005L64.434 20.4877C64.3716 20.6269 64.3068 20.7277 64.2396 20.7901C64.1724 20.8525 64.0764 20.8837 63.9516 20.8837ZM66.018 16.7509L65.01 19.1485L64.8228 18.9181H67.2276L67.0476 19.1485L66.0324 16.7509H66.018ZM66.0324 15.3541C65.7204 15.3541 65.4588 15.2749 65.2476 15.1165C65.0412 14.9581 64.9068 14.7493 64.8444 14.4901C64.8252 14.3989 64.83 14.3269 64.8588 14.2741C64.8924 14.2165 64.9428 14.1853 65.01 14.1805C65.0772 14.1709 65.1324 14.1781 65.1756 14.2021C65.2236 14.2261 65.2596 14.2789 65.2836 14.3605C65.3316 14.5045 65.418 14.6221 65.5428 14.7133C65.6676 14.8045 65.8308 14.8501 66.0324 14.8501C66.234 14.8501 66.3972 14.8045 66.522 14.7133C66.6468 14.6221 66.7332 14.5045 66.7812 14.3605C66.8052 14.2789 66.8388 14.2261 66.882 14.2021C66.93 14.1781 66.9876 14.1709 67.0548 14.1805C67.122 14.1853 67.1724 14.2165 67.206 14.2741C67.2396 14.3269 67.2444 14.3989 67.2204 14.4901C67.182 14.6629 67.1076 14.8141 66.9972 14.9437C66.8916 15.0733 66.7572 15.1741 66.594 15.2461C66.4308 15.3181 66.2436 15.3541 66.0324 15.3541ZM66.27 14.4397C66.2172 14.4973 66.1596 14.5309 66.0972 14.5405C66.0348 14.5453 65.9772 14.5333 65.9244 14.5045C65.8716 14.4709 65.8356 14.4277 65.8164 14.3749C65.7972 14.3173 65.8068 14.2549 65.8452 14.1877L66.2124 13.5253C66.2556 13.4437 66.3108 13.3933 66.378 13.3741C66.45 13.3501 66.5196 13.3501 66.5868 13.3741C66.6588 13.3933 66.7188 13.4293 66.7668 13.4821C66.8148 13.5349 66.8412 13.5973 66.846 13.6693C66.8508 13.7365 66.822 13.8061 66.7596 13.8781L66.27 14.4397ZM69.7198 20.8837C69.571 20.8837 69.4558 20.8429 69.3742 20.7613C69.2974 20.6749 69.259 20.5573 69.259 20.4085V16.2181C69.259 16.0645 69.2998 15.9493 69.3814 15.8725C69.463 15.7909 69.5782 15.7501 69.727 15.7501H71.4622C72.019 15.7501 72.4486 15.8893 72.751 16.1677C73.0534 16.4461 73.2046 16.8349 73.2046 17.3341C73.2046 17.8333 73.0534 18.2245 72.751 18.5077C72.4486 18.7861 72.019 18.9253 71.4622 18.9253H70.1806V20.4085C70.1806 20.5573 70.1422 20.6749 70.0654 20.7613C69.9886 20.8429 69.8734 20.8837 69.7198 20.8837ZM70.1806 18.1981H71.3182C71.6446 18.1981 71.8918 18.1261 72.0598 17.9821C72.2278 17.8333 72.3118 17.6173 72.3118 17.3341C72.3118 17.0509 72.2278 16.8373 72.0598 16.6933C71.8918 16.5493 71.6446 16.4773 71.3182 16.4773H70.1806V18.1981ZM76.3713 20.8837C76.2225 20.8837 76.1073 20.8429 76.0257 20.7613C75.9489 20.6749 75.9105 20.5573 75.9105 20.4085V16.2181C75.9105 16.0645 75.9513 15.9493 76.0329 15.8725C76.1145 15.7909 76.2297 15.7501 76.3785 15.7501H78.1137C78.6705 15.7501 79.1001 15.8845 79.4025 16.1533C79.7049 16.4173 79.8561 16.7893 79.8561 17.2693C79.8561 17.5813 79.7865 17.8501 79.6473 18.0757C79.5129 18.3013 79.3161 18.4741 79.0569 18.5941C78.7977 18.7141 78.4833 18.7741 78.1137 18.7741L78.1785 18.6661H78.4161C78.6129 18.6661 78.7833 18.7141 78.9273 18.8101C79.0761 18.9061 79.2057 19.0573 79.3161 19.2637L79.8561 20.2645C79.9137 20.3653 79.9401 20.4637 79.9353 20.5597C79.9305 20.6557 79.8945 20.7349 79.8273 20.7973C79.7601 20.8549 79.6617 20.8837 79.5321 20.8837C79.4025 20.8837 79.2969 20.8573 79.2153 20.8045C79.1337 20.7469 79.0617 20.6605 78.9993 20.5453L78.2721 19.2061C78.1857 19.0429 78.0825 18.9349 77.9625 18.8821C77.8473 18.8245 77.6985 18.7957 77.5161 18.7957H76.8321V20.4085C76.8321 20.5573 76.7937 20.6749 76.7169 20.7613C76.6401 20.8429 76.5249 20.8837 76.3713 20.8837ZM76.8321 18.1117H77.9553C78.2865 18.1117 78.5361 18.0445 78.7041 17.9101C78.8769 17.7709 78.9633 17.5645 78.9633 17.2909C78.9633 17.0221 78.8769 16.8205 78.7041 16.6861C78.5361 16.5469 78.2865 16.4773 77.9553 16.4773H76.8321V18.1117ZM80.8055 20.8837C80.6903 20.8837 80.5967 20.8573 80.5247 20.8045C80.4575 20.7517 80.4167 20.6821 80.4023 20.5957C80.3879 20.5045 80.4047 20.4037 80.4527 20.2933L82.3535 16.0813C82.4159 15.9421 82.4903 15.8437 82.5767 15.7861C82.6679 15.7237 82.7711 15.6925 82.8863 15.6925C82.9967 15.6925 83.0951 15.7237 83.1815 15.7861C83.2727 15.8437 83.3495 15.9421 83.4119 16.0813L85.3199 20.2933C85.3727 20.4037 85.3919 20.5045 85.3775 20.5957C85.3631 20.6869 85.3223 20.7589 85.2551 20.8117C85.1879 20.8597 85.0991 20.8837 84.9887 20.8837C84.8543 20.8837 84.7487 20.8525 84.6719 20.7901C84.5999 20.7229 84.5351 20.6221 84.4775 20.4877L84.0095 19.4005L84.3983 19.6525H81.3599L81.7487 19.4005L81.2879 20.4877C81.2255 20.6269 81.1607 20.7277 81.0935 20.7901C81.0263 20.8525 80.9303 20.8837 80.8055 20.8837ZM82.8719 16.7509L81.8639 19.1485L81.6767 18.9181H84.0815L83.9015 19.1485L82.8863 16.7509H82.8719ZM88.4996 20.8837C88.3652 20.8837 88.262 20.8453 88.19 20.7685C88.118 20.6917 88.082 20.5861 88.082 20.4517V16.1245C88.082 15.9853 88.1204 15.8797 88.1972 15.8077C88.274 15.7309 88.3796 15.6925 88.514 15.6925C88.634 15.6925 88.7276 15.7165 88.7948 15.7645C88.8668 15.8077 88.9316 15.8845 88.9892 15.9949L90.7676 19.2853H90.5372L92.3156 15.9949C92.3732 15.8845 92.4356 15.8077 92.5028 15.7645C92.57 15.7165 92.6636 15.6925 92.7836 15.6925C92.918 15.6925 93.0212 15.7309 93.0932 15.8077C93.1652 15.8797 93.2012 15.9853 93.2012 16.1245V20.4517C93.2012 20.5861 93.1652 20.6917 93.0932 20.7685C93.026 20.8453 92.9228 20.8837 92.7836 20.8837C92.6492 20.8837 92.546 20.8453 92.474 20.7685C92.402 20.6917 92.366 20.5861 92.366 20.4517V17.1181H92.5244L91.0124 19.8757C90.9644 19.9573 90.914 20.0173 90.8612 20.0557C90.8084 20.0941 90.7364 20.1133 90.6452 20.1133C90.554 20.1133 90.4796 20.0941 90.422 20.0557C90.3644 20.0125 90.314 19.9525 90.2708 19.8757L88.7444 17.1109H88.9172V20.4517C88.9172 20.5861 88.8812 20.6917 88.8092 20.7685C88.742 20.8453 88.6388 20.8837 88.4996 20.8837ZM94.3687 20.8837C94.2535 20.8837 94.1599 20.8573 94.0879 20.8045C94.0207 20.7517 93.9799 20.6821 93.9655 20.5957C93.9511 20.5045 93.9679 20.4037 94.0159 20.2933L95.9167 16.0813C95.9791 15.9421 96.0535 15.8437 96.1399 15.7861C96.2311 15.7237 96.3343 15.6925 96.4495 15.6925C96.5599 15.6925 96.6583 15.7237 96.7447 15.7861C96.8359 15.8437 96.9127 15.9421 96.9751 16.0813L98.8831 20.2933C98.9359 20.4037 98.9551 20.5045 98.9407 20.5957C98.9263 20.6869 98.8855 20.7589 98.8183 20.8117C98.7511 20.8597 98.6623 20.8837 98.5519 20.8837C98.4175 20.8837 98.3119 20.8525 98.2351 20.7901C98.1631 20.7229 98.0983 20.6221 98.0407 20.4877L97.5727 19.4005L97.9615 19.6525H94.9231L95.3119 19.4005L94.8511 20.4877C94.7887 20.6269 94.7239 20.7277 94.6567 20.7901C94.5895 20.8525 94.4935 20.8837 94.3687 20.8837ZM96.4351 16.7509L95.4271 19.1485L95.2399 18.9181H97.6447L97.4647 19.1485L96.4495 16.7509H96.4351ZM96.4495 15.3541C96.1375 15.3541 95.8759 15.2749 95.6647 15.1165C95.4583 14.9581 95.3239 14.7493 95.2615 14.4901C95.2423 14.3989 95.2471 14.3269 95.2759 14.2741C95.3095 14.2165 95.3599 14.1853 95.4271 14.1805C95.4943 14.1709 95.5495 14.1781 95.5927 14.2021C95.6407 14.2261 95.6767 14.2789 95.7007 14.3605C95.7487 14.5045 95.8351 14.6221 95.9599 14.7133C96.0847 14.8045 96.2479 14.8501 96.4495 14.8501C96.6511 14.8501 96.8143 14.8045 96.9391 14.7133C97.0639 14.6221 97.1503 14.5045 97.1983 14.3605C97.2223 14.2789 97.2559 14.2261 97.2991 14.2021C97.3471 14.1781 97.4047 14.1709 97.4719 14.1805C97.5391 14.1853 97.5895 14.2165 97.6231 14.2741C97.6567 14.3269 97.6615 14.3989 97.6375 14.4901C97.5991 14.6629 97.5247 14.8141 97.4143 14.9437C97.3087 15.0733 97.1743 15.1741 97.0111 15.2461C96.8479 15.3181 96.6607 15.3541 96.4495 15.3541ZM96.6871 14.4397C96.6343 14.4973 96.5767 14.5309 96.5143 14.5405C96.4519 14.5453 96.3943 14.5333 96.3415 14.5045C96.2887 14.4709 96.2527 14.4277 96.2335 14.3749C96.2143 14.3173 96.2239 14.2549 96.2623 14.1877L96.6295 13.5253C96.6727 13.4437 96.7279 13.3933 96.7951 13.3741C96.8671 13.3501 96.9367 13.3501 97.0039 13.3741C97.0759 13.3933 97.1359 13.4293 97.1839 13.4821C97.2319 13.5349 97.2583 13.5973 97.2631 13.6693C97.2679 13.7365 97.2391 13.8061 97.1767 13.8781L96.6871 14.4397ZM100.798 20.8837C100.65 20.8837 100.534 20.8429 100.453 20.7613C100.376 20.6749 100.338 20.5573 100.338 20.4085V16.5205H98.9337C98.8089 16.5205 98.7105 16.4869 98.6385 16.4197C98.5713 16.3477 98.5377 16.2517 98.5377 16.1317C98.5377 16.0069 98.5713 15.9133 98.6385 15.8509C98.7105 15.7837 98.8089 15.7501 98.9337 15.7501H102.663C102.788 15.7501 102.884 15.7837 102.951 15.8509C103.023 15.9133 103.059 16.0069 103.059 16.1317C103.059 16.2517 103.023 16.3477 102.951 16.4197C102.884 16.4869 102.788 16.5205 102.663 16.5205H101.259V20.4085C101.259 20.5573 101.221 20.6749 101.144 20.7613C101.067 20.8429 100.952 20.8837 100.798 20.8837ZM107.225 20.8837C107.076 20.8837 106.961 20.8429 106.879 20.7613C106.803 20.6749 106.764 20.5573 106.764 20.4085V16.5205H105.36C105.235 16.5205 105.137 16.4869 105.065 16.4197C104.998 16.3477 104.964 16.2517 104.964 16.1317C104.964 16.0069 104.998 15.9133 105.065 15.8509C105.137 15.7837 105.235 15.7501 105.36 15.7501H109.09C109.215 15.7501 109.311 15.7837 109.378 15.8509C109.45 15.9133 109.486 16.0069 109.486 16.1317C109.486 16.2517 109.45 16.3477 109.378 16.4197C109.311 16.4869 109.215 16.5205 109.09 16.5205H107.686V20.4085C107.686 20.5573 107.647 20.6749 107.571 20.7613C107.494 20.8429 107.379 20.8837 107.225 20.8837ZM109.5 20.8837C109.385 20.8837 109.291 20.8573 109.219 20.8045C109.152 20.7517 109.111 20.6821 109.097 20.5957C109.082 20.5045 109.099 20.4037 109.147 20.2933L111.048 16.0813C111.11 15.9421 111.185 15.8437 111.271 15.7861C111.362 15.7237 111.466 15.6925 111.581 15.6925C111.691 15.6925 111.79 15.7237 111.876 15.7861C111.967 15.8437 112.044 15.9421 112.106 16.0813L114.014 20.2933C114.067 20.4037 114.086 20.5045 114.072 20.5957C114.058 20.6869 114.017 20.7589 113.95 20.8117C113.882 20.8597 113.794 20.8837 113.683 20.8837C113.549 20.8837 113.443 20.8525 113.366 20.7901C113.294 20.7229 113.23 20.6221 113.172 20.4877L112.704 19.4005L113.093 19.6525H110.054L110.443 19.4005L109.982 20.4877C109.92 20.6269 109.855 20.7277 109.788 20.7901C109.721 20.8525 109.625 20.8837 109.5 20.8837ZM111.566 16.7509L110.558 19.1485L110.371 18.9181H112.776L112.596 19.1485L111.581 16.7509H111.566ZM111.581 22.3309C111.432 22.3309 111.317 22.2901 111.235 22.2085C111.154 22.1317 111.113 22.0213 111.113 21.8773C111.113 21.7333 111.154 21.6229 111.235 21.5461C111.317 21.4693 111.432 21.4309 111.581 21.4309C111.734 21.4309 111.852 21.4693 111.934 21.5461C112.015 21.6229 112.056 21.7333 112.056 21.8773C112.056 22.0213 112.015 22.1317 111.934 22.2085C111.852 22.2901 111.734 22.3309 111.581 22.3309ZM115.268 20.8837C115.119 20.8837 115.004 20.8429 114.923 20.7613C114.846 20.6749 114.807 20.5573 114.807 20.4085V16.1677C114.807 16.0141 114.846 15.8965 114.923 15.8149C115.004 15.7333 115.119 15.6925 115.268 15.6925C115.417 15.6925 115.53 15.7333 115.607 15.8149C115.688 15.8965 115.729 16.0141 115.729 16.1677V20.4085C115.729 20.5573 115.691 20.6749 115.614 20.7613C115.537 20.8429 115.422 20.8837 115.268 20.8837Z" fill="white"/>
<path d="M86.3688 32.2032C83.979 32.2032 82.0313 34.02 82.0313 36.5223C82.0313 39.0094 83.979 40.8415 86.3688 40.8415C88.7596 40.8415 90.7074 39.0094 90.7074 36.5223C90.7064 34.02 88.7586 32.2032 86.3688 32.2032ZM86.3688 39.1414C85.0591 39.1414 83.9303 38.0619 83.9303 36.5234C83.9303 34.9686 85.0601 33.9053 86.3688 33.9053C87.6785 33.9053 88.8074 34.9686 88.8074 36.5234C88.8074 38.0609 87.6785 39.1414 86.3688 39.1414ZM76.9052 32.2032C74.5155 32.2032 72.5677 34.02 72.5677 36.5223C72.5677 39.0094 74.5155 40.8415 76.9052 40.8415C79.296 40.8415 81.2438 39.0094 81.2438 36.5223C81.2438 34.02 79.296 32.2032 76.9052 32.2032ZM76.9052 39.1414C75.5955 39.1414 74.4667 38.0619 74.4667 36.5234C74.4667 34.9686 75.5966 33.9053 76.9052 33.9053C78.2149 33.9053 79.3438 34.9686 79.3438 36.5234C79.3448 38.0609 78.2149 39.1414 76.9052 39.1414ZM65.6493 33.5295V35.3616H70.0367C69.9056 36.3924 69.5622 37.1449 69.0379 37.6679C68.3998 38.3056 67.401 39.0094 65.6493 39.0094C62.9487 39.0094 60.8373 36.8331 60.8373 34.1338C60.8373 31.4345 62.9487 29.2582 65.6493 29.2582C67.1064 29.2582 68.1702 29.8309 68.9556 30.5672L70.249 29.2744C69.1517 28.2274 67.6957 27.4261 65.6493 27.4261C61.9499 27.4261 58.8397 30.4362 58.8397 34.1338C58.8397 37.8314 61.9499 40.8415 65.6493 40.8415C67.6459 40.8415 69.1527 40.1864 70.3303 38.9596C71.5415 37.7491 71.9184 36.0471 71.9184 34.673C71.9184 34.2485 71.8859 33.8555 71.8199 33.5285L65.6493 33.5295ZM111.685 34.9523C111.325 33.9875 110.228 32.2032 107.985 32.2032C105.759 32.2032 103.909 33.954 103.909 36.5223C103.909 38.9434 105.743 40.8415 108.198 40.8415C110.178 40.8415 111.324 39.6309 111.8 38.9272L110.326 37.9451C109.836 38.6651 109.164 39.1394 108.198 39.1394C107.233 39.1394 106.545 38.6976 106.103 37.8304L111.881 35.4418L111.685 34.9523ZM105.792 36.3924C105.743 34.7228 107.085 33.8728 108.051 33.8728C108.804 33.8728 109.442 34.2496 109.656 34.7888L105.792 36.3924ZM101.095 40.5805H102.993V27.8851H101.095V40.5805ZM97.9834 33.169H97.9184C97.4926 32.6612 96.6737 32.2032 95.6434 32.2032C93.4822 32.2032 91.5019 34.1013 91.5019 36.5396C91.5019 38.9607 93.4822 40.8425 95.6434 40.8425C96.6747 40.8425 97.4926 40.3845 97.9184 39.8615H97.9834V40.483C97.9834 42.1353 97.0994 43.0188 95.6759 43.0188C94.5135 43.0188 93.7932 42.185 93.4985 41.4812L91.8454 42.1688C92.3199 43.3133 93.5798 44.7208 95.6759 44.7208C97.9021 44.7208 99.7848 43.4118 99.7848 40.221V32.4663H97.9844L97.9834 33.169ZM95.807 39.1414C94.4973 39.1414 93.401 38.0446 93.401 36.5396C93.401 35.0173 94.4973 33.9053 95.807 33.9053C97.0994 33.9053 98.1144 35.0173 98.1144 36.5396C98.1144 38.0446 97.0994 39.1414 95.807 39.1414ZM120.58 27.8851H116.037V40.5805H117.932V35.7708H120.578C122.68 35.7708 124.746 34.2506 124.746 31.8285C124.746 29.4064 122.681 27.8851 120.58 27.8851ZM120.628 34.0038H117.932V29.6522H120.628C122.046 29.6522 122.85 30.8251 122.85 31.8285C122.85 32.8115 122.046 34.0038 120.628 34.0038ZM132.345 32.1809C130.973 32.1809 129.551 32.7851 128.963 34.1246L130.646 34.8264C131.005 34.1246 131.676 33.8951 132.378 33.8951C133.358 33.8951 134.355 34.4831 134.371 35.5281V35.6591C134.028 35.4631 133.292 35.1696 132.394 35.1696C130.581 35.1696 128.733 36.1659 128.733 38.0274C128.733 39.7264 130.221 40.8201 131.887 40.8201C133.161 40.8201 133.864 40.2484 134.305 39.5781H134.37V40.5581H136.201V35.6906C136.202 33.4381 134.518 32.1809 132.345 32.1809ZM132.116 39.1384C131.496 39.1384 130.629 38.8276 130.629 38.0599C130.629 37.0799 131.708 36.7041 132.64 36.7041C133.472 36.7041 133.865 36.8839 134.371 37.1286C134.224 38.3056 133.211 39.1384 132.116 39.1384ZM142.869 32.4581L140.695 37.9624H140.63L138.375 32.4581H136.332L139.715 40.1509L137.786 44.4304H139.764L144.977 32.4581H142.869ZM125.793 40.5805H127.688V27.8851H125.793V40.5805Z" fill="white"/>
<defs>
<filter id="filter0_ii_3586_16494" x="24" y="14.8844" width="24.8397" height="27.7782" filterUnits="userSpaceOnUse" color-interpolation-filters="sRGB">
<feFlood flood-opacity="0" result="BackgroundImageFix"/>
<feBlend mode="normal" in="SourceGraphic" in2="BackgroundImageFix" result="shape"/>
<feColorMatrix in="SourceAlpha" type="matrix" values="0 0 0 0 0 0 0 0 0 0 0 0 0 0 0 0 0 0 127 0" result="hardAlpha"/>
<feOffset dy="-0.162"/>
<feComposite in2="hardAlpha" operator="arithmetic" k2="-1" k3="1"/>
<feColorMatrix type="matrix" values="0 0 0 0 0 0 0 0 0 0 0 0 0 0 0 0 0 0 0.12 0"/>
<feBlend mode="normal" in2="shape" result="effect1_innerShadow_3586_16494"/>
<feColorMatrix in="SourceAlpha" type="matrix" values="0 0 0 0 0 0 0 0 0 0 0 0 0 0 0 0 0 0 127 0" result="hardAlpha"/>
<feOffset dy="0.162"/>
<feComposite in2="hardAlpha" operator="arithmetic" k2="-1" k3="1"/>
<feColorMatrix type="matrix" values="0 0 0 0 1 0 0 0 0 1 0 0 0 0 1 0 0 0 0.25 0"/>
<feBlend mode="normal" in2="effect1_innerShadow_3586_16494" result="effect2_innerShadow_3586_16494"/>
</filter>
<filter id="filter1_i_3586_16494" x="24.498" y="28.773" width="17.9508" height="13.8895" filterUnits="userSpaceOnUse" color-interpolation-filters="sRGB">
<feFlood flood-opacity="0" result="BackgroundImageFix"/>
<feBlend mode="normal" in="SourceGraphic" in2="BackgroundImageFix" result="shape"/>
<feColorMatrix in="SourceAlpha" type="matrix" values="0 0 0 0 0 0 0 0 0 0 0 0 0 0 0 0 0 0 127 0" result="hardAlpha"/>
<feOffset dy="-0.162"/>
<feComposite in2="hardAlpha" operator="arithmetic" k2="-1" k3="1"/>
<feColorMatrix type="matrix" values="0 0 0 0 0 0 0 0 0 0 0 0 0 0 0 0 0 0 0.08 0"/>
<feBlend mode="normal" in2="shape" result="effect1_innerShadow_3586_16494"/>
</filter>
<linearGradient id="paint0_linear_3586_16494" x1="36.7244" y1="16.5779" x2="18.5999" y2="34.6319" gradientUnits="userSpaceOnUse">
<stop stop-color="#00A0FF"/>
<stop offset="0.0066" stop-color="#00A1FF"/>
<stop offset="0.2601" stop-color="#00BEFF"/>
<stop offset="0.5122" stop-color="#00D2FF"/>
<stop offset="0.7604" stop-color="#00DFFF"/>
<stop offset="1" stop-color="#00E3FF"/>
</linearGradient>
<linearGradient id="paint1_linear_3586_16494" x1="49.6689" y1="28.7731" x2="23.639" y2="28.7731" gradientUnits="userSpaceOnUse">
<stop stop-color="#FFE000"/>
<stop offset="0.4087" stop-color="#FFBD00"/>
<stop offset="0.7754" stop-color="#FFA500"/>
<stop offset="1" stop-color="#FF9C00"/>
</linearGradient>
<linearGradient id="paint2_linear_3586_16494" x1="39.9811" y1="31.2504" x2="15.4021" y2="55.7339" gradientUnits="userSpaceOnUse">
<stop stop-color="#FF3A44"/>
<stop offset="1" stop-color="#C31162"/>
</linearGradient>
<linearGradient id="paint3_linear_3586_16494" x1="21.1215" y1="7.36313" x2="32.0967" y2="18.2957" gradientUnits="userSpaceOnUse">
<stop stop-color="#32A071"/>
<stop offset="0.0685" stop-color="#2DA771"/>
<stop offset="0.4762" stop-color="#15CF74"/>
<stop offset="0.8009" stop-color="#06E775"/>
<stop offset="1" stop-color="#00F076"/>
</linearGradient>
</defs>
</svg>
