<svg width="1440" height="100" viewBox="0 0 1440 100" fill="none" xmlns="http://www.w3.org/2000/svg">
<g clip-path="url(#clip0_3586_948)">
<rect width="1440" height="100" fill="#FEA623"/>
<path d="M-31.6475 57.7025C-32.2175 57.7025 -32.6525 57.545 -32.9525 57.23C-33.2525 56.915 -33.4025 56.4725 -33.4025 55.9025V43.2125C-33.4025 42.6425 -33.2525 42.2075 -32.9525 41.9075C-32.6525 41.5925 -32.2175 41.435 -31.6475 41.435C-31.0925 41.435 -30.665 41.5925 -30.365 41.9075C-30.065 42.2075 -29.915 42.6425 -29.915 43.2125V48.545H-29.87L-23.885 42.29C-23.63 42.02 -23.3675 41.8175 -23.0975 41.6825C-22.8125 41.5325 -22.49 41.4575 -22.13 41.4575C-21.605 41.4575 -21.23 41.5925 -21.005 41.8625C-20.765 42.1325 -20.66 42.4475 -20.69 42.8075C-20.72 43.1675 -20.885 43.505 -21.185 43.82L-27.1925 49.9625L-27.17 48.455L-20.87 55.1825C-20.525 55.5575 -20.3525 55.94 -20.3525 56.33C-20.3375 56.72 -20.465 57.05 -20.735 57.32C-20.99 57.575 -21.3725 57.7025 -21.8825 57.7025C-22.3175 57.7025 -22.67 57.6125 -22.94 57.4325C-23.195 57.2525 -23.48 56.99 -23.795 56.645L-29.87 50.255H-29.915V55.9025C-29.915 56.4725 -30.065 56.915 -30.365 57.23C-30.65 57.545 -31.0775 57.7025 -31.6475 57.7025ZM-15.7472 57.68C-16.3022 57.68 -16.7297 57.5225 -17.0297 57.2075C-17.3147 56.8775 -17.4572 56.42 -17.4572 55.835V48.14C-17.4572 47.54 -17.3147 47.0825 -17.0297 46.7675C-16.7297 46.4375 -16.3022 46.2725 -15.7472 46.2725C-15.2072 46.2725 -14.7947 46.4375 -14.5097 46.7675C-14.2097 47.0825 -14.0597 47.54 -14.0597 48.14V55.835C-14.0597 56.42 -14.2022 56.8775 -14.4872 57.2075C-14.7722 57.5225 -15.1922 57.68 -15.7472 57.68ZM-15.7472 44.4275C-16.3772 44.4275 -16.8647 44.285 -17.2097 44C-17.5397 43.7 -17.7047 43.28 -17.7047 42.74C-17.7047 42.185 -17.5397 41.765 -17.2097 41.48C-16.8647 41.18 -16.3772 41.03 -15.7472 41.03C-15.1172 41.03 -14.6372 41.18 -14.3072 41.48C-13.9772 41.765 -13.8122 42.185 -13.8122 42.74C-13.8122 43.28 -13.9772 43.7 -14.3072 44C-14.6372 44.285 -15.1172 44.4275 -15.7472 44.4275ZM-7.1392 57.7475C-8.0992 57.7475 -8.9467 57.515 -9.6817 57.05C-10.4017 56.585 -10.9642 55.9175 -11.3692 55.0475C-11.7742 54.1775 -11.9767 53.15 -11.9767 51.965C-11.9767 50.78 -11.7742 49.76 -11.3692 48.905C-10.9642 48.05 -10.4017 47.39 -9.6817 46.925C-8.9467 46.46 -8.0992 46.2275 -7.1392 46.2275C-6.2692 46.2275 -5.5042 46.4375 -4.8442 46.8575C-4.1692 47.2775 -3.7117 47.825 -3.4717 48.5H-3.7192V43.1675C-3.7192 42.5975 -3.5767 42.17 -3.2917 41.885C-3.0067 41.585 -2.5867 41.435 -2.0317 41.435C-1.4917 41.435 -1.0717 41.585 -0.771699 41.885C-0.471698 42.17 -0.321698 42.5975 -0.321698 43.1675V55.97C-0.321698 56.525 -0.471698 56.9525 -0.771699 57.2525C-1.0567 57.5525 -1.4692 57.7025 -2.0092 57.7025C-2.5492 57.7025 -2.9692 57.5525 -3.2692 57.2525C-3.5542 56.9525 -3.6967 56.525 -3.6967 55.97V54.44L-3.4492 55.3175C-3.6592 56.0525 -4.1092 56.645 -4.7992 57.095C-5.4742 57.53 -6.2542 57.7475 -7.1392 57.7475ZM-6.1267 55.205C-5.6317 55.205 -5.2042 55.085 -4.8442 54.845C-4.4842 54.605 -4.1992 54.2525 -3.9892 53.7875C-3.7792 53.3075 -3.6742 52.7 -3.6742 51.965C-3.6742 50.87 -3.8992 50.0675 -4.3492 49.5575C-4.7992 49.0325 -5.3917 48.77 -6.1267 48.77C-6.6067 48.77 -7.0342 48.8825 -7.4092 49.1075C-7.7692 49.3325 -8.0542 49.685 -8.2642 50.165C-8.4592 50.63 -8.5567 51.23 -8.5567 51.965C-8.5567 53.06 -8.3317 53.8775 -7.8817 54.4175C-7.4317 54.9425 -6.8467 55.205 -6.1267 55.205ZM8.12371 57.7025C7.55371 57.7025 7.11871 57.545 6.81871 57.23C6.51871 56.915 6.36871 56.4725 6.36871 55.9025V44.5175H2.38621C1.92121 44.5175 1.56121 44.39 1.30621 44.135C1.05121 43.88 0.923711 43.5275 0.923711 43.0775C0.923711 42.6125 1.05121 42.26 1.30621 42.02C1.56121 41.765 1.92121 41.6375 2.38621 41.6375H13.8387C14.3037 41.6375 14.6637 41.765 14.9187 42.02C15.1737 42.26 15.3012 42.6125 15.3012 43.0775C15.3012 43.5275 15.1737 43.88 14.9187 44.135C14.6637 44.39 14.3037 44.5175 13.8387 44.5175H9.85621V55.9025C9.85621 56.4725 9.70621 56.915 9.40621 57.23C9.12121 57.545 8.69371 57.7025 8.12371 57.7025ZM18.4677 57.7475C17.6577 57.7475 16.9302 57.59 16.2852 57.275C15.6402 56.96 15.1377 56.5325 14.7777 55.9925C14.4177 55.4525 14.2377 54.845 14.2377 54.17C14.2377 53.36 14.4477 52.7225 14.8677 52.2575C15.2877 51.7775 15.9702 51.44 16.9152 51.245C17.8602 51.035 19.1127 50.93 20.6727 50.93H21.8652V52.685H20.6952C19.9302 52.685 19.3077 52.73 18.8277 52.82C18.3627 52.895 18.0252 53.03 17.8152 53.225C17.6202 53.42 17.5227 53.69 17.5227 54.035C17.5227 54.455 17.6652 54.8 17.9502 55.07C18.2502 55.34 18.6777 55.475 19.2327 55.475C19.6677 55.475 20.0502 55.3775 20.3802 55.1825C20.7252 54.9725 20.9952 54.695 21.1902 54.35C21.3852 53.99 21.4827 53.585 21.4827 53.135V50.5475C21.4827 49.8875 21.3327 49.4225 21.0327 49.1525C20.7327 48.8675 20.2227 48.725 19.5027 48.725C19.0977 48.725 18.6552 48.7775 18.1752 48.8825C17.7102 48.9725 17.1927 49.13 16.6227 49.355C16.2927 49.505 16.0002 49.5425 15.7452 49.4675C15.4902 49.3775 15.2952 49.2275 15.1602 49.0175C15.0252 48.7925 14.9577 48.5525 14.9577 48.2975C14.9577 48.0275 15.0327 47.7725 15.1827 47.5325C15.3327 47.2775 15.5802 47.09 15.9252 46.97C16.6302 46.685 17.2902 46.49 17.9052 46.385C18.5352 46.28 19.1127 46.2275 19.6377 46.2275C20.7927 46.2275 21.7377 46.4 22.4727 46.745C23.2227 47.075 23.7852 47.5925 24.1602 48.2975C24.5352 48.9875 24.7227 49.88 24.7227 50.975V55.97C24.7227 56.525 24.5877 56.9525 24.3177 57.2525C24.0477 57.5525 23.6577 57.7025 23.1477 57.7025C22.6377 57.7025 22.2402 57.5525 21.9552 57.2525C21.6852 56.9525 21.5502 56.525 21.5502 55.97V55.1375L21.7077 55.2725C21.6177 55.7825 21.4227 56.225 21.1227 56.6C20.8377 56.96 20.4702 57.245 20.0202 57.455C19.5702 57.65 19.0527 57.7475 18.4677 57.7475ZM31.2396 57.7475C29.9046 57.7475 28.9071 57.38 28.2471 56.645C27.5871 55.895 27.2571 54.785 27.2571 53.315V43.1675C27.2571 42.5975 27.3996 42.17 27.6846 41.885C27.9846 41.585 28.4121 41.435 28.9671 41.435C29.5071 41.435 29.9196 41.585 30.2046 41.885C30.5046 42.17 30.6546 42.5975 30.6546 43.1675V53.18C30.6546 53.795 30.7821 54.2525 31.0371 54.5525C31.3071 54.8375 31.6596 54.98 32.0946 54.98C32.2146 54.98 32.3271 54.9725 32.4321 54.9575C32.5371 54.9425 32.6496 54.935 32.7696 54.935C33.0096 54.905 33.1746 54.98 33.2646 55.16C33.3696 55.325 33.4221 55.6625 33.4221 56.1725C33.4221 56.6225 33.3321 56.9675 33.1521 57.2075C32.9721 57.4325 32.6946 57.5825 32.3196 57.6575C32.1696 57.6725 31.9971 57.6875 31.8021 57.7025C31.6071 57.7325 31.4196 57.7475 31.2396 57.7475ZM36.4598 57.7025C35.9048 57.7025 35.4773 57.5525 35.1773 57.2525C34.8923 56.9525 34.7498 56.525 34.7498 55.97V43.1675C34.7498 42.5975 34.8923 42.17 35.1773 41.885C35.4773 41.585 35.9048 41.435 36.4598 41.435C36.9998 41.435 37.4123 41.585 37.6973 41.885C37.9973 42.17 38.1473 42.5975 38.1473 43.1675V51.02H38.1923L41.4548 47.3975C41.7848 47.0225 42.0848 46.745 42.3548 46.565C42.6398 46.37 43.0148 46.2725 43.4798 46.2725C43.9448 46.2725 44.2973 46.3925 44.5373 46.6325C44.7923 46.8725 44.9198 47.165 44.9198 47.51C44.9348 47.84 44.7923 48.1775 44.4923 48.5225L41.0498 52.37V51.0875L44.8748 55.4975C45.1598 55.8425 45.2798 56.1875 45.2348 56.5325C45.2048 56.8775 45.0548 57.1625 44.7848 57.3875C44.5148 57.5975 44.1698 57.7025 43.7498 57.7025C43.2398 57.7025 42.8273 57.605 42.5123 57.41C42.2123 57.215 41.9048 56.915 41.5898 56.51L38.1923 52.73H38.1473V55.97C38.1473 57.125 37.5848 57.7025 36.4598 57.7025ZM49.0062 57.68C48.4512 57.68 48.0237 57.5225 47.7237 57.2075C47.4387 56.8775 47.2962 56.42 47.2962 55.835V48.14C47.2962 47.54 47.4387 47.0825 47.7237 46.7675C48.0237 46.4375 48.4512 46.2725 49.0062 46.2725C49.5462 46.2725 49.9587 46.4375 50.2437 46.7675C50.5437 47.0825 50.6937 47.54 50.6937 48.14V55.835C50.6937 56.42 50.5512 56.8775 50.2662 57.2075C49.9812 57.5225 49.5612 57.68 49.0062 57.68ZM49.0062 44.4275C48.3762 44.4275 47.8887 44.285 47.5437 44C47.2137 43.7 47.0487 43.28 47.0487 42.74C47.0487 42.185 47.2137 41.765 47.5437 41.48C47.8887 41.18 48.3762 41.03 49.0062 41.03C49.6362 41.03 50.1162 41.18 50.4462 41.48C50.7762 41.765 50.9412 42.185 50.9412 42.74C50.9412 43.28 50.7762 43.7 50.4462 44C50.1162 44.285 49.6362 44.4275 49.0062 44.4275ZM59.0542 57.7475C57.7492 57.7475 56.6242 57.515 55.6792 57.05C54.7492 56.57 54.0292 55.9025 53.5192 55.0475C53.0242 54.1775 52.7767 53.1575 52.7767 51.9875C52.7767 50.8475 53.0167 49.85 53.4967 48.995C53.9767 48.125 54.6442 47.45 55.4992 46.97C56.3692 46.475 57.3517 46.2275 58.4467 46.2275C59.2417 46.2275 59.9617 46.3625 60.6067 46.6325C61.2517 46.8875 61.8067 47.2625 62.2717 47.7575C62.7367 48.2375 63.0892 48.83 63.3292 49.535C63.5692 50.225 63.6892 50.9975 63.6892 51.8525C63.6892 52.1375 63.5992 52.355 63.4192 52.505C63.2392 52.64 62.9767 52.7075 62.6317 52.7075H55.5667V50.9525H61.2367L60.8767 51.2675C60.8767 50.6525 60.7867 50.1425 60.6067 49.7375C60.4267 49.3175 60.1642 49.0025 59.8192 48.7925C59.4892 48.5825 59.0767 48.4775 58.5817 48.4775C58.0267 48.4775 57.5542 48.605 57.1642 48.86C56.7742 49.115 56.4742 49.4825 56.2642 49.9625C56.0542 50.4425 55.9492 51.02 55.9492 51.695V51.875C55.9492 53.015 56.2117 53.855 56.7367 54.395C57.2767 54.935 58.0717 55.205 59.1217 55.205C59.4817 55.205 59.8942 55.16 60.3592 55.07C60.8242 54.98 61.2592 54.8375 61.6642 54.6425C62.0092 54.4775 62.3167 54.425 62.5867 54.485C62.8567 54.53 63.0667 54.65 63.2167 54.845C63.3667 55.04 63.4492 55.265 63.4642 55.52C63.4942 55.775 63.4417 56.03 63.3067 56.285C63.1717 56.525 62.9467 56.7275 62.6317 56.8925C62.1217 57.1775 61.5442 57.3875 60.8992 57.5225C60.2692 57.6725 59.6542 57.7475 59.0542 57.7475Z" fill="white"/>
<g clip-path="url(#clip1_3586_948)">
<path d="M127.264 40.8969V41.3118C127.268 41.1609 127.279 40.9425 127.309 40.6761C127.28 40.744 127.264 40.8186 127.264 40.8969Z" fill="white"/>
<path fill-rule="evenodd" clip-rule="evenodd" d="M127.837 40.3242C127.599 40.3242 127.395 40.4695 127.309 40.6761C127.499 38.9672 128.458 35.2835 133.169 34.7643H137.55L142.471 34.7645H152.184C155.565 34.7645 158.316 37.5155 158.316 40.8968V45.8305C157.911 45.0809 157.416 44.3617 156.828 43.6885C154.953 41.5415 153.042 40.6514 152.524 40.4369C152.429 40.3664 152.311 40.3242 152.184 40.3242H127.837Z" fill="white"/>
<path fill-rule="evenodd" clip-rule="evenodd" d="M127.953 38.2527L133.608 36.6315L131.646 31.6539C132.302 30.7123 132.504 29.5303 132.184 28.4126C131.601 26.3815 129.473 25.2037 127.439 25.7869C125.405 26.3702 124.224 28.4971 124.806 30.5279C125.127 31.6456 125.924 32.5408 126.98 32.9916L127.953 38.2527Z" fill="white"/>
<path fill-rule="evenodd" clip-rule="evenodd" d="M146.581 36.6312L152.236 38.2529L153.21 32.992C154.265 32.5411 155.063 31.6459 155.383 30.5282C155.966 28.4971 154.784 26.3702 152.75 25.7869C150.716 25.2036 148.588 26.3816 148.006 28.4124C147.685 29.5301 147.887 30.7121 148.543 31.6537L146.581 36.6312Z" fill="white"/>
<path d="M142.654 61.5084H131.142L127.264 65.2377V41.5432C127.264 41.5432 127.261 41.46 127.264 41.3118V40.8968C127.264 40.8186 127.28 40.7442 127.309 40.6763C127.499 38.9672 128.458 35.2837 133.169 34.7647H127.837C124.456 34.7645 121.705 37.5155 121.705 40.8968V71.5108C121.705 72.6903 122.379 73.7097 123.464 74.1714C123.839 74.331 124.228 74.4091 124.612 74.4091C125.338 74.4091 126.045 74.1295 126.601 73.5942L133.218 67.2269C134.949 65.4343 138.38 62.4301 142.654 61.5084Z" fill="white"/>
<path d="M127.264 41.5432V41.3118C127.261 41.46 127.264 41.5432 127.264 41.5432Z" fill="white"/>
<path d="M152.522 61.3975C152.427 61.4669 152.311 61.5084 152.184 61.5084H152.118H151.967H142.654C138.38 62.4299 134.949 65.4343 133.218 67.2268L133.383 67.0681H152.185C155.566 67.0681 158.317 64.3171 158.317 60.9358V56.7943C157.113 58.9235 155.154 60.6183 152.522 61.3975Z" fill="white"/>
<path d="M152.524 40.4369C152.665 40.5413 152.757 40.7083 152.757 40.8966V60.936C152.757 61.1255 152.664 61.2933 152.522 61.3975C155.154 60.6183 157.113 58.9236 158.317 56.7945V45.8305C157.911 45.0809 157.416 44.3617 156.828 43.6885C154.953 41.5417 153.043 40.6514 152.524 40.4369Z" fill="white"/>
<path d="M147.286 54.2339C148.063 53.4715 147.939 52.2143 147.098 51.5146L146.38 50.9181C145.889 50.5094 145.156 50.5996 144.783 51.1147C142.687 53.8509 140.752 55.3713 137.974 54.8697C136.171 54.5442 134.717 53.6159 134.254 53.294C134.15 53.2218 134.036 53.1664 133.914 53.135C133.501 53.0289 133.07 53.2179 132.87 53.5928L132.618 54.0655C132.267 54.724 132.411 55.5466 133.032 55.9676C135.883 57.9022 141.532 59.8761 147.286 54.2339Z" fill="white"/>
<path d="M130.915 47.8243C130.604 48.3305 130.762 48.978 131.221 49.3542L131.276 49.3989C131.346 49.4561 131.424 49.5018 131.508 49.5345L131.539 49.5463C131.893 49.684 132.296 49.5578 132.508 49.2423C132.528 49.2036 132.879 48.5103 133.5 48.0458C134.336 47.4201 135.351 47.4728 136.519 48.2019C136.921 48.453 137.451 48.256 137.592 47.8034L137.779 47.2042C137.966 46.6019 137.657 45.9469 137.052 45.7712C133.579 44.7643 131.861 46.2806 130.915 47.8243Z" fill="white"/>
<circle cx="144.681" cy="46.4807" r="2.26705" transform="rotate(-8.70619 144.681 46.4807)" fill="white"/>
</g>
<path d="M178.353 57.7025C177.783 57.7025 177.348 57.545 177.048 57.23C176.748 56.915 176.598 56.4725 176.598 55.9025V43.2125C176.598 42.6425 176.748 42.2075 177.048 41.9075C177.348 41.5925 177.783 41.435 178.353 41.435C178.908 41.435 179.335 41.5925 179.635 41.9075C179.935 42.2075 180.085 42.6425 180.085 43.2125V48.545H180.13L186.115 42.29C186.37 42.02 186.633 41.8175 186.903 41.6825C187.188 41.5325 187.51 41.4575 187.87 41.4575C188.395 41.4575 188.77 41.5925 188.995 41.8625C189.235 42.1325 189.34 42.4475 189.31 42.8075C189.28 43.1675 189.115 43.505 188.815 43.82L182.808 49.9625L182.83 48.455L189.13 55.1825C189.475 55.5575 189.648 55.94 189.648 56.33C189.663 56.72 189.535 57.05 189.265 57.32C189.01 57.575 188.628 57.7025 188.118 57.7025C187.683 57.7025 187.33 57.6125 187.06 57.4325C186.805 57.2525 186.52 56.99 186.205 56.645L180.13 50.255H180.085V55.9025C180.085 56.4725 179.935 56.915 179.635 57.23C179.35 57.545 178.923 57.7025 178.353 57.7025ZM194.253 57.68C193.698 57.68 193.27 57.5225 192.97 57.2075C192.685 56.8775 192.543 56.42 192.543 55.835V48.14C192.543 47.54 192.685 47.0825 192.97 46.7675C193.27 46.4375 193.698 46.2725 194.253 46.2725C194.793 46.2725 195.205 46.4375 195.49 46.7675C195.79 47.0825 195.94 47.54 195.94 48.14V55.835C195.94 56.42 195.798 56.8775 195.513 57.2075C195.228 57.5225 194.808 57.68 194.253 57.68ZM194.253 44.4275C193.623 44.4275 193.135 44.285 192.79 44C192.46 43.7 192.295 43.28 192.295 42.74C192.295 42.185 192.46 41.765 192.79 41.48C193.135 41.18 193.623 41.03 194.253 41.03C194.883 41.03 195.363 41.18 195.693 41.48C196.023 41.765 196.188 42.185 196.188 42.74C196.188 43.28 196.023 43.7 195.693 44C195.363 44.285 194.883 44.4275 194.253 44.4275ZM202.861 57.7475C201.901 57.7475 201.053 57.515 200.318 57.05C199.598 56.585 199.036 55.9175 198.631 55.0475C198.226 54.1775 198.023 53.15 198.023 51.965C198.023 50.78 198.226 49.76 198.631 48.905C199.036 48.05 199.598 47.39 200.318 46.925C201.053 46.46 201.901 46.2275 202.861 46.2275C203.731 46.2275 204.496 46.4375 205.156 46.8575C205.831 47.2775 206.288 47.825 206.528 48.5H206.281V43.1675C206.281 42.5975 206.423 42.17 206.708 41.885C206.993 41.585 207.413 41.435 207.968 41.435C208.508 41.435 208.928 41.585 209.228 41.885C209.528 42.17 209.678 42.5975 209.678 43.1675V55.97C209.678 56.525 209.528 56.9525 209.228 57.2525C208.943 57.5525 208.531 57.7025 207.991 57.7025C207.451 57.7025 207.031 57.5525 206.731 57.2525C206.446 56.9525 206.303 56.525 206.303 55.97V54.44L206.551 55.3175C206.341 56.0525 205.891 56.645 205.201 57.095C204.526 57.53 203.746 57.7475 202.861 57.7475ZM203.873 55.205C204.368 55.205 204.796 55.085 205.156 54.845C205.516 54.605 205.801 54.2525 206.011 53.7875C206.221 53.3075 206.326 52.7 206.326 51.965C206.326 50.87 206.101 50.0675 205.651 49.5575C205.201 49.0325 204.608 48.77 203.873 48.77C203.393 48.77 202.966 48.8825 202.591 49.1075C202.231 49.3325 201.946 49.685 201.736 50.165C201.541 50.63 201.443 51.23 201.443 51.965C201.443 53.06 201.668 53.8775 202.118 54.4175C202.568 54.9425 203.153 55.205 203.873 55.205ZM218.124 57.7025C217.554 57.7025 217.119 57.545 216.819 57.23C216.519 56.915 216.369 56.4725 216.369 55.9025V44.5175H212.386C211.921 44.5175 211.561 44.39 211.306 44.135C211.051 43.88 210.924 43.5275 210.924 43.0775C210.924 42.6125 211.051 42.26 211.306 42.02C211.561 41.765 211.921 41.6375 212.386 41.6375H223.839C224.304 41.6375 224.664 41.765 224.919 42.02C225.174 42.26 225.301 42.6125 225.301 43.0775C225.301 43.5275 225.174 43.88 224.919 44.135C224.664 44.39 224.304 44.5175 223.839 44.5175H219.856V55.9025C219.856 56.4725 219.706 56.915 219.406 57.23C219.121 57.545 218.694 57.7025 218.124 57.7025ZM228.468 57.7475C227.658 57.7475 226.93 57.59 226.285 57.275C225.64 56.96 225.138 56.5325 224.778 55.9925C224.418 55.4525 224.238 54.845 224.238 54.17C224.238 53.36 224.448 52.7225 224.868 52.2575C225.288 51.7775 225.97 51.44 226.915 51.245C227.86 51.035 229.113 50.93 230.673 50.93H231.865V52.685H230.695C229.93 52.685 229.308 52.73 228.828 52.82C228.363 52.895 228.025 53.03 227.815 53.225C227.62 53.42 227.523 53.69 227.523 54.035C227.523 54.455 227.665 54.8 227.95 55.07C228.25 55.34 228.678 55.475 229.233 55.475C229.668 55.475 230.05 55.3775 230.38 55.1825C230.725 54.9725 230.995 54.695 231.19 54.35C231.385 53.99 231.483 53.585 231.483 53.135V50.5475C231.483 49.8875 231.333 49.4225 231.033 49.1525C230.733 48.8675 230.223 48.725 229.503 48.725C229.098 48.725 228.655 48.7775 228.175 48.8825C227.71 48.9725 227.193 49.13 226.623 49.355C226.293 49.505 226 49.5425 225.745 49.4675C225.49 49.3775 225.295 49.2275 225.16 49.0175C225.025 48.7925 224.958 48.5525 224.958 48.2975C224.958 48.0275 225.033 47.7725 225.183 47.5325C225.333 47.2775 225.58 47.09 225.925 46.97C226.63 46.685 227.29 46.49 227.905 46.385C228.535 46.28 229.113 46.2275 229.638 46.2275C230.793 46.2275 231.738 46.4 232.473 46.745C233.223 47.075 233.785 47.5925 234.16 48.2975C234.535 48.9875 234.723 49.88 234.723 50.975V55.97C234.723 56.525 234.588 56.9525 234.318 57.2525C234.048 57.5525 233.658 57.7025 233.148 57.7025C232.638 57.7025 232.24 57.5525 231.955 57.2525C231.685 56.9525 231.55 56.525 231.55 55.97V55.1375L231.708 55.2725C231.618 55.7825 231.423 56.225 231.123 56.6C230.838 56.96 230.47 57.245 230.02 57.455C229.57 57.65 229.053 57.7475 228.468 57.7475ZM241.24 57.7475C239.905 57.7475 238.907 57.38 238.247 56.645C237.587 55.895 237.257 54.785 237.257 53.315V43.1675C237.257 42.5975 237.4 42.17 237.685 41.885C237.985 41.585 238.412 41.435 238.967 41.435C239.507 41.435 239.92 41.585 240.205 41.885C240.505 42.17 240.655 42.5975 240.655 43.1675V53.18C240.655 53.795 240.782 54.2525 241.037 54.5525C241.307 54.8375 241.66 54.98 242.095 54.98C242.215 54.98 242.327 54.9725 242.432 54.9575C242.537 54.9425 242.65 54.935 242.77 54.935C243.01 54.905 243.175 54.98 243.265 55.16C243.37 55.325 243.422 55.6625 243.422 56.1725C243.422 56.6225 243.332 56.9675 243.152 57.2075C242.972 57.4325 242.695 57.5825 242.32 57.6575C242.17 57.6725 241.997 57.6875 241.802 57.7025C241.607 57.7325 241.42 57.7475 241.24 57.7475ZM246.46 57.7025C245.905 57.7025 245.477 57.5525 245.177 57.2525C244.892 56.9525 244.75 56.525 244.75 55.97V43.1675C244.75 42.5975 244.892 42.17 245.177 41.885C245.477 41.585 245.905 41.435 246.46 41.435C247 41.435 247.412 41.585 247.697 41.885C247.997 42.17 248.147 42.5975 248.147 43.1675V51.02H248.192L251.455 47.3975C251.785 47.0225 252.085 46.745 252.355 46.565C252.64 46.37 253.015 46.2725 253.48 46.2725C253.945 46.2725 254.297 46.3925 254.537 46.6325C254.792 46.8725 254.92 47.165 254.92 47.51C254.935 47.84 254.792 48.1775 254.492 48.5225L251.05 52.37V51.0875L254.875 55.4975C255.16 55.8425 255.28 56.1875 255.235 56.5325C255.205 56.8775 255.055 57.1625 254.785 57.3875C254.515 57.5975 254.17 57.7025 253.75 57.7025C253.24 57.7025 252.827 57.605 252.512 57.41C252.212 57.215 251.905 56.915 251.59 56.51L248.192 52.73H248.147V55.97C248.147 57.125 247.585 57.7025 246.46 57.7025ZM259.006 57.68C258.451 57.68 258.024 57.5225 257.724 57.2075C257.439 56.8775 257.296 56.42 257.296 55.835V48.14C257.296 47.54 257.439 47.0825 257.724 46.7675C258.024 46.4375 258.451 46.2725 259.006 46.2725C259.546 46.2725 259.959 46.4375 260.244 46.7675C260.544 47.0825 260.694 47.54 260.694 48.14V55.835C260.694 56.42 260.551 56.8775 260.266 57.2075C259.981 57.5225 259.561 57.68 259.006 57.68ZM259.006 44.4275C258.376 44.4275 257.889 44.285 257.544 44C257.214 43.7 257.049 43.28 257.049 42.74C257.049 42.185 257.214 41.765 257.544 41.48C257.889 41.18 258.376 41.03 259.006 41.03C259.636 41.03 260.116 41.18 260.446 41.48C260.776 41.765 260.941 42.185 260.941 42.74C260.941 43.28 260.776 43.7 260.446 44C260.116 44.285 259.636 44.4275 259.006 44.4275ZM269.054 57.7475C267.749 57.7475 266.624 57.515 265.679 57.05C264.749 56.57 264.029 55.9025 263.519 55.0475C263.024 54.1775 262.777 53.1575 262.777 51.9875C262.777 50.8475 263.017 49.85 263.497 48.995C263.977 48.125 264.644 47.45 265.499 46.97C266.369 46.475 267.352 46.2275 268.447 46.2275C269.242 46.2275 269.962 46.3625 270.607 46.6325C271.252 46.8875 271.807 47.2625 272.272 47.7575C272.737 48.2375 273.089 48.83 273.329 49.535C273.569 50.225 273.689 50.9975 273.689 51.8525C273.689 52.1375 273.599 52.355 273.419 52.505C273.239 52.64 272.977 52.7075 272.632 52.7075H265.567V50.9525H271.237L270.877 51.2675C270.877 50.6525 270.787 50.1425 270.607 49.7375C270.427 49.3175 270.164 49.0025 269.819 48.7925C269.489 48.5825 269.077 48.4775 268.582 48.4775C268.027 48.4775 267.554 48.605 267.164 48.86C266.774 49.115 266.474 49.4825 266.264 49.9625C266.054 50.4425 265.949 51.02 265.949 51.695V51.875C265.949 53.015 266.212 53.855 266.737 54.395C267.277 54.935 268.072 55.205 269.122 55.205C269.482 55.205 269.894 55.16 270.359 55.07C270.824 54.98 271.259 54.8375 271.664 54.6425C272.009 54.4775 272.317 54.425 272.587 54.485C272.857 54.53 273.067 54.65 273.217 54.845C273.367 55.04 273.449 55.265 273.464 55.52C273.494 55.775 273.442 56.03 273.307 56.285C273.172 56.525 272.947 56.7275 272.632 56.8925C272.122 57.1775 271.544 57.3875 270.899 57.5225C270.269 57.6725 269.654 57.7475 269.054 57.7475Z" fill="white"/>
<g clip-path="url(#clip2_3586_948)">
<path d="M337.264 40.8969V41.3118C337.268 41.1609 337.279 40.9425 337.309 40.6761C337.28 40.744 337.264 40.8186 337.264 40.8969Z" fill="white"/>
<path fill-rule="evenodd" clip-rule="evenodd" d="M337.837 40.3242C337.599 40.3242 337.395 40.4695 337.309 40.6761C337.499 38.9672 338.458 35.2835 343.169 34.7643H347.55L352.471 34.7645H362.184C365.565 34.7645 368.316 37.5155 368.316 40.8968V45.8305C367.911 45.0809 367.416 44.3617 366.828 43.6885C364.953 41.5415 363.042 40.6514 362.524 40.4369C362.429 40.3664 362.311 40.3242 362.184 40.3242H337.837Z" fill="white"/>
<path fill-rule="evenodd" clip-rule="evenodd" d="M337.953 38.2527L343.608 36.6315L341.646 31.6539C342.302 30.7123 342.504 29.5303 342.184 28.4126C341.601 26.3815 339.473 25.2037 337.439 25.7869C335.405 26.3702 334.224 28.4971 334.806 30.5279C335.127 31.6456 335.924 32.5408 336.98 32.9916L337.953 38.2527Z" fill="white"/>
<path fill-rule="evenodd" clip-rule="evenodd" d="M356.581 36.6312L362.236 38.2529L363.21 32.992C364.265 32.5411 365.063 31.6459 365.383 30.5282C365.966 28.4971 364.784 26.3702 362.75 25.7869C360.716 25.2036 358.588 26.3816 358.006 28.4124C357.685 29.5301 357.887 30.7121 358.543 31.6537L356.581 36.6312Z" fill="white"/>
<path d="M352.654 61.5084H341.142L337.264 65.2377V41.5432C337.264 41.5432 337.261 41.46 337.264 41.3118V40.8968C337.264 40.8186 337.28 40.7442 337.309 40.6763C337.499 38.9672 338.458 35.2837 343.169 34.7647H337.837C334.455 34.7645 331.705 37.5155 331.705 40.8968V71.5108C331.705 72.6903 332.379 73.7097 333.464 74.1714C333.839 74.331 334.228 74.4091 334.612 74.4091C335.338 74.4091 336.045 74.1295 336.601 73.5942L343.218 67.2269C344.949 65.4343 348.38 62.4301 352.654 61.5084Z" fill="white"/>
<path d="M337.264 41.5432V41.3118C337.261 41.46 337.264 41.5432 337.264 41.5432Z" fill="white"/>
<path d="M362.522 61.3975C362.427 61.4669 362.311 61.5084 362.184 61.5084H362.118H361.967H352.654C348.38 62.4299 344.949 65.4343 343.218 67.2268L343.383 67.0681H362.184C365.566 67.0681 368.317 64.3171 368.317 60.9358V56.7943C367.113 58.9235 365.154 60.6183 362.522 61.3975Z" fill="white"/>
<path d="M362.524 40.4369C362.665 40.5413 362.757 40.7083 362.757 40.8966V60.936C362.757 61.1255 362.664 61.2933 362.522 61.3975C365.154 60.6183 367.113 58.9236 368.317 56.7945V45.8305C367.911 45.0809 367.416 44.3617 366.828 43.6885C364.953 41.5417 363.043 40.6514 362.524 40.4369Z" fill="white"/>
<path d="M357.286 54.2339C358.063 53.4715 357.939 52.2143 357.098 51.5146L356.38 50.9181C355.889 50.5094 355.156 50.5996 354.783 51.1147C352.686 53.8509 350.752 55.3713 347.974 54.8697C346.171 54.5442 344.717 53.6159 344.254 53.294C344.15 53.2218 344.036 53.1664 343.914 53.135C343.501 53.0289 343.07 53.2179 342.87 53.5928L342.618 54.0655C342.267 54.724 342.411 55.5466 343.032 55.9676C345.883 57.9022 351.532 59.8761 357.286 54.2339Z" fill="white"/>
<path d="M340.915 47.8243C340.604 48.3305 340.762 48.978 341.221 49.3542L341.276 49.3989C341.346 49.4561 341.424 49.5018 341.508 49.5345L341.539 49.5463C341.893 49.684 342.296 49.5578 342.508 49.2423C342.528 49.2036 342.879 48.5103 343.5 48.0458C344.336 47.4201 345.351 47.4728 346.519 48.2019C346.921 48.453 347.451 48.256 347.592 47.8034L347.779 47.2042C347.966 46.6019 347.657 45.9469 347.052 45.7712C343.579 44.7643 341.861 46.2806 340.915 47.8243Z" fill="white"/>
<circle cx="354.681" cy="46.4807" r="2.26705" transform="rotate(-8.70619 354.681 46.4807)" fill="white"/>
</g>
<path d="M388.353 57.7025C387.783 57.7025 387.348 57.545 387.048 57.23C386.748 56.915 386.598 56.4725 386.598 55.9025V43.2125C386.598 42.6425 386.748 42.2075 387.048 41.9075C387.348 41.5925 387.783 41.435 388.353 41.435C388.908 41.435 389.335 41.5925 389.635 41.9075C389.935 42.2075 390.085 42.6425 390.085 43.2125V48.545H390.13L396.115 42.29C396.37 42.02 396.633 41.8175 396.903 41.6825C397.188 41.5325 397.51 41.4575 397.87 41.4575C398.395 41.4575 398.77 41.5925 398.995 41.8625C399.235 42.1325 399.34 42.4475 399.31 42.8075C399.28 43.1675 399.115 43.505 398.815 43.82L392.808 49.9625L392.83 48.455L399.13 55.1825C399.475 55.5575 399.648 55.94 399.648 56.33C399.663 56.72 399.535 57.05 399.265 57.32C399.01 57.575 398.628 57.7025 398.118 57.7025C397.683 57.7025 397.33 57.6125 397.06 57.4325C396.805 57.2525 396.52 56.99 396.205 56.645L390.13 50.255H390.085V55.9025C390.085 56.4725 389.935 56.915 389.635 57.23C389.35 57.545 388.923 57.7025 388.353 57.7025ZM404.253 57.68C403.698 57.68 403.27 57.5225 402.97 57.2075C402.685 56.8775 402.543 56.42 402.543 55.835V48.14C402.543 47.54 402.685 47.0825 402.97 46.7675C403.27 46.4375 403.698 46.2725 404.253 46.2725C404.793 46.2725 405.205 46.4375 405.49 46.7675C405.79 47.0825 405.94 47.54 405.94 48.14V55.835C405.94 56.42 405.798 56.8775 405.513 57.2075C405.228 57.5225 404.808 57.68 404.253 57.68ZM404.253 44.4275C403.623 44.4275 403.135 44.285 402.79 44C402.46 43.7 402.295 43.28 402.295 42.74C402.295 42.185 402.46 41.765 402.79 41.48C403.135 41.18 403.623 41.03 404.253 41.03C404.883 41.03 405.363 41.18 405.693 41.48C406.023 41.765 406.188 42.185 406.188 42.74C406.188 43.28 406.023 43.7 405.693 44C405.363 44.285 404.883 44.4275 404.253 44.4275ZM412.861 57.7475C411.901 57.7475 411.053 57.515 410.318 57.05C409.598 56.585 409.036 55.9175 408.631 55.0475C408.226 54.1775 408.023 53.15 408.023 51.965C408.023 50.78 408.226 49.76 408.631 48.905C409.036 48.05 409.598 47.39 410.318 46.925C411.053 46.46 411.901 46.2275 412.861 46.2275C413.731 46.2275 414.496 46.4375 415.156 46.8575C415.831 47.2775 416.288 47.825 416.528 48.5H416.281V43.1675C416.281 42.5975 416.423 42.17 416.708 41.885C416.993 41.585 417.413 41.435 417.968 41.435C418.508 41.435 418.928 41.585 419.228 41.885C419.528 42.17 419.678 42.5975 419.678 43.1675V55.97C419.678 56.525 419.528 56.9525 419.228 57.2525C418.943 57.5525 418.531 57.7025 417.991 57.7025C417.451 57.7025 417.031 57.5525 416.731 57.2525C416.446 56.9525 416.303 56.525 416.303 55.97V54.44L416.551 55.3175C416.341 56.0525 415.891 56.645 415.201 57.095C414.526 57.53 413.746 57.7475 412.861 57.7475ZM413.873 55.205C414.368 55.205 414.796 55.085 415.156 54.845C415.516 54.605 415.801 54.2525 416.011 53.7875C416.221 53.3075 416.326 52.7 416.326 51.965C416.326 50.87 416.101 50.0675 415.651 49.5575C415.201 49.0325 414.608 48.77 413.873 48.77C413.393 48.77 412.966 48.8825 412.591 49.1075C412.231 49.3325 411.946 49.685 411.736 50.165C411.541 50.63 411.443 51.23 411.443 51.965C411.443 53.06 411.668 53.8775 412.118 54.4175C412.568 54.9425 413.153 55.205 413.873 55.205ZM428.124 57.7025C427.554 57.7025 427.119 57.545 426.819 57.23C426.519 56.915 426.369 56.4725 426.369 55.9025V44.5175H422.386C421.921 44.5175 421.561 44.39 421.306 44.135C421.051 43.88 420.924 43.5275 420.924 43.0775C420.924 42.6125 421.051 42.26 421.306 42.02C421.561 41.765 421.921 41.6375 422.386 41.6375H433.839C434.304 41.6375 434.664 41.765 434.919 42.02C435.174 42.26 435.301 42.6125 435.301 43.0775C435.301 43.5275 435.174 43.88 434.919 44.135C434.664 44.39 434.304 44.5175 433.839 44.5175H429.856V55.9025C429.856 56.4725 429.706 56.915 429.406 57.23C429.121 57.545 428.694 57.7025 428.124 57.7025ZM438.468 57.7475C437.658 57.7475 436.93 57.59 436.285 57.275C435.64 56.96 435.138 56.5325 434.778 55.9925C434.418 55.4525 434.238 54.845 434.238 54.17C434.238 53.36 434.448 52.7225 434.868 52.2575C435.288 51.7775 435.97 51.44 436.915 51.245C437.86 51.035 439.113 50.93 440.673 50.93H441.865V52.685H440.695C439.93 52.685 439.308 52.73 438.828 52.82C438.363 52.895 438.025 53.03 437.815 53.225C437.62 53.42 437.523 53.69 437.523 54.035C437.523 54.455 437.665 54.8 437.95 55.07C438.25 55.34 438.678 55.475 439.233 55.475C439.668 55.475 440.05 55.3775 440.38 55.1825C440.725 54.9725 440.995 54.695 441.19 54.35C441.385 53.99 441.483 53.585 441.483 53.135V50.5475C441.483 49.8875 441.333 49.4225 441.033 49.1525C440.733 48.8675 440.223 48.725 439.503 48.725C439.098 48.725 438.655 48.7775 438.175 48.8825C437.71 48.9725 437.193 49.13 436.623 49.355C436.293 49.505 436 49.5425 435.745 49.4675C435.49 49.3775 435.295 49.2275 435.16 49.0175C435.025 48.7925 434.958 48.5525 434.958 48.2975C434.958 48.0275 435.033 47.7725 435.183 47.5325C435.333 47.2775 435.58 47.09 435.925 46.97C436.63 46.685 437.29 46.49 437.905 46.385C438.535 46.28 439.113 46.2275 439.638 46.2275C440.793 46.2275 441.738 46.4 442.473 46.745C443.223 47.075 443.785 47.5925 444.16 48.2975C444.535 48.9875 444.723 49.88 444.723 50.975V55.97C444.723 56.525 444.588 56.9525 444.318 57.2525C444.048 57.5525 443.658 57.7025 443.148 57.7025C442.638 57.7025 442.24 57.5525 441.955 57.2525C441.685 56.9525 441.55 56.525 441.55 55.97V55.1375L441.708 55.2725C441.618 55.7825 441.423 56.225 441.123 56.6C440.838 56.96 440.47 57.245 440.02 57.455C439.57 57.65 439.053 57.7475 438.468 57.7475ZM451.24 57.7475C449.905 57.7475 448.907 57.38 448.247 56.645C447.587 55.895 447.257 54.785 447.257 53.315V43.1675C447.257 42.5975 447.4 42.17 447.685 41.885C447.985 41.585 448.412 41.435 448.967 41.435C449.507 41.435 449.92 41.585 450.205 41.885C450.505 42.17 450.655 42.5975 450.655 43.1675V53.18C450.655 53.795 450.782 54.2525 451.037 54.5525C451.307 54.8375 451.66 54.98 452.095 54.98C452.215 54.98 452.327 54.9725 452.432 54.9575C452.537 54.9425 452.65 54.935 452.77 54.935C453.01 54.905 453.175 54.98 453.265 55.16C453.37 55.325 453.422 55.6625 453.422 56.1725C453.422 56.6225 453.332 56.9675 453.152 57.2075C452.972 57.4325 452.695 57.5825 452.32 57.6575C452.17 57.6725 451.997 57.6875 451.802 57.7025C451.607 57.7325 451.42 57.7475 451.24 57.7475ZM456.46 57.7025C455.905 57.7025 455.477 57.5525 455.177 57.2525C454.892 56.9525 454.75 56.525 454.75 55.97V43.1675C454.75 42.5975 454.892 42.17 455.177 41.885C455.477 41.585 455.905 41.435 456.46 41.435C457 41.435 457.412 41.585 457.697 41.885C457.997 42.17 458.147 42.5975 458.147 43.1675V51.02H458.192L461.455 47.3975C461.785 47.0225 462.085 46.745 462.355 46.565C462.64 46.37 463.015 46.2725 463.48 46.2725C463.945 46.2725 464.297 46.3925 464.537 46.6325C464.792 46.8725 464.92 47.165 464.92 47.51C464.935 47.84 464.792 48.1775 464.492 48.5225L461.05 52.37V51.0875L464.875 55.4975C465.16 55.8425 465.28 56.1875 465.235 56.5325C465.205 56.8775 465.055 57.1625 464.785 57.3875C464.515 57.5975 464.17 57.7025 463.75 57.7025C463.24 57.7025 462.827 57.605 462.512 57.41C462.212 57.215 461.905 56.915 461.59 56.51L458.192 52.73H458.147V55.97C458.147 57.125 457.585 57.7025 456.46 57.7025ZM469.006 57.68C468.451 57.68 468.024 57.5225 467.724 57.2075C467.439 56.8775 467.296 56.42 467.296 55.835V48.14C467.296 47.54 467.439 47.0825 467.724 46.7675C468.024 46.4375 468.451 46.2725 469.006 46.2725C469.546 46.2725 469.959 46.4375 470.244 46.7675C470.544 47.0825 470.694 47.54 470.694 48.14V55.835C470.694 56.42 470.551 56.8775 470.266 57.2075C469.981 57.5225 469.561 57.68 469.006 57.68ZM469.006 44.4275C468.376 44.4275 467.889 44.285 467.544 44C467.214 43.7 467.049 43.28 467.049 42.74C467.049 42.185 467.214 41.765 467.544 41.48C467.889 41.18 468.376 41.03 469.006 41.03C469.636 41.03 470.116 41.18 470.446 41.48C470.776 41.765 470.941 42.185 470.941 42.74C470.941 43.28 470.776 43.7 470.446 44C470.116 44.285 469.636 44.4275 469.006 44.4275ZM479.054 57.7475C477.749 57.7475 476.624 57.515 475.679 57.05C474.749 56.57 474.029 55.9025 473.519 55.0475C473.024 54.1775 472.777 53.1575 472.777 51.9875C472.777 50.8475 473.017 49.85 473.497 48.995C473.977 48.125 474.644 47.45 475.499 46.97C476.369 46.475 477.352 46.2275 478.447 46.2275C479.242 46.2275 479.962 46.3625 480.607 46.6325C481.252 46.8875 481.807 47.2625 482.272 47.7575C482.737 48.2375 483.089 48.83 483.329 49.535C483.569 50.225 483.689 50.9975 483.689 51.8525C483.689 52.1375 483.599 52.355 483.419 52.505C483.239 52.64 482.977 52.7075 482.632 52.7075H475.567V50.9525H481.237L480.877 51.2675C480.877 50.6525 480.787 50.1425 480.607 49.7375C480.427 49.3175 480.164 49.0025 479.819 48.7925C479.489 48.5825 479.077 48.4775 478.582 48.4775C478.027 48.4775 477.554 48.605 477.164 48.86C476.774 49.115 476.474 49.4825 476.264 49.9625C476.054 50.4425 475.949 51.02 475.949 51.695V51.875C475.949 53.015 476.212 53.855 476.737 54.395C477.277 54.935 478.072 55.205 479.122 55.205C479.482 55.205 479.894 55.16 480.359 55.07C480.824 54.98 481.259 54.8375 481.664 54.6425C482.009 54.4775 482.317 54.425 482.587 54.485C482.857 54.53 483.067 54.65 483.217 54.845C483.367 55.04 483.449 55.265 483.464 55.52C483.494 55.775 483.442 56.03 483.307 56.285C483.172 56.525 482.947 56.7275 482.632 56.8925C482.122 57.1775 481.544 57.3875 480.899 57.5225C480.269 57.6725 479.654 57.7475 479.054 57.7475Z" fill="white"/>
<g clip-path="url(#clip3_3586_948)">
<path d="M547.264 40.8969V41.3118C547.268 41.1609 547.279 40.9425 547.309 40.6761C547.28 40.744 547.264 40.8186 547.264 40.8969Z" fill="white"/>
<path fill-rule="evenodd" clip-rule="evenodd" d="M547.837 40.3242C547.599 40.3242 547.395 40.4695 547.309 40.6761C547.499 38.9672 548.458 35.2835 553.169 34.7643H557.55L562.471 34.7645H572.184C575.565 34.7645 578.316 37.5155 578.316 40.8968V45.8305C577.911 45.0809 577.416 44.3617 576.828 43.6885C574.953 41.5415 573.042 40.6514 572.524 40.4369C572.429 40.3664 572.311 40.3242 572.184 40.3242H547.837Z" fill="white"/>
<path fill-rule="evenodd" clip-rule="evenodd" d="M547.953 38.2527L553.608 36.6315L551.646 31.6539C552.302 30.7123 552.504 29.5303 552.184 28.4126C551.601 26.3815 549.473 25.2037 547.439 25.7869C545.405 26.3702 544.224 28.4971 544.806 30.5279C545.127 31.6456 545.924 32.5408 546.98 32.9916L547.953 38.2527Z" fill="white"/>
<path fill-rule="evenodd" clip-rule="evenodd" d="M566.581 36.6312L572.236 38.2529L573.21 32.992C574.265 32.5411 575.063 31.6459 575.383 30.5282C575.966 28.4971 574.785 26.3702 572.75 25.7869C570.716 25.2036 568.588 26.3816 568.006 28.4124C567.685 29.5301 567.887 30.7121 568.543 31.6537L566.581 36.6312Z" fill="white"/>
<path d="M562.654 61.5084H551.142L547.264 65.2377V41.5432C547.264 41.5432 547.261 41.46 547.264 41.3118V40.8968C547.264 40.8186 547.28 40.7442 547.309 40.6763C547.499 38.9672 548.458 35.2837 553.169 34.7647H547.837C544.456 34.7645 541.705 37.5155 541.705 40.8968V71.5108C541.705 72.6903 542.379 73.7097 543.464 74.1714C543.839 74.331 544.228 74.4091 544.612 74.4091C545.338 74.4091 546.045 74.1295 546.601 73.5942L553.218 67.2269C554.949 65.4343 558.38 62.4301 562.654 61.5084Z" fill="white"/>
<path d="M547.264 41.5432V41.3118C547.261 41.46 547.264 41.5432 547.264 41.5432Z" fill="white"/>
<path d="M572.522 61.3975C572.427 61.4669 572.311 61.5084 572.184 61.5084H572.118H571.967H562.654C558.38 62.4299 554.949 65.4343 553.218 67.2268L553.383 67.0681H572.184C575.566 67.0681 578.317 64.3171 578.317 60.9358V56.7943C577.113 58.9235 575.154 60.6183 572.522 61.3975Z" fill="white"/>
<path d="M572.524 40.4369C572.665 40.5413 572.757 40.7083 572.757 40.8966V60.936C572.757 61.1255 572.664 61.2933 572.522 61.3975C575.154 60.6183 577.113 58.9236 578.317 56.7945V45.8305C577.911 45.0809 577.416 44.3617 576.828 43.6885C574.953 41.5417 573.043 40.6514 572.524 40.4369Z" fill="white"/>
<path d="M567.286 54.2339C568.063 53.4715 567.939 52.2143 567.098 51.5146L566.38 50.9181C565.889 50.5094 565.156 50.5996 564.783 51.1147C562.687 53.8509 560.752 55.3713 557.974 54.8697C556.171 54.5442 554.717 53.6159 554.254 53.294C554.15 53.2218 554.036 53.1664 553.914 53.135C553.501 53.0289 553.07 53.2179 552.87 53.5928L552.618 54.0655C552.267 54.724 552.411 55.5466 553.032 55.9676C555.883 57.9022 561.532 59.8761 567.286 54.2339Z" fill="white"/>
<path d="M550.915 47.8243C550.604 48.3305 550.762 48.978 551.221 49.3542L551.276 49.3989C551.346 49.4561 551.424 49.5018 551.508 49.5345L551.539 49.5463C551.893 49.684 552.296 49.5578 552.508 49.2423C552.528 49.2036 552.879 48.5103 553.5 48.0458C554.336 47.4201 555.351 47.4728 556.519 48.2019C556.921 48.453 557.451 48.256 557.592 47.8034L557.779 47.2042C557.966 46.6019 557.657 45.9469 557.052 45.7712C553.579 44.7643 551.861 46.2806 550.915 47.8243Z" fill="white"/>
<circle cx="564.681" cy="46.4807" r="2.26705" transform="rotate(-8.70619 564.681 46.4807)" fill="white"/>
</g>
<path d="M598.353 57.7025C597.783 57.7025 597.348 57.545 597.048 57.23C596.748 56.915 596.598 56.4725 596.598 55.9025V43.2125C596.598 42.6425 596.748 42.2075 597.048 41.9075C597.348 41.5925 597.783 41.435 598.353 41.435C598.908 41.435 599.335 41.5925 599.635 41.9075C599.935 42.2075 600.085 42.6425 600.085 43.2125V48.545H600.13L606.115 42.29C606.37 42.02 606.633 41.8175 606.903 41.6825C607.188 41.5325 607.51 41.4575 607.87 41.4575C608.395 41.4575 608.77 41.5925 608.995 41.8625C609.235 42.1325 609.34 42.4475 609.31 42.8075C609.28 43.1675 609.115 43.505 608.815 43.82L602.808 49.9625L602.83 48.455L609.13 55.1825C609.475 55.5575 609.648 55.94 609.648 56.33C609.663 56.72 609.535 57.05 609.265 57.32C609.01 57.575 608.628 57.7025 608.118 57.7025C607.683 57.7025 607.33 57.6125 607.06 57.4325C606.805 57.2525 606.52 56.99 606.205 56.645L600.13 50.255H600.085V55.9025C600.085 56.4725 599.935 56.915 599.635 57.23C599.35 57.545 598.923 57.7025 598.353 57.7025ZM614.253 57.68C613.698 57.68 613.27 57.5225 612.97 57.2075C612.685 56.8775 612.543 56.42 612.543 55.835V48.14C612.543 47.54 612.685 47.0825 612.97 46.7675C613.27 46.4375 613.698 46.2725 614.253 46.2725C614.793 46.2725 615.205 46.4375 615.49 46.7675C615.79 47.0825 615.94 47.54 615.94 48.14V55.835C615.94 56.42 615.798 56.8775 615.513 57.2075C615.228 57.5225 614.808 57.68 614.253 57.68ZM614.253 44.4275C613.623 44.4275 613.135 44.285 612.79 44C612.46 43.7 612.295 43.28 612.295 42.74C612.295 42.185 612.46 41.765 612.79 41.48C613.135 41.18 613.623 41.03 614.253 41.03C614.883 41.03 615.363 41.18 615.693 41.48C616.023 41.765 616.188 42.185 616.188 42.74C616.188 43.28 616.023 43.7 615.693 44C615.363 44.285 614.883 44.4275 614.253 44.4275ZM622.861 57.7475C621.901 57.7475 621.053 57.515 620.318 57.05C619.598 56.585 619.036 55.9175 618.631 55.0475C618.226 54.1775 618.023 53.15 618.023 51.965C618.023 50.78 618.226 49.76 618.631 48.905C619.036 48.05 619.598 47.39 620.318 46.925C621.053 46.46 621.901 46.2275 622.861 46.2275C623.731 46.2275 624.496 46.4375 625.156 46.8575C625.831 47.2775 626.288 47.825 626.528 48.5H626.281V43.1675C626.281 42.5975 626.423 42.17 626.708 41.885C626.993 41.585 627.413 41.435 627.968 41.435C628.508 41.435 628.928 41.585 629.228 41.885C629.528 42.17 629.678 42.5975 629.678 43.1675V55.97C629.678 56.525 629.528 56.9525 629.228 57.2525C628.943 57.5525 628.531 57.7025 627.991 57.7025C627.451 57.7025 627.031 57.5525 626.731 57.2525C626.446 56.9525 626.303 56.525 626.303 55.97V54.44L626.551 55.3175C626.341 56.0525 625.891 56.645 625.201 57.095C624.526 57.53 623.746 57.7475 622.861 57.7475ZM623.873 55.205C624.368 55.205 624.796 55.085 625.156 54.845C625.516 54.605 625.801 54.2525 626.011 53.7875C626.221 53.3075 626.326 52.7 626.326 51.965C626.326 50.87 626.101 50.0675 625.651 49.5575C625.201 49.0325 624.608 48.77 623.873 48.77C623.393 48.77 622.966 48.8825 622.591 49.1075C622.231 49.3325 621.946 49.685 621.736 50.165C621.541 50.63 621.443 51.23 621.443 51.965C621.443 53.06 621.668 53.8775 622.118 54.4175C622.568 54.9425 623.153 55.205 623.873 55.205ZM638.124 57.7025C637.554 57.7025 637.119 57.545 636.819 57.23C636.519 56.915 636.369 56.4725 636.369 55.9025V44.5175H632.386C631.921 44.5175 631.561 44.39 631.306 44.135C631.051 43.88 630.924 43.5275 630.924 43.0775C630.924 42.6125 631.051 42.26 631.306 42.02C631.561 41.765 631.921 41.6375 632.386 41.6375H643.839C644.304 41.6375 644.664 41.765 644.919 42.02C645.174 42.26 645.301 42.6125 645.301 43.0775C645.301 43.5275 645.174 43.88 644.919 44.135C644.664 44.39 644.304 44.5175 643.839 44.5175H639.856V55.9025C639.856 56.4725 639.706 56.915 639.406 57.23C639.121 57.545 638.694 57.7025 638.124 57.7025ZM648.468 57.7475C647.658 57.7475 646.93 57.59 646.285 57.275C645.64 56.96 645.138 56.5325 644.778 55.9925C644.418 55.4525 644.238 54.845 644.238 54.17C644.238 53.36 644.448 52.7225 644.868 52.2575C645.288 51.7775 645.97 51.44 646.915 51.245C647.86 51.035 649.113 50.93 650.673 50.93H651.865V52.685H650.695C649.93 52.685 649.308 52.73 648.828 52.82C648.363 52.895 648.025 53.03 647.815 53.225C647.62 53.42 647.523 53.69 647.523 54.035C647.523 54.455 647.665 54.8 647.95 55.07C648.25 55.34 648.678 55.475 649.233 55.475C649.668 55.475 650.05 55.3775 650.38 55.1825C650.725 54.9725 650.995 54.695 651.19 54.35C651.385 53.99 651.483 53.585 651.483 53.135V50.5475C651.483 49.8875 651.333 49.4225 651.033 49.1525C650.733 48.8675 650.223 48.725 649.503 48.725C649.098 48.725 648.655 48.7775 648.175 48.8825C647.71 48.9725 647.193 49.13 646.623 49.355C646.293 49.505 646 49.5425 645.745 49.4675C645.49 49.3775 645.295 49.2275 645.16 49.0175C645.025 48.7925 644.958 48.5525 644.958 48.2975C644.958 48.0275 645.033 47.7725 645.183 47.5325C645.333 47.2775 645.58 47.09 645.925 46.97C646.63 46.685 647.29 46.49 647.905 46.385C648.535 46.28 649.113 46.2275 649.638 46.2275C650.793 46.2275 651.738 46.4 652.473 46.745C653.223 47.075 653.785 47.5925 654.16 48.2975C654.535 48.9875 654.723 49.88 654.723 50.975V55.97C654.723 56.525 654.588 56.9525 654.318 57.2525C654.048 57.5525 653.658 57.7025 653.148 57.7025C652.638 57.7025 652.24 57.5525 651.955 57.2525C651.685 56.9525 651.55 56.525 651.55 55.97V55.1375L651.708 55.2725C651.618 55.7825 651.423 56.225 651.123 56.6C650.838 56.96 650.47 57.245 650.02 57.455C649.57 57.65 649.053 57.7475 648.468 57.7475ZM661.24 57.7475C659.905 57.7475 658.907 57.38 658.247 56.645C657.587 55.895 657.257 54.785 657.257 53.315V43.1675C657.257 42.5975 657.4 42.17 657.685 41.885C657.985 41.585 658.412 41.435 658.967 41.435C659.507 41.435 659.92 41.585 660.205 41.885C660.505 42.17 660.655 42.5975 660.655 43.1675V53.18C660.655 53.795 660.782 54.2525 661.037 54.5525C661.307 54.8375 661.66 54.98 662.095 54.98C662.215 54.98 662.327 54.9725 662.432 54.9575C662.537 54.9425 662.65 54.935 662.77 54.935C663.01 54.905 663.175 54.98 663.265 55.16C663.37 55.325 663.422 55.6625 663.422 56.1725C663.422 56.6225 663.332 56.9675 663.152 57.2075C662.972 57.4325 662.695 57.5825 662.32 57.6575C662.17 57.6725 661.997 57.6875 661.802 57.7025C661.607 57.7325 661.42 57.7475 661.24 57.7475ZM666.46 57.7025C665.905 57.7025 665.477 57.5525 665.177 57.2525C664.892 56.9525 664.75 56.525 664.75 55.97V43.1675C664.75 42.5975 664.892 42.17 665.177 41.885C665.477 41.585 665.905 41.435 666.46 41.435C667 41.435 667.412 41.585 667.697 41.885C667.997 42.17 668.147 42.5975 668.147 43.1675V51.02H668.192L671.455 47.3975C671.785 47.0225 672.085 46.745 672.355 46.565C672.64 46.37 673.015 46.2725 673.48 46.2725C673.945 46.2725 674.297 46.3925 674.537 46.6325C674.792 46.8725 674.92 47.165 674.92 47.51C674.935 47.84 674.792 48.1775 674.492 48.5225L671.05 52.37V51.0875L674.875 55.4975C675.16 55.8425 675.28 56.1875 675.235 56.5325C675.205 56.8775 675.055 57.1625 674.785 57.3875C674.515 57.5975 674.17 57.7025 673.75 57.7025C673.24 57.7025 672.827 57.605 672.512 57.41C672.212 57.215 671.905 56.915 671.59 56.51L668.192 52.73H668.147V55.97C668.147 57.125 667.585 57.7025 666.46 57.7025ZM679.006 57.68C678.451 57.68 678.024 57.5225 677.724 57.2075C677.439 56.8775 677.296 56.42 677.296 55.835V48.14C677.296 47.54 677.439 47.0825 677.724 46.7675C678.024 46.4375 678.451 46.2725 679.006 46.2725C679.546 46.2725 679.959 46.4375 680.244 46.7675C680.544 47.0825 680.694 47.54 680.694 48.14V55.835C680.694 56.42 680.551 56.8775 680.266 57.2075C679.981 57.5225 679.561 57.68 679.006 57.68ZM679.006 44.4275C678.376 44.4275 677.889 44.285 677.544 44C677.214 43.7 677.049 43.28 677.049 42.74C677.049 42.185 677.214 41.765 677.544 41.48C677.889 41.18 678.376 41.03 679.006 41.03C679.636 41.03 680.116 41.18 680.446 41.48C680.776 41.765 680.941 42.185 680.941 42.74C680.941 43.28 680.776 43.7 680.446 44C680.116 44.285 679.636 44.4275 679.006 44.4275ZM689.054 57.7475C687.749 57.7475 686.624 57.515 685.679 57.05C684.749 56.57 684.029 55.9025 683.519 55.0475C683.024 54.1775 682.777 53.1575 682.777 51.9875C682.777 50.8475 683.017 49.85 683.497 48.995C683.977 48.125 684.644 47.45 685.499 46.97C686.369 46.475 687.352 46.2275 688.447 46.2275C689.242 46.2275 689.962 46.3625 690.607 46.6325C691.252 46.8875 691.807 47.2625 692.272 47.7575C692.737 48.2375 693.089 48.83 693.329 49.535C693.569 50.225 693.689 50.9975 693.689 51.8525C693.689 52.1375 693.599 52.355 693.419 52.505C693.239 52.64 692.977 52.7075 692.632 52.7075H685.567V50.9525H691.237L690.877 51.2675C690.877 50.6525 690.787 50.1425 690.607 49.7375C690.427 49.3175 690.164 49.0025 689.819 48.7925C689.489 48.5825 689.077 48.4775 688.582 48.4775C688.027 48.4775 687.554 48.605 687.164 48.86C686.774 49.115 686.474 49.4825 686.264 49.9625C686.054 50.4425 685.949 51.02 685.949 51.695V51.875C685.949 53.015 686.212 53.855 686.737 54.395C687.277 54.935 688.072 55.205 689.122 55.205C689.482 55.205 689.894 55.16 690.359 55.07C690.824 54.98 691.259 54.8375 691.664 54.6425C692.009 54.4775 692.317 54.425 692.587 54.485C692.857 54.53 693.067 54.65 693.217 54.845C693.367 55.04 693.449 55.265 693.464 55.52C693.494 55.775 693.442 56.03 693.307 56.285C693.172 56.525 692.947 56.7275 692.632 56.8925C692.122 57.1775 691.544 57.3875 690.899 57.5225C690.269 57.6725 689.654 57.7475 689.054 57.7475Z" fill="white"/>
<g clip-path="url(#clip4_3586_948)">
<path d="M757.264 40.8969V41.3118C757.268 41.1609 757.279 40.9425 757.309 40.6761C757.28 40.744 757.264 40.8186 757.264 40.8969Z" fill="white"/>
<path fill-rule="evenodd" clip-rule="evenodd" d="M757.837 40.3242C757.599 40.3242 757.395 40.4695 757.309 40.6761C757.499 38.9672 758.458 35.2835 763.169 34.7643H767.55L772.471 34.7645H782.184C785.565 34.7645 788.316 37.5155 788.316 40.8968V45.8305C787.911 45.0809 787.416 44.3617 786.828 43.6885C784.953 41.5415 783.042 40.6514 782.524 40.4369C782.429 40.3664 782.311 40.3242 782.184 40.3242H757.837Z" fill="white"/>
<path fill-rule="evenodd" clip-rule="evenodd" d="M757.953 38.2527L763.608 36.6315L761.646 31.6539C762.302 30.7123 762.504 29.5303 762.184 28.4126C761.601 26.3815 759.473 25.2037 757.439 25.7869C755.405 26.3702 754.224 28.4971 754.806 30.5279C755.127 31.6456 755.924 32.5408 756.98 32.9916L757.953 38.2527Z" fill="white"/>
<path fill-rule="evenodd" clip-rule="evenodd" d="M776.581 36.6312L782.236 38.2529L783.21 32.992C784.265 32.5411 785.063 31.6459 785.383 30.5282C785.966 28.4971 784.785 26.3702 782.75 25.7869C780.716 25.2036 778.588 26.3816 778.006 28.4124C777.685 29.5301 777.887 30.7121 778.543 31.6537L776.581 36.6312Z" fill="white"/>
<path d="M772.654 61.5084H761.142L757.264 65.2377V41.5432C757.264 41.5432 757.261 41.46 757.264 41.3118V40.8968C757.264 40.8186 757.28 40.7442 757.309 40.6763C757.499 38.9672 758.458 35.2837 763.169 34.7647H757.837C754.456 34.7645 751.705 37.5155 751.705 40.8968V71.5108C751.705 72.6903 752.379 73.7097 753.464 74.1714C753.839 74.331 754.228 74.4091 754.612 74.4091C755.338 74.4091 756.045 74.1295 756.601 73.5942L763.218 67.2269C764.949 65.4343 768.38 62.4301 772.654 61.5084Z" fill="white"/>
<path d="M757.264 41.5432V41.3118C757.261 41.46 757.264 41.5432 757.264 41.5432Z" fill="white"/>
<path d="M782.522 61.3975C782.427 61.4669 782.311 61.5084 782.184 61.5084H782.118H781.967H772.654C768.38 62.4299 764.949 65.4343 763.218 67.2268L763.383 67.0681H782.184C785.566 67.0681 788.317 64.3171 788.317 60.9358V56.7943C787.113 58.9235 785.154 60.6183 782.522 61.3975Z" fill="white"/>
<path d="M782.524 40.4369C782.665 40.5413 782.757 40.7083 782.757 40.8966V60.936C782.757 61.1255 782.664 61.2933 782.522 61.3975C785.154 60.6183 787.113 58.9236 788.317 56.7945V45.8305C787.911 45.0809 787.416 44.3617 786.828 43.6885C784.953 41.5417 783.043 40.6514 782.524 40.4369Z" fill="white"/>
<path d="M777.286 54.2339C778.063 53.4715 777.939 52.2143 777.098 51.5146L776.38 50.9181C775.889 50.5094 775.156 50.5996 774.783 51.1147C772.687 53.8509 770.752 55.3713 767.974 54.8697C766.171 54.5442 764.717 53.6159 764.254 53.294C764.15 53.2218 764.036 53.1664 763.914 53.135C763.501 53.0289 763.07 53.2179 762.87 53.5928L762.618 54.0655C762.267 54.724 762.411 55.5466 763.032 55.9676C765.883 57.9022 771.532 59.8761 777.286 54.2339Z" fill="white"/>
<path d="M760.915 47.8243C760.604 48.3305 760.762 48.978 761.221 49.3542L761.276 49.3989C761.346 49.4561 761.424 49.5018 761.508 49.5345L761.539 49.5463C761.893 49.684 762.296 49.5578 762.508 49.2423C762.528 49.2036 762.879 48.5103 763.5 48.0458C764.336 47.4201 765.351 47.4728 766.519 48.2019C766.921 48.453 767.451 48.256 767.592 47.8034L767.779 47.2042C767.966 46.6019 767.657 45.9469 767.052 45.7712C763.579 44.7643 761.861 46.2806 760.915 47.8243Z" fill="white"/>
<circle cx="774.681" cy="46.4807" r="2.26705" transform="rotate(-8.70619 774.681 46.4807)" fill="white"/>
</g>
<path d="M808.353 57.7025C807.783 57.7025 807.348 57.545 807.048 57.23C806.748 56.915 806.598 56.4725 806.598 55.9025V43.2125C806.598 42.6425 806.748 42.2075 807.048 41.9075C807.348 41.5925 807.783 41.435 808.353 41.435C808.908 41.435 809.335 41.5925 809.635 41.9075C809.935 42.2075 810.085 42.6425 810.085 43.2125V48.545H810.13L816.115 42.29C816.37 42.02 816.633 41.8175 816.903 41.6825C817.188 41.5325 817.51 41.4575 817.87 41.4575C818.395 41.4575 818.77 41.5925 818.995 41.8625C819.235 42.1325 819.34 42.4475 819.31 42.8075C819.28 43.1675 819.115 43.505 818.815 43.82L812.808 49.9625L812.83 48.455L819.13 55.1825C819.475 55.5575 819.648 55.94 819.648 56.33C819.663 56.72 819.535 57.05 819.265 57.32C819.01 57.575 818.628 57.7025 818.118 57.7025C817.683 57.7025 817.33 57.6125 817.06 57.4325C816.805 57.2525 816.52 56.99 816.205 56.645L810.13 50.255H810.085V55.9025C810.085 56.4725 809.935 56.915 809.635 57.23C809.35 57.545 808.923 57.7025 808.353 57.7025ZM824.253 57.68C823.698 57.68 823.27 57.5225 822.97 57.2075C822.685 56.8775 822.543 56.42 822.543 55.835V48.14C822.543 47.54 822.685 47.0825 822.97 46.7675C823.27 46.4375 823.698 46.2725 824.253 46.2725C824.793 46.2725 825.205 46.4375 825.49 46.7675C825.79 47.0825 825.94 47.54 825.94 48.14V55.835C825.94 56.42 825.798 56.8775 825.513 57.2075C825.228 57.5225 824.808 57.68 824.253 57.68ZM824.253 44.4275C823.623 44.4275 823.135 44.285 822.79 44C822.46 43.7 822.295 43.28 822.295 42.74C822.295 42.185 822.46 41.765 822.79 41.48C823.135 41.18 823.623 41.03 824.253 41.03C824.883 41.03 825.363 41.18 825.693 41.48C826.023 41.765 826.188 42.185 826.188 42.74C826.188 43.28 826.023 43.7 825.693 44C825.363 44.285 824.883 44.4275 824.253 44.4275ZM832.861 57.7475C831.901 57.7475 831.053 57.515 830.318 57.05C829.598 56.585 829.036 55.9175 828.631 55.0475C828.226 54.1775 828.023 53.15 828.023 51.965C828.023 50.78 828.226 49.76 828.631 48.905C829.036 48.05 829.598 47.39 830.318 46.925C831.053 46.46 831.901 46.2275 832.861 46.2275C833.731 46.2275 834.496 46.4375 835.156 46.8575C835.831 47.2775 836.288 47.825 836.528 48.5H836.281V43.1675C836.281 42.5975 836.423 42.17 836.708 41.885C836.993 41.585 837.413 41.435 837.968 41.435C838.508 41.435 838.928 41.585 839.228 41.885C839.528 42.17 839.678 42.5975 839.678 43.1675V55.97C839.678 56.525 839.528 56.9525 839.228 57.2525C838.943 57.5525 838.531 57.7025 837.991 57.7025C837.451 57.7025 837.031 57.5525 836.731 57.2525C836.446 56.9525 836.303 56.525 836.303 55.97V54.44L836.551 55.3175C836.341 56.0525 835.891 56.645 835.201 57.095C834.526 57.53 833.746 57.7475 832.861 57.7475ZM833.873 55.205C834.368 55.205 834.796 55.085 835.156 54.845C835.516 54.605 835.801 54.2525 836.011 53.7875C836.221 53.3075 836.326 52.7 836.326 51.965C836.326 50.87 836.101 50.0675 835.651 49.5575C835.201 49.0325 834.608 48.77 833.873 48.77C833.393 48.77 832.966 48.8825 832.591 49.1075C832.231 49.3325 831.946 49.685 831.736 50.165C831.541 50.63 831.443 51.23 831.443 51.965C831.443 53.06 831.668 53.8775 832.118 54.4175C832.568 54.9425 833.153 55.205 833.873 55.205ZM848.124 57.7025C847.554 57.7025 847.119 57.545 846.819 57.23C846.519 56.915 846.369 56.4725 846.369 55.9025V44.5175H842.386C841.921 44.5175 841.561 44.39 841.306 44.135C841.051 43.88 840.924 43.5275 840.924 43.0775C840.924 42.6125 841.051 42.26 841.306 42.02C841.561 41.765 841.921 41.6375 842.386 41.6375H853.839C854.304 41.6375 854.664 41.765 854.919 42.02C855.174 42.26 855.301 42.6125 855.301 43.0775C855.301 43.5275 855.174 43.88 854.919 44.135C854.664 44.39 854.304 44.5175 853.839 44.5175H849.856V55.9025C849.856 56.4725 849.706 56.915 849.406 57.23C849.121 57.545 848.694 57.7025 848.124 57.7025ZM858.468 57.7475C857.658 57.7475 856.93 57.59 856.285 57.275C855.64 56.96 855.138 56.5325 854.778 55.9925C854.418 55.4525 854.238 54.845 854.238 54.17C854.238 53.36 854.448 52.7225 854.868 52.2575C855.288 51.7775 855.97 51.44 856.915 51.245C857.86 51.035 859.113 50.93 860.673 50.93H861.865V52.685H860.695C859.93 52.685 859.308 52.73 858.828 52.82C858.363 52.895 858.025 53.03 857.815 53.225C857.62 53.42 857.523 53.69 857.523 54.035C857.523 54.455 857.665 54.8 857.95 55.07C858.25 55.34 858.678 55.475 859.233 55.475C859.668 55.475 860.05 55.3775 860.38 55.1825C860.725 54.9725 860.995 54.695 861.19 54.35C861.385 53.99 861.483 53.585 861.483 53.135V50.5475C861.483 49.8875 861.333 49.4225 861.033 49.1525C860.733 48.8675 860.223 48.725 859.503 48.725C859.098 48.725 858.655 48.7775 858.175 48.8825C857.71 48.9725 857.193 49.13 856.623 49.355C856.293 49.505 856 49.5425 855.745 49.4675C855.49 49.3775 855.295 49.2275 855.16 49.0175C855.025 48.7925 854.958 48.5525 854.958 48.2975C854.958 48.0275 855.033 47.7725 855.183 47.5325C855.333 47.2775 855.58 47.09 855.925 46.97C856.63 46.685 857.29 46.49 857.905 46.385C858.535 46.28 859.113 46.2275 859.638 46.2275C860.793 46.2275 861.738 46.4 862.473 46.745C863.223 47.075 863.785 47.5925 864.16 48.2975C864.535 48.9875 864.723 49.88 864.723 50.975V55.97C864.723 56.525 864.588 56.9525 864.318 57.2525C864.048 57.5525 863.658 57.7025 863.148 57.7025C862.638 57.7025 862.24 57.5525 861.955 57.2525C861.685 56.9525 861.55 56.525 861.55 55.97V55.1375L861.708 55.2725C861.618 55.7825 861.423 56.225 861.123 56.6C860.838 56.96 860.47 57.245 860.02 57.455C859.57 57.65 859.053 57.7475 858.468 57.7475ZM871.24 57.7475C869.905 57.7475 868.907 57.38 868.247 56.645C867.587 55.895 867.257 54.785 867.257 53.315V43.1675C867.257 42.5975 867.4 42.17 867.685 41.885C867.985 41.585 868.412 41.435 868.967 41.435C869.507 41.435 869.92 41.585 870.205 41.885C870.505 42.17 870.655 42.5975 870.655 43.1675V53.18C870.655 53.795 870.782 54.2525 871.037 54.5525C871.307 54.8375 871.66 54.98 872.095 54.98C872.215 54.98 872.327 54.9725 872.432 54.9575C872.537 54.9425 872.65 54.935 872.77 54.935C873.01 54.905 873.175 54.98 873.265 55.16C873.37 55.325 873.422 55.6625 873.422 56.1725C873.422 56.6225 873.332 56.9675 873.152 57.2075C872.972 57.4325 872.695 57.5825 872.32 57.6575C872.17 57.6725 871.997 57.6875 871.802 57.7025C871.607 57.7325 871.42 57.7475 871.24 57.7475ZM876.46 57.7025C875.905 57.7025 875.477 57.5525 875.177 57.2525C874.892 56.9525 874.75 56.525 874.75 55.97V43.1675C874.75 42.5975 874.892 42.17 875.177 41.885C875.477 41.585 875.905 41.435 876.46 41.435C877 41.435 877.412 41.585 877.697 41.885C877.997 42.17 878.147 42.5975 878.147 43.1675V51.02H878.192L881.455 47.3975C881.785 47.0225 882.085 46.745 882.355 46.565C882.64 46.37 883.015 46.2725 883.48 46.2725C883.945 46.2725 884.297 46.3925 884.537 46.6325C884.792 46.8725 884.92 47.165 884.92 47.51C884.935 47.84 884.792 48.1775 884.492 48.5225L881.05 52.37V51.0875L884.875 55.4975C885.16 55.8425 885.28 56.1875 885.235 56.5325C885.205 56.8775 885.055 57.1625 884.785 57.3875C884.515 57.5975 884.17 57.7025 883.75 57.7025C883.24 57.7025 882.827 57.605 882.512 57.41C882.212 57.215 881.905 56.915 881.59 56.51L878.192 52.73H878.147V55.97C878.147 57.125 877.585 57.7025 876.46 57.7025ZM889.006 57.68C888.451 57.68 888.024 57.5225 887.724 57.2075C887.439 56.8775 887.296 56.42 887.296 55.835V48.14C887.296 47.54 887.439 47.0825 887.724 46.7675C888.024 46.4375 888.451 46.2725 889.006 46.2725C889.546 46.2725 889.959 46.4375 890.244 46.7675C890.544 47.0825 890.694 47.54 890.694 48.14V55.835C890.694 56.42 890.551 56.8775 890.266 57.2075C889.981 57.5225 889.561 57.68 889.006 57.68ZM889.006 44.4275C888.376 44.4275 887.889 44.285 887.544 44C887.214 43.7 887.049 43.28 887.049 42.74C887.049 42.185 887.214 41.765 887.544 41.48C887.889 41.18 888.376 41.03 889.006 41.03C889.636 41.03 890.116 41.18 890.446 41.48C890.776 41.765 890.941 42.185 890.941 42.74C890.941 43.28 890.776 43.7 890.446 44C890.116 44.285 889.636 44.4275 889.006 44.4275ZM899.054 57.7475C897.749 57.7475 896.624 57.515 895.679 57.05C894.749 56.57 894.029 55.9025 893.519 55.0475C893.024 54.1775 892.777 53.1575 892.777 51.9875C892.777 50.8475 893.017 49.85 893.497 48.995C893.977 48.125 894.644 47.45 895.499 46.97C896.369 46.475 897.352 46.2275 898.447 46.2275C899.242 46.2275 899.962 46.3625 900.607 46.6325C901.252 46.8875 901.807 47.2625 902.272 47.7575C902.737 48.2375 903.089 48.83 903.329 49.535C903.569 50.225 903.689 50.9975 903.689 51.8525C903.689 52.1375 903.599 52.355 903.419 52.505C903.239 52.64 902.977 52.7075 902.632 52.7075H895.567V50.9525H901.237L900.877 51.2675C900.877 50.6525 900.787 50.1425 900.607 49.7375C900.427 49.3175 900.164 49.0025 899.819 48.7925C899.489 48.5825 899.077 48.4775 898.582 48.4775C898.027 48.4775 897.554 48.605 897.164 48.86C896.774 49.115 896.474 49.4825 896.264 49.9625C896.054 50.4425 895.949 51.02 895.949 51.695V51.875C895.949 53.015 896.212 53.855 896.737 54.395C897.277 54.935 898.072 55.205 899.122 55.205C899.482 55.205 899.894 55.16 900.359 55.07C900.824 54.98 901.259 54.8375 901.664 54.6425C902.009 54.4775 902.317 54.425 902.587 54.485C902.857 54.53 903.067 54.65 903.217 54.845C903.367 55.04 903.449 55.265 903.464 55.52C903.494 55.775 903.442 56.03 903.307 56.285C903.172 56.525 902.947 56.7275 902.632 56.8925C902.122 57.1775 901.544 57.3875 900.899 57.5225C900.269 57.6725 899.654 57.7475 899.054 57.7475Z" fill="white"/>
<g clip-path="url(#clip5_3586_948)">
<path d="M967.264 40.8969V41.3118C967.268 41.1609 967.279 40.9425 967.309 40.6761C967.28 40.744 967.264 40.8186 967.264 40.8969Z" fill="white"/>
<path fill-rule="evenodd" clip-rule="evenodd" d="M967.837 40.3242C967.599 40.3242 967.395 40.4695 967.309 40.6761C967.499 38.9672 968.458 35.2835 973.169 34.7643H977.55L982.471 34.7645H992.184C995.565 34.7645 998.316 37.5155 998.316 40.8968V45.8305C997.911 45.0809 997.416 44.3617 996.828 43.6885C994.953 41.5415 993.042 40.6514 992.524 40.4369C992.429 40.3664 992.311 40.3242 992.184 40.3242H967.837Z" fill="white"/>
<path fill-rule="evenodd" clip-rule="evenodd" d="M967.953 38.2527L973.608 36.6315L971.646 31.6539C972.302 30.7123 972.504 29.5303 972.184 28.4126C971.601 26.3815 969.473 25.2037 967.439 25.7869C965.405 26.3702 964.224 28.4971 964.806 30.5279C965.127 31.6456 965.924 32.5408 966.98 32.9916L967.953 38.2527Z" fill="white"/>
<path fill-rule="evenodd" clip-rule="evenodd" d="M986.581 36.6312L992.236 38.2529L993.21 32.992C994.265 32.5411 995.063 31.6459 995.383 30.5282C995.966 28.4971 994.784 26.3702 992.75 25.7869C990.716 25.2036 988.588 26.3816 988.006 28.4124C987.685 29.5301 987.887 30.7121 988.543 31.6537L986.581 36.6312Z" fill="white"/>
<path d="M982.654 61.5084H971.142L967.264 65.2377V41.5432C967.264 41.5432 967.261 41.46 967.264 41.3118V40.8968C967.264 40.8186 967.28 40.7442 967.309 40.6763C967.499 38.9672 968.458 35.2837 973.169 34.7647H967.837C964.456 34.7645 961.705 37.5155 961.705 40.8968V71.5108C961.705 72.6903 962.379 73.7097 963.464 74.1714C963.839 74.331 964.228 74.4091 964.612 74.4091C965.338 74.4091 966.045 74.1295 966.601 73.5942L973.218 67.2269C974.949 65.4343 978.38 62.4301 982.654 61.5084Z" fill="white"/>
<path d="M967.264 41.5432V41.3118C967.261 41.46 967.264 41.5432 967.264 41.5432Z" fill="white"/>
<path d="M992.522 61.3975C992.427 61.4669 992.311 61.5084 992.184 61.5084H992.118H991.967H982.654C978.38 62.4299 974.949 65.4343 973.218 67.2268L973.383 67.0681H992.184C995.566 67.0681 998.317 64.3171 998.317 60.9358V56.7943C997.113 58.9235 995.154 60.6183 992.522 61.3975Z" fill="white"/>
<path d="M992.524 40.4369C992.665 40.5413 992.757 40.7083 992.757 40.8966V60.936C992.757 61.1255 992.664 61.2933 992.522 61.3975C995.154 60.6183 997.113 58.9236 998.317 56.7945V45.8305C997.911 45.0809 997.416 44.3617 996.828 43.6885C994.953 41.5417 993.043 40.6514 992.524 40.4369Z" fill="white"/>
<path d="M987.286 54.2339C988.063 53.4715 987.939 52.2143 987.098 51.5146L986.38 50.9181C985.889 50.5094 985.156 50.5996 984.783 51.1147C982.686 53.8509 980.752 55.3713 977.974 54.8697C976.171 54.5442 974.717 53.6159 974.254 53.294C974.15 53.2218 974.036 53.1664 973.914 53.135C973.501 53.0289 973.07 53.2179 972.87 53.5928L972.618 54.0655C972.267 54.724 972.411 55.5466 973.032 55.9676C975.883 57.9022 981.532 59.8761 987.286 54.2339Z" fill="white"/>
<path d="M970.915 47.8243C970.604 48.3305 970.762 48.978 971.221 49.3542L971.276 49.3989C971.346 49.4561 971.424 49.5018 971.508 49.5345L971.539 49.5463C971.893 49.684 972.296 49.5578 972.508 49.2423C972.528 49.2036 972.879 48.5103 973.5 48.0458C974.336 47.4201 975.351 47.4728 976.519 48.2019C976.921 48.453 977.451 48.256 977.592 47.8034L977.779 47.2042C977.966 46.6019 977.657 45.9469 977.052 45.7712C973.579 44.7643 971.861 46.2806 970.915 47.8243Z" fill="white"/>
<circle cx="984.681" cy="46.4807" r="2.26705" transform="rotate(-8.70619 984.681 46.4807)" fill="white"/>
</g>
<path d="M1018.35 57.7025C1017.78 57.7025 1017.35 57.545 1017.05 57.23C1016.75 56.915 1016.6 56.4725 1016.6 55.9025V43.2125C1016.6 42.6425 1016.75 42.2075 1017.05 41.9075C1017.35 41.5925 1017.78 41.435 1018.35 41.435C1018.91 41.435 1019.34 41.5925 1019.64 41.9075C1019.94 42.2075 1020.09 42.6425 1020.09 43.2125V48.545H1020.13L1026.12 42.29C1026.37 42.02 1026.63 41.8175 1026.9 41.6825C1027.19 41.5325 1027.51 41.4575 1027.87 41.4575C1028.4 41.4575 1028.77 41.5925 1029 41.8625C1029.24 42.1325 1029.34 42.4475 1029.31 42.8075C1029.28 43.1675 1029.12 43.505 1028.82 43.82L1022.81 49.9625L1022.83 48.455L1029.13 55.1825C1029.48 55.5575 1029.65 55.94 1029.65 56.33C1029.66 56.72 1029.54 57.05 1029.27 57.32C1029.01 57.575 1028.63 57.7025 1028.12 57.7025C1027.68 57.7025 1027.33 57.6125 1027.06 57.4325C1026.81 57.2525 1026.52 56.99 1026.21 56.645L1020.13 50.255H1020.09V55.9025C1020.09 56.4725 1019.94 56.915 1019.64 57.23C1019.35 57.545 1018.92 57.7025 1018.35 57.7025ZM1034.25 57.68C1033.7 57.68 1033.27 57.5225 1032.97 57.2075C1032.69 56.8775 1032.54 56.42 1032.54 55.835V48.14C1032.54 47.54 1032.69 47.0825 1032.97 46.7675C1033.27 46.4375 1033.7 46.2725 1034.25 46.2725C1034.79 46.2725 1035.21 46.4375 1035.49 46.7675C1035.79 47.0825 1035.94 47.54 1035.94 48.14V55.835C1035.94 56.42 1035.8 56.8775 1035.51 57.2075C1035.23 57.5225 1034.81 57.68 1034.25 57.68ZM1034.25 44.4275C1033.62 44.4275 1033.14 44.285 1032.79 44C1032.46 43.7 1032.3 43.28 1032.3 42.74C1032.3 42.185 1032.46 41.765 1032.79 41.48C1033.14 41.18 1033.62 41.03 1034.25 41.03C1034.88 41.03 1035.36 41.18 1035.69 41.48C1036.02 41.765 1036.19 42.185 1036.19 42.74C1036.19 43.28 1036.02 43.7 1035.69 44C1035.36 44.285 1034.88 44.4275 1034.25 44.4275ZM1042.86 57.7475C1041.9 57.7475 1041.05 57.515 1040.32 57.05C1039.6 56.585 1039.04 55.9175 1038.63 55.0475C1038.23 54.1775 1038.02 53.15 1038.02 51.965C1038.02 50.78 1038.23 49.76 1038.63 48.905C1039.04 48.05 1039.6 47.39 1040.32 46.925C1041.05 46.46 1041.9 46.2275 1042.86 46.2275C1043.73 46.2275 1044.5 46.4375 1045.16 46.8575C1045.83 47.2775 1046.29 47.825 1046.53 48.5H1046.28V43.1675C1046.28 42.5975 1046.42 42.17 1046.71 41.885C1046.99 41.585 1047.41 41.435 1047.97 41.435C1048.51 41.435 1048.93 41.585 1049.23 41.885C1049.53 42.17 1049.68 42.5975 1049.68 43.1675V55.97C1049.68 56.525 1049.53 56.9525 1049.23 57.2525C1048.94 57.5525 1048.53 57.7025 1047.99 57.7025C1047.45 57.7025 1047.03 57.5525 1046.73 57.2525C1046.45 56.9525 1046.3 56.525 1046.3 55.97V54.44L1046.55 55.3175C1046.34 56.0525 1045.89 56.645 1045.2 57.095C1044.53 57.53 1043.75 57.7475 1042.86 57.7475ZM1043.87 55.205C1044.37 55.205 1044.8 55.085 1045.16 54.845C1045.52 54.605 1045.8 54.2525 1046.01 53.7875C1046.22 53.3075 1046.33 52.7 1046.33 51.965C1046.33 50.87 1046.1 50.0675 1045.65 49.5575C1045.2 49.0325 1044.61 48.77 1043.87 48.77C1043.39 48.77 1042.97 48.8825 1042.59 49.1075C1042.23 49.3325 1041.95 49.685 1041.74 50.165C1041.54 50.63 1041.44 51.23 1041.44 51.965C1041.44 53.06 1041.67 53.8775 1042.12 54.4175C1042.57 54.9425 1043.15 55.205 1043.87 55.205ZM1058.12 57.7025C1057.55 57.7025 1057.12 57.545 1056.82 57.23C1056.52 56.915 1056.37 56.4725 1056.37 55.9025V44.5175H1052.39C1051.92 44.5175 1051.56 44.39 1051.31 44.135C1051.05 43.88 1050.92 43.5275 1050.92 43.0775C1050.92 42.6125 1051.05 42.26 1051.31 42.02C1051.56 41.765 1051.92 41.6375 1052.39 41.6375H1063.84C1064.3 41.6375 1064.66 41.765 1064.92 42.02C1065.17 42.26 1065.3 42.6125 1065.3 43.0775C1065.3 43.5275 1065.17 43.88 1064.92 44.135C1064.66 44.39 1064.3 44.5175 1063.84 44.5175H1059.86V55.9025C1059.86 56.4725 1059.71 56.915 1059.41 57.23C1059.12 57.545 1058.69 57.7025 1058.12 57.7025ZM1068.47 57.7475C1067.66 57.7475 1066.93 57.59 1066.29 57.275C1065.64 56.96 1065.14 56.5325 1064.78 55.9925C1064.42 55.4525 1064.24 54.845 1064.24 54.17C1064.24 53.36 1064.45 52.7225 1064.87 52.2575C1065.29 51.7775 1065.97 51.44 1066.92 51.245C1067.86 51.035 1069.11 50.93 1070.67 50.93H1071.87V52.685H1070.7C1069.93 52.685 1069.31 52.73 1068.83 52.82C1068.36 52.895 1068.03 53.03 1067.82 53.225C1067.62 53.42 1067.52 53.69 1067.52 54.035C1067.52 54.455 1067.67 54.8 1067.95 55.07C1068.25 55.34 1068.68 55.475 1069.23 55.475C1069.67 55.475 1070.05 55.3775 1070.38 55.1825C1070.73 54.9725 1071 54.695 1071.19 54.35C1071.39 53.99 1071.48 53.585 1071.48 53.135V50.5475C1071.48 49.8875 1071.33 49.4225 1071.03 49.1525C1070.73 48.8675 1070.22 48.725 1069.5 48.725C1069.1 48.725 1068.66 48.7775 1068.18 48.8825C1067.71 48.9725 1067.19 49.13 1066.62 49.355C1066.29 49.505 1066 49.5425 1065.75 49.4675C1065.49 49.3775 1065.3 49.2275 1065.16 49.0175C1065.03 48.7925 1064.96 48.5525 1064.96 48.2975C1064.96 48.0275 1065.03 47.7725 1065.18 47.5325C1065.33 47.2775 1065.58 47.09 1065.93 46.97C1066.63 46.685 1067.29 46.49 1067.91 46.385C1068.54 46.28 1069.11 46.2275 1069.64 46.2275C1070.79 46.2275 1071.74 46.4 1072.47 46.745C1073.22 47.075 1073.79 47.5925 1074.16 48.2975C1074.54 48.9875 1074.72 49.88 1074.72 50.975V55.97C1074.72 56.525 1074.59 56.9525 1074.32 57.2525C1074.05 57.5525 1073.66 57.7025 1073.15 57.7025C1072.64 57.7025 1072.24 57.5525 1071.96 57.2525C1071.69 56.9525 1071.55 56.525 1071.55 55.97V55.1375L1071.71 55.2725C1071.62 55.7825 1071.42 56.225 1071.12 56.6C1070.84 56.96 1070.47 57.245 1070.02 57.455C1069.57 57.65 1069.05 57.7475 1068.47 57.7475ZM1081.24 57.7475C1079.9 57.7475 1078.91 57.38 1078.25 56.645C1077.59 55.895 1077.26 54.785 1077.26 53.315V43.1675C1077.26 42.5975 1077.4 42.17 1077.68 41.885C1077.98 41.585 1078.41 41.435 1078.97 41.435C1079.51 41.435 1079.92 41.585 1080.2 41.885C1080.5 42.17 1080.65 42.5975 1080.65 43.1675V53.18C1080.65 53.795 1080.78 54.2525 1081.04 54.5525C1081.31 54.8375 1081.66 54.98 1082.09 54.98C1082.21 54.98 1082.33 54.9725 1082.43 54.9575C1082.54 54.9425 1082.65 54.935 1082.77 54.935C1083.01 54.905 1083.17 54.98 1083.26 55.16C1083.37 55.325 1083.42 55.6625 1083.42 56.1725C1083.42 56.6225 1083.33 56.9675 1083.15 57.2075C1082.97 57.4325 1082.69 57.5825 1082.32 57.6575C1082.17 57.6725 1082 57.6875 1081.8 57.7025C1081.61 57.7325 1081.42 57.7475 1081.24 57.7475ZM1086.46 57.7025C1085.9 57.7025 1085.48 57.5525 1085.18 57.2525C1084.89 56.9525 1084.75 56.525 1084.75 55.97V43.1675C1084.75 42.5975 1084.89 42.17 1085.18 41.885C1085.48 41.585 1085.9 41.435 1086.46 41.435C1087 41.435 1087.41 41.585 1087.7 41.885C1088 42.17 1088.15 42.5975 1088.15 43.1675V51.02H1088.19L1091.45 47.3975C1091.78 47.0225 1092.08 46.745 1092.35 46.565C1092.64 46.37 1093.01 46.2725 1093.48 46.2725C1093.94 46.2725 1094.3 46.3925 1094.54 46.6325C1094.79 46.8725 1094.92 47.165 1094.92 47.51C1094.93 47.84 1094.79 48.1775 1094.49 48.5225L1091.05 52.37V51.0875L1094.87 55.4975C1095.16 55.8425 1095.28 56.1875 1095.23 56.5325C1095.2 56.8775 1095.05 57.1625 1094.78 57.3875C1094.51 57.5975 1094.17 57.7025 1093.75 57.7025C1093.24 57.7025 1092.83 57.605 1092.51 57.41C1092.21 57.215 1091.9 56.915 1091.59 56.51L1088.19 52.73H1088.15V55.97C1088.15 57.125 1087.58 57.7025 1086.46 57.7025ZM1099.01 57.68C1098.45 57.68 1098.02 57.5225 1097.72 57.2075C1097.44 56.8775 1097.3 56.42 1097.3 55.835V48.14C1097.3 47.54 1097.44 47.0825 1097.72 46.7675C1098.02 46.4375 1098.45 46.2725 1099.01 46.2725C1099.55 46.2725 1099.96 46.4375 1100.24 46.7675C1100.54 47.0825 1100.69 47.54 1100.69 48.14V55.835C1100.69 56.42 1100.55 56.8775 1100.27 57.2075C1099.98 57.5225 1099.56 57.68 1099.01 57.68ZM1099.01 44.4275C1098.38 44.4275 1097.89 44.285 1097.54 44C1097.21 43.7 1097.05 43.28 1097.05 42.74C1097.05 42.185 1097.21 41.765 1097.54 41.48C1097.89 41.18 1098.38 41.03 1099.01 41.03C1099.64 41.03 1100.12 41.18 1100.45 41.48C1100.78 41.765 1100.94 42.185 1100.94 42.74C1100.94 43.28 1100.78 43.7 1100.45 44C1100.12 44.285 1099.64 44.4275 1099.01 44.4275ZM1109.05 57.7475C1107.75 57.7475 1106.62 57.515 1105.68 57.05C1104.75 56.57 1104.03 55.9025 1103.52 55.0475C1103.02 54.1775 1102.78 53.1575 1102.78 51.9875C1102.78 50.8475 1103.02 49.85 1103.5 48.995C1103.98 48.125 1104.64 47.45 1105.5 46.97C1106.37 46.475 1107.35 46.2275 1108.45 46.2275C1109.24 46.2275 1109.96 46.3625 1110.61 46.6325C1111.25 46.8875 1111.81 47.2625 1112.27 47.7575C1112.74 48.2375 1113.09 48.83 1113.33 49.535C1113.57 50.225 1113.69 50.9975 1113.69 51.8525C1113.69 52.1375 1113.6 52.355 1113.42 52.505C1113.24 52.64 1112.98 52.7075 1112.63 52.7075H1105.57V50.9525H1111.24L1110.88 51.2675C1110.88 50.6525 1110.79 50.1425 1110.61 49.7375C1110.43 49.3175 1110.16 49.0025 1109.82 48.7925C1109.49 48.5825 1109.08 48.4775 1108.58 48.4775C1108.03 48.4775 1107.55 48.605 1107.16 48.86C1106.77 49.115 1106.47 49.4825 1106.26 49.9625C1106.05 50.4425 1105.95 51.02 1105.95 51.695V51.875C1105.95 53.015 1106.21 53.855 1106.74 54.395C1107.28 54.935 1108.07 55.205 1109.12 55.205C1109.48 55.205 1109.89 55.16 1110.36 55.07C1110.82 54.98 1111.26 54.8375 1111.66 54.6425C1112.01 54.4775 1112.32 54.425 1112.59 54.485C1112.86 54.53 1113.07 54.65 1113.22 54.845C1113.37 55.04 1113.45 55.265 1113.46 55.52C1113.49 55.775 1113.44 56.03 1113.31 56.285C1113.17 56.525 1112.95 56.7275 1112.63 56.8925C1112.12 57.1775 1111.54 57.3875 1110.9 57.5225C1110.27 57.6725 1109.65 57.7475 1109.05 57.7475Z" fill="white"/>
<g clip-path="url(#clip6_3586_948)">
<path d="M1177.26 40.8969V41.3118C1177.27 41.1609 1177.28 40.9425 1177.31 40.6761C1177.28 40.744 1177.26 40.8186 1177.26 40.8969Z" fill="white"/>
<path fill-rule="evenodd" clip-rule="evenodd" d="M1177.84 40.3242C1177.6 40.3242 1177.4 40.4695 1177.31 40.6761C1177.5 38.9672 1178.46 35.2835 1183.17 34.7643H1187.55L1192.47 34.7645H1202.18C1205.57 34.7645 1208.32 37.5155 1208.32 40.8968V45.8305C1207.91 45.0809 1207.42 44.3617 1206.83 43.6885C1204.95 41.5415 1203.04 40.6514 1202.52 40.4369C1202.43 40.3664 1202.31 40.3242 1202.18 40.3242H1177.84Z" fill="white"/>
<path fill-rule="evenodd" clip-rule="evenodd" d="M1177.95 38.2527L1183.61 36.6315L1181.65 31.6539C1182.3 30.7123 1182.5 29.5303 1182.18 28.4126C1181.6 26.3815 1179.47 25.2037 1177.44 25.7869C1175.4 26.3702 1174.22 28.4971 1174.81 30.5279C1175.13 31.6456 1175.92 32.5408 1176.98 32.9916L1177.95 38.2527Z" fill="white"/>
<path fill-rule="evenodd" clip-rule="evenodd" d="M1196.58 36.6312L1202.24 38.2529L1203.21 32.992C1204.26 32.5411 1205.06 31.6459 1205.38 30.5282C1205.97 28.4971 1204.78 26.3702 1202.75 25.7869C1200.72 25.2036 1198.59 26.3816 1198.01 28.4124C1197.69 29.5301 1197.89 30.7121 1198.54 31.6537L1196.58 36.6312Z" fill="white"/>
<path d="M1192.65 61.5084H1181.14L1177.26 65.2377V41.5432C1177.26 41.5432 1177.26 41.46 1177.26 41.3118V40.8968C1177.26 40.8186 1177.28 40.7442 1177.31 40.6763C1177.5 38.9672 1178.46 35.2837 1183.17 34.7647H1177.84C1174.46 34.7645 1171.7 37.5155 1171.7 40.8968V71.5108C1171.7 72.6903 1172.38 73.7097 1173.46 74.1714C1173.84 74.331 1174.23 74.4091 1174.61 74.4091C1175.34 74.4091 1176.05 74.1295 1176.6 73.5942L1183.22 67.2269C1184.95 65.4343 1188.38 62.4301 1192.65 61.5084Z" fill="white"/>
<path d="M1177.26 41.5432V41.3118C1177.26 41.46 1177.26 41.5432 1177.26 41.5432Z" fill="white"/>
<path d="M1202.52 61.3975C1202.43 61.4669 1202.31 61.5084 1202.18 61.5084H1202.12H1201.97H1192.65C1188.38 62.4299 1184.95 65.4343 1183.22 67.2268L1183.38 67.0681H1202.18C1205.57 67.0681 1208.32 64.3171 1208.32 60.9358V56.7943C1207.11 58.9235 1205.15 60.6183 1202.52 61.3975Z" fill="white"/>
<path d="M1202.52 40.4369C1202.66 40.5413 1202.76 40.7083 1202.76 40.8966V60.936C1202.76 61.1255 1202.66 61.2933 1202.52 61.3975C1205.15 60.6183 1207.11 58.9236 1208.32 56.7945V45.8305C1207.91 45.0809 1207.42 44.3617 1206.83 43.6885C1204.95 41.5417 1203.04 40.6514 1202.52 40.4369Z" fill="white"/>
<path d="M1197.29 54.2339C1198.06 53.4715 1197.94 52.2143 1197.1 51.5146L1196.38 50.9181C1195.89 50.5094 1195.16 50.5996 1194.78 51.1147C1192.69 53.8509 1190.75 55.3713 1187.97 54.8697C1186.17 54.5442 1184.72 53.6159 1184.25 53.294C1184.15 53.2218 1184.04 53.1664 1183.91 53.135C1183.5 53.0289 1183.07 53.2179 1182.87 53.5928L1182.62 54.0655C1182.27 54.724 1182.41 55.5466 1183.03 55.9676C1185.88 57.9022 1191.53 59.8761 1197.29 54.2339Z" fill="white"/>
<path d="M1180.91 47.8243C1180.6 48.3305 1180.76 48.978 1181.22 49.3542L1181.28 49.3989C1181.35 49.4561 1181.42 49.5018 1181.51 49.5345L1181.54 49.5463C1181.89 49.684 1182.3 49.5578 1182.51 49.2423C1182.53 49.2036 1182.88 48.5103 1183.5 48.0458C1184.34 47.4201 1185.35 47.4728 1186.52 48.2019C1186.92 48.453 1187.45 48.256 1187.59 47.8034L1187.78 47.2042C1187.97 46.6019 1187.66 45.9469 1187.05 45.7712C1183.58 44.7643 1181.86 46.2806 1180.91 47.8243Z" fill="white"/>
<circle cx="1194.68" cy="46.4807" r="2.26705" transform="rotate(-8.70619 1194.68 46.4807)" fill="white"/>
</g>
<path d="M1228.35 57.7025C1227.78 57.7025 1227.35 57.545 1227.05 57.23C1226.75 56.915 1226.6 56.4725 1226.6 55.9025V43.2125C1226.6 42.6425 1226.75 42.2075 1227.05 41.9075C1227.35 41.5925 1227.78 41.435 1228.35 41.435C1228.91 41.435 1229.34 41.5925 1229.64 41.9075C1229.94 42.2075 1230.09 42.6425 1230.09 43.2125V48.545H1230.13L1236.12 42.29C1236.37 42.02 1236.63 41.8175 1236.9 41.6825C1237.19 41.5325 1237.51 41.4575 1237.87 41.4575C1238.4 41.4575 1238.77 41.5925 1239 41.8625C1239.24 42.1325 1239.34 42.4475 1239.31 42.8075C1239.28 43.1675 1239.12 43.505 1238.82 43.82L1232.81 49.9625L1232.83 48.455L1239.13 55.1825C1239.48 55.5575 1239.65 55.94 1239.65 56.33C1239.66 56.72 1239.54 57.05 1239.27 57.32C1239.01 57.575 1238.63 57.7025 1238.12 57.7025C1237.68 57.7025 1237.33 57.6125 1237.06 57.4325C1236.81 57.2525 1236.52 56.99 1236.21 56.645L1230.13 50.255H1230.09V55.9025C1230.09 56.4725 1229.94 56.915 1229.64 57.23C1229.35 57.545 1228.92 57.7025 1228.35 57.7025ZM1244.25 57.68C1243.7 57.68 1243.27 57.5225 1242.97 57.2075C1242.69 56.8775 1242.54 56.42 1242.54 55.835V48.14C1242.54 47.54 1242.69 47.0825 1242.97 46.7675C1243.27 46.4375 1243.7 46.2725 1244.25 46.2725C1244.79 46.2725 1245.21 46.4375 1245.49 46.7675C1245.79 47.0825 1245.94 47.54 1245.94 48.14V55.835C1245.94 56.42 1245.8 56.8775 1245.51 57.2075C1245.23 57.5225 1244.81 57.68 1244.25 57.68ZM1244.25 44.4275C1243.62 44.4275 1243.14 44.285 1242.79 44C1242.46 43.7 1242.3 43.28 1242.3 42.74C1242.3 42.185 1242.46 41.765 1242.79 41.48C1243.14 41.18 1243.62 41.03 1244.25 41.03C1244.88 41.03 1245.36 41.18 1245.69 41.48C1246.02 41.765 1246.19 42.185 1246.19 42.74C1246.19 43.28 1246.02 43.7 1245.69 44C1245.36 44.285 1244.88 44.4275 1244.25 44.4275ZM1252.86 57.7475C1251.9 57.7475 1251.05 57.515 1250.32 57.05C1249.6 56.585 1249.04 55.9175 1248.63 55.0475C1248.23 54.1775 1248.02 53.15 1248.02 51.965C1248.02 50.78 1248.23 49.76 1248.63 48.905C1249.04 48.05 1249.6 47.39 1250.32 46.925C1251.05 46.46 1251.9 46.2275 1252.86 46.2275C1253.73 46.2275 1254.5 46.4375 1255.16 46.8575C1255.83 47.2775 1256.29 47.825 1256.53 48.5H1256.28V43.1675C1256.28 42.5975 1256.42 42.17 1256.71 41.885C1256.99 41.585 1257.41 41.435 1257.97 41.435C1258.51 41.435 1258.93 41.585 1259.23 41.885C1259.53 42.17 1259.68 42.5975 1259.68 43.1675V55.97C1259.68 56.525 1259.53 56.9525 1259.23 57.2525C1258.94 57.5525 1258.53 57.7025 1257.99 57.7025C1257.45 57.7025 1257.03 57.5525 1256.73 57.2525C1256.45 56.9525 1256.3 56.525 1256.3 55.97V54.44L1256.55 55.3175C1256.34 56.0525 1255.89 56.645 1255.2 57.095C1254.53 57.53 1253.75 57.7475 1252.86 57.7475ZM1253.87 55.205C1254.37 55.205 1254.8 55.085 1255.16 54.845C1255.52 54.605 1255.8 54.2525 1256.01 53.7875C1256.22 53.3075 1256.33 52.7 1256.33 51.965C1256.33 50.87 1256.1 50.0675 1255.65 49.5575C1255.2 49.0325 1254.61 48.77 1253.87 48.77C1253.39 48.77 1252.97 48.8825 1252.59 49.1075C1252.23 49.3325 1251.95 49.685 1251.74 50.165C1251.54 50.63 1251.44 51.23 1251.44 51.965C1251.44 53.06 1251.67 53.8775 1252.12 54.4175C1252.57 54.9425 1253.15 55.205 1253.87 55.205ZM1268.12 57.7025C1267.55 57.7025 1267.12 57.545 1266.82 57.23C1266.52 56.915 1266.37 56.4725 1266.37 55.9025V44.5175H1262.39C1261.92 44.5175 1261.56 44.39 1261.31 44.135C1261.05 43.88 1260.92 43.5275 1260.92 43.0775C1260.92 42.6125 1261.05 42.26 1261.31 42.02C1261.56 41.765 1261.92 41.6375 1262.39 41.6375H1273.84C1274.3 41.6375 1274.66 41.765 1274.92 42.02C1275.17 42.26 1275.3 42.6125 1275.3 43.0775C1275.3 43.5275 1275.17 43.88 1274.92 44.135C1274.66 44.39 1274.3 44.5175 1273.84 44.5175H1269.86V55.9025C1269.86 56.4725 1269.71 56.915 1269.41 57.23C1269.12 57.545 1268.69 57.7025 1268.12 57.7025ZM1278.47 57.7475C1277.66 57.7475 1276.93 57.59 1276.29 57.275C1275.64 56.96 1275.14 56.5325 1274.78 55.9925C1274.42 55.4525 1274.24 54.845 1274.24 54.17C1274.24 53.36 1274.45 52.7225 1274.87 52.2575C1275.29 51.7775 1275.97 51.44 1276.92 51.245C1277.86 51.035 1279.11 50.93 1280.67 50.93H1281.87V52.685H1280.7C1279.93 52.685 1279.31 52.73 1278.83 52.82C1278.36 52.895 1278.03 53.03 1277.82 53.225C1277.62 53.42 1277.52 53.69 1277.52 54.035C1277.52 54.455 1277.67 54.8 1277.95 55.07C1278.25 55.34 1278.68 55.475 1279.23 55.475C1279.67 55.475 1280.05 55.3775 1280.38 55.1825C1280.73 54.9725 1281 54.695 1281.19 54.35C1281.39 53.99 1281.48 53.585 1281.48 53.135V50.5475C1281.48 49.8875 1281.33 49.4225 1281.03 49.1525C1280.73 48.8675 1280.22 48.725 1279.5 48.725C1279.1 48.725 1278.66 48.7775 1278.18 48.8825C1277.71 48.9725 1277.19 49.13 1276.62 49.355C1276.29 49.505 1276 49.5425 1275.75 49.4675C1275.49 49.3775 1275.3 49.2275 1275.16 49.0175C1275.03 48.7925 1274.96 48.5525 1274.96 48.2975C1274.96 48.0275 1275.03 47.7725 1275.18 47.5325C1275.33 47.2775 1275.58 47.09 1275.93 46.97C1276.63 46.685 1277.29 46.49 1277.91 46.385C1278.54 46.28 1279.11 46.2275 1279.64 46.2275C1280.79 46.2275 1281.74 46.4 1282.47 46.745C1283.22 47.075 1283.79 47.5925 1284.16 48.2975C1284.54 48.9875 1284.72 49.88 1284.72 50.975V55.97C1284.72 56.525 1284.59 56.9525 1284.32 57.2525C1284.05 57.5525 1283.66 57.7025 1283.15 57.7025C1282.64 57.7025 1282.24 57.5525 1281.96 57.2525C1281.69 56.9525 1281.55 56.525 1281.55 55.97V55.1375L1281.71 55.2725C1281.62 55.7825 1281.42 56.225 1281.12 56.6C1280.84 56.96 1280.47 57.245 1280.02 57.455C1279.57 57.65 1279.05 57.7475 1278.47 57.7475ZM1291.24 57.7475C1289.9 57.7475 1288.91 57.38 1288.25 56.645C1287.59 55.895 1287.26 54.785 1287.26 53.315V43.1675C1287.26 42.5975 1287.4 42.17 1287.68 41.885C1287.98 41.585 1288.41 41.435 1288.97 41.435C1289.51 41.435 1289.92 41.585 1290.2 41.885C1290.5 42.17 1290.65 42.5975 1290.65 43.1675V53.18C1290.65 53.795 1290.78 54.2525 1291.04 54.5525C1291.31 54.8375 1291.66 54.98 1292.09 54.98C1292.21 54.98 1292.33 54.9725 1292.43 54.9575C1292.54 54.9425 1292.65 54.935 1292.77 54.935C1293.01 54.905 1293.17 54.98 1293.26 55.16C1293.37 55.325 1293.42 55.6625 1293.42 56.1725C1293.42 56.6225 1293.33 56.9675 1293.15 57.2075C1292.97 57.4325 1292.69 57.5825 1292.32 57.6575C1292.17 57.6725 1292 57.6875 1291.8 57.7025C1291.61 57.7325 1291.42 57.7475 1291.24 57.7475ZM1296.46 57.7025C1295.9 57.7025 1295.48 57.5525 1295.18 57.2525C1294.89 56.9525 1294.75 56.525 1294.75 55.97V43.1675C1294.75 42.5975 1294.89 42.17 1295.18 41.885C1295.48 41.585 1295.9 41.435 1296.46 41.435C1297 41.435 1297.41 41.585 1297.7 41.885C1298 42.17 1298.15 42.5975 1298.15 43.1675V51.02H1298.19L1301.45 47.3975C1301.78 47.0225 1302.08 46.745 1302.35 46.565C1302.64 46.37 1303.01 46.2725 1303.48 46.2725C1303.94 46.2725 1304.3 46.3925 1304.54 46.6325C1304.79 46.8725 1304.92 47.165 1304.92 47.51C1304.93 47.84 1304.79 48.1775 1304.49 48.5225L1301.05 52.37V51.0875L1304.87 55.4975C1305.16 55.8425 1305.28 56.1875 1305.23 56.5325C1305.2 56.8775 1305.05 57.1625 1304.78 57.3875C1304.51 57.5975 1304.17 57.7025 1303.75 57.7025C1303.24 57.7025 1302.83 57.605 1302.51 57.41C1302.21 57.215 1301.9 56.915 1301.59 56.51L1298.19 52.73H1298.15V55.97C1298.15 57.125 1297.58 57.7025 1296.46 57.7025ZM1309.01 57.68C1308.45 57.68 1308.02 57.5225 1307.72 57.2075C1307.44 56.8775 1307.3 56.42 1307.3 55.835V48.14C1307.3 47.54 1307.44 47.0825 1307.72 46.7675C1308.02 46.4375 1308.45 46.2725 1309.01 46.2725C1309.55 46.2725 1309.96 46.4375 1310.24 46.7675C1310.54 47.0825 1310.69 47.54 1310.69 48.14V55.835C1310.69 56.42 1310.55 56.8775 1310.27 57.2075C1309.98 57.5225 1309.56 57.68 1309.01 57.68ZM1309.01 44.4275C1308.38 44.4275 1307.89 44.285 1307.54 44C1307.21 43.7 1307.05 43.28 1307.05 42.74C1307.05 42.185 1307.21 41.765 1307.54 41.48C1307.89 41.18 1308.38 41.03 1309.01 41.03C1309.64 41.03 1310.12 41.18 1310.45 41.48C1310.78 41.765 1310.94 42.185 1310.94 42.74C1310.94 43.28 1310.78 43.7 1310.45 44C1310.12 44.285 1309.64 44.4275 1309.01 44.4275ZM1319.05 57.7475C1317.75 57.7475 1316.62 57.515 1315.68 57.05C1314.75 56.57 1314.03 55.9025 1313.52 55.0475C1313.02 54.1775 1312.78 53.1575 1312.78 51.9875C1312.78 50.8475 1313.02 49.85 1313.5 48.995C1313.98 48.125 1314.64 47.45 1315.5 46.97C1316.37 46.475 1317.35 46.2275 1318.45 46.2275C1319.24 46.2275 1319.96 46.3625 1320.61 46.6325C1321.25 46.8875 1321.81 47.2625 1322.27 47.7575C1322.74 48.2375 1323.09 48.83 1323.33 49.535C1323.57 50.225 1323.69 50.9975 1323.69 51.8525C1323.69 52.1375 1323.6 52.355 1323.42 52.505C1323.24 52.64 1322.98 52.7075 1322.63 52.7075H1315.57V50.9525H1321.24L1320.88 51.2675C1320.88 50.6525 1320.79 50.1425 1320.61 49.7375C1320.43 49.3175 1320.16 49.0025 1319.82 48.7925C1319.49 48.5825 1319.08 48.4775 1318.58 48.4775C1318.03 48.4775 1317.55 48.605 1317.16 48.86C1316.77 49.115 1316.47 49.4825 1316.26 49.9625C1316.05 50.4425 1315.95 51.02 1315.95 51.695V51.875C1315.95 53.015 1316.21 53.855 1316.74 54.395C1317.28 54.935 1318.07 55.205 1319.12 55.205C1319.48 55.205 1319.89 55.16 1320.36 55.07C1320.82 54.98 1321.26 54.8375 1321.66 54.6425C1322.01 54.4775 1322.32 54.425 1322.59 54.485C1322.86 54.53 1323.07 54.65 1323.22 54.845C1323.37 55.04 1323.45 55.265 1323.46 55.52C1323.49 55.775 1323.44 56.03 1323.31 56.285C1323.17 56.525 1322.95 56.7275 1322.63 56.8925C1322.12 57.1775 1321.54 57.3875 1320.9 57.5225C1320.27 57.6725 1319.65 57.7475 1319.05 57.7475Z" fill="white"/>
<g clip-path="url(#clip7_3586_948)">
<path d="M1387.26 40.8969V41.3118C1387.27 41.1609 1387.28 40.9425 1387.31 40.6761C1387.28 40.744 1387.26 40.8186 1387.26 40.8969Z" fill="white"/>
<path fill-rule="evenodd" clip-rule="evenodd" d="M1387.84 40.3242C1387.6 40.3242 1387.4 40.4695 1387.31 40.6761C1387.5 38.9672 1388.46 35.2835 1393.17 34.7643H1397.55L1402.47 34.7645H1412.18C1415.57 34.7645 1418.32 37.5155 1418.32 40.8968V45.8305C1417.91 45.0809 1417.42 44.3617 1416.83 43.6885C1414.95 41.5415 1413.04 40.6514 1412.52 40.4369C1412.43 40.3664 1412.31 40.3242 1412.18 40.3242H1387.84Z" fill="white"/>
<path fill-rule="evenodd" clip-rule="evenodd" d="M1387.95 38.2527L1393.61 36.6315L1391.65 31.6539C1392.3 30.7123 1392.5 29.5303 1392.18 28.4126C1391.6 26.3815 1389.47 25.2037 1387.44 25.7869C1385.4 26.3702 1384.22 28.4971 1384.81 30.5279C1385.13 31.6456 1385.92 32.5408 1386.98 32.9916L1387.95 38.2527Z" fill="white"/>
<path fill-rule="evenodd" clip-rule="evenodd" d="M1406.58 36.6312L1412.24 38.2529L1413.21 32.992C1414.26 32.5411 1415.06 31.6459 1415.38 30.5282C1415.97 28.4971 1414.78 26.3702 1412.75 25.7869C1410.72 25.2036 1408.59 26.3816 1408.01 28.4124C1407.69 29.5301 1407.89 30.7121 1408.54 31.6537L1406.58 36.6312Z" fill="white"/>
<path d="M1402.65 61.5084H1391.14L1387.26 65.2377V41.5432C1387.26 41.5432 1387.26 41.46 1387.26 41.3118V40.8968C1387.26 40.8186 1387.28 40.7442 1387.31 40.6763C1387.5 38.9672 1388.46 35.2837 1393.17 34.7647H1387.84C1384.46 34.7645 1381.7 37.5155 1381.7 40.8968V71.5108C1381.7 72.6903 1382.38 73.7097 1383.46 74.1714C1383.84 74.331 1384.23 74.4091 1384.61 74.4091C1385.34 74.4091 1386.05 74.1295 1386.6 73.5942L1393.22 67.2269C1394.95 65.4343 1398.38 62.4301 1402.65 61.5084Z" fill="white"/>
<path d="M1387.26 41.5432V41.3118C1387.26 41.46 1387.26 41.5432 1387.26 41.5432Z" fill="white"/>
<path d="M1412.52 61.3975C1412.43 61.4669 1412.31 61.5084 1412.18 61.5084H1412.12H1411.97H1402.65C1398.38 62.4299 1394.95 65.4343 1393.22 67.2268L1393.38 67.0681H1412.18C1415.57 67.0681 1418.32 64.3171 1418.32 60.9358V56.7943C1417.11 58.9235 1415.15 60.6183 1412.52 61.3975Z" fill="white"/>
<path d="M1412.52 40.4369C1412.66 40.5413 1412.76 40.7083 1412.76 40.8966V60.936C1412.76 61.1255 1412.66 61.2933 1412.52 61.3975C1415.15 60.6183 1417.11 58.9236 1418.32 56.7945V45.8305C1417.91 45.0809 1417.42 44.3617 1416.83 43.6885C1414.95 41.5417 1413.04 40.6514 1412.52 40.4369Z" fill="white"/>
<path d="M1407.29 54.2339C1408.06 53.4715 1407.94 52.2143 1407.1 51.5146L1406.38 50.9181C1405.89 50.5094 1405.16 50.5996 1404.78 51.1147C1402.69 53.8509 1400.75 55.3713 1397.97 54.8697C1396.17 54.5442 1394.72 53.6159 1394.25 53.294C1394.15 53.2218 1394.04 53.1664 1393.91 53.135C1393.5 53.0289 1393.07 53.2179 1392.87 53.5928L1392.62 54.0655C1392.27 54.724 1392.41 55.5466 1393.03 55.9676C1395.88 57.9022 1401.53 59.8761 1407.29 54.2339Z" fill="white"/>
<path d="M1390.91 47.8243C1390.6 48.3305 1390.76 48.978 1391.22 49.3542L1391.28 49.3989C1391.35 49.4561 1391.42 49.5018 1391.51 49.5345L1391.54 49.5463C1391.89 49.684 1392.3 49.5578 1392.51 49.2423C1392.53 49.2036 1392.88 48.5103 1393.5 48.0458C1394.34 47.4201 1395.35 47.4728 1396.52 48.2019C1396.92 48.453 1397.45 48.256 1397.59 47.8034L1397.78 47.2042C1397.97 46.6019 1397.66 45.9469 1397.05 45.7712C1393.58 44.7643 1391.86 46.2806 1390.91 47.8243Z" fill="white"/>
<circle cx="1404.68" cy="46.4807" r="2.26705" transform="rotate(-8.70619 1404.68 46.4807)" fill="white"/>
</g>
<path d="M1438.35 57.7025C1437.78 57.7025 1437.35 57.545 1437.05 57.23C1436.75 56.915 1436.6 56.4725 1436.6 55.9025V43.2125C1436.6 42.6425 1436.75 42.2075 1437.05 41.9075C1437.35 41.5925 1437.78 41.435 1438.35 41.435C1438.91 41.435 1439.34 41.5925 1439.64 41.9075C1439.94 42.2075 1440.09 42.6425 1440.09 43.2125V48.545H1440.13L1446.12 42.29C1446.37 42.02 1446.63 41.8175 1446.9 41.6825C1447.19 41.5325 1447.51 41.4575 1447.87 41.4575C1448.4 41.4575 1448.77 41.5925 1449 41.8625C1449.24 42.1325 1449.34 42.4475 1449.31 42.8075C1449.28 43.1675 1449.12 43.505 1448.82 43.82L1442.81 49.9625L1442.83 48.455L1449.13 55.1825C1449.48 55.5575 1449.65 55.94 1449.65 56.33C1449.66 56.72 1449.54 57.05 1449.27 57.32C1449.01 57.575 1448.63 57.7025 1448.12 57.7025C1447.68 57.7025 1447.33 57.6125 1447.06 57.4325C1446.81 57.2525 1446.52 56.99 1446.21 56.645L1440.13 50.255H1440.09V55.9025C1440.09 56.4725 1439.94 56.915 1439.64 57.23C1439.35 57.545 1438.92 57.7025 1438.35 57.7025ZM1454.25 57.68C1453.7 57.68 1453.27 57.5225 1452.97 57.2075C1452.69 56.8775 1452.54 56.42 1452.54 55.835V48.14C1452.54 47.54 1452.69 47.0825 1452.97 46.7675C1453.27 46.4375 1453.7 46.2725 1454.25 46.2725C1454.79 46.2725 1455.21 46.4375 1455.49 46.7675C1455.79 47.0825 1455.94 47.54 1455.94 48.14V55.835C1455.94 56.42 1455.8 56.8775 1455.51 57.2075C1455.23 57.5225 1454.81 57.68 1454.25 57.68ZM1454.25 44.4275C1453.62 44.4275 1453.14 44.285 1452.79 44C1452.46 43.7 1452.3 43.28 1452.3 42.74C1452.3 42.185 1452.46 41.765 1452.79 41.48C1453.14 41.18 1453.62 41.03 1454.25 41.03C1454.88 41.03 1455.36 41.18 1455.69 41.48C1456.02 41.765 1456.19 42.185 1456.19 42.74C1456.19 43.28 1456.02 43.7 1455.69 44C1455.36 44.285 1454.88 44.4275 1454.25 44.4275ZM1462.86 57.7475C1461.9 57.7475 1461.05 57.515 1460.32 57.05C1459.6 56.585 1459.04 55.9175 1458.63 55.0475C1458.23 54.1775 1458.02 53.15 1458.02 51.965C1458.02 50.78 1458.23 49.76 1458.63 48.905C1459.04 48.05 1459.6 47.39 1460.32 46.925C1461.05 46.46 1461.9 46.2275 1462.86 46.2275C1463.73 46.2275 1464.5 46.4375 1465.16 46.8575C1465.83 47.2775 1466.29 47.825 1466.53 48.5H1466.28V43.1675C1466.28 42.5975 1466.42 42.17 1466.71 41.885C1466.99 41.585 1467.41 41.435 1467.97 41.435C1468.51 41.435 1468.93 41.585 1469.23 41.885C1469.53 42.17 1469.68 42.5975 1469.68 43.1675V55.97C1469.68 56.525 1469.53 56.9525 1469.23 57.2525C1468.94 57.5525 1468.53 57.7025 1467.99 57.7025C1467.45 57.7025 1467.03 57.5525 1466.73 57.2525C1466.45 56.9525 1466.3 56.525 1466.3 55.97V54.44L1466.55 55.3175C1466.34 56.0525 1465.89 56.645 1465.2 57.095C1464.53 57.53 1463.75 57.7475 1462.86 57.7475ZM1463.87 55.205C1464.37 55.205 1464.8 55.085 1465.16 54.845C1465.52 54.605 1465.8 54.2525 1466.01 53.7875C1466.22 53.3075 1466.33 52.7 1466.33 51.965C1466.33 50.87 1466.1 50.0675 1465.65 49.5575C1465.2 49.0325 1464.61 48.77 1463.87 48.77C1463.39 48.77 1462.97 48.8825 1462.59 49.1075C1462.23 49.3325 1461.95 49.685 1461.74 50.165C1461.54 50.63 1461.44 51.23 1461.44 51.965C1461.44 53.06 1461.67 53.8775 1462.12 54.4175C1462.57 54.9425 1463.15 55.205 1463.87 55.205ZM1478.12 57.7025C1477.55 57.7025 1477.12 57.545 1476.82 57.23C1476.52 56.915 1476.37 56.4725 1476.37 55.9025V44.5175H1472.39C1471.92 44.5175 1471.56 44.39 1471.31 44.135C1471.05 43.88 1470.92 43.5275 1470.92 43.0775C1470.92 42.6125 1471.05 42.26 1471.31 42.02C1471.56 41.765 1471.92 41.6375 1472.39 41.6375H1483.84C1484.3 41.6375 1484.66 41.765 1484.92 42.02C1485.17 42.26 1485.3 42.6125 1485.3 43.0775C1485.3 43.5275 1485.17 43.88 1484.92 44.135C1484.66 44.39 1484.3 44.5175 1483.84 44.5175H1479.86V55.9025C1479.86 56.4725 1479.71 56.915 1479.41 57.23C1479.12 57.545 1478.69 57.7025 1478.12 57.7025ZM1488.47 57.7475C1487.66 57.7475 1486.93 57.59 1486.29 57.275C1485.64 56.96 1485.14 56.5325 1484.78 55.9925C1484.42 55.4525 1484.24 54.845 1484.24 54.17C1484.24 53.36 1484.45 52.7225 1484.87 52.2575C1485.29 51.7775 1485.97 51.44 1486.92 51.245C1487.86 51.035 1489.11 50.93 1490.67 50.93H1491.87V52.685H1490.7C1489.93 52.685 1489.31 52.73 1488.83 52.82C1488.36 52.895 1488.03 53.03 1487.82 53.225C1487.62 53.42 1487.52 53.69 1487.52 54.035C1487.52 54.455 1487.67 54.8 1487.95 55.07C1488.25 55.34 1488.68 55.475 1489.23 55.475C1489.67 55.475 1490.05 55.3775 1490.38 55.1825C1490.73 54.9725 1491 54.695 1491.19 54.35C1491.39 53.99 1491.48 53.585 1491.48 53.135V50.5475C1491.48 49.8875 1491.33 49.4225 1491.03 49.1525C1490.73 48.8675 1490.22 48.725 1489.5 48.725C1489.1 48.725 1488.66 48.7775 1488.18 48.8825C1487.71 48.9725 1487.19 49.13 1486.62 49.355C1486.29 49.505 1486 49.5425 1485.75 49.4675C1485.49 49.3775 1485.3 49.2275 1485.16 49.0175C1485.03 48.7925 1484.96 48.5525 1484.96 48.2975C1484.96 48.0275 1485.03 47.7725 1485.18 47.5325C1485.33 47.2775 1485.58 47.09 1485.93 46.97C1486.63 46.685 1487.29 46.49 1487.91 46.385C1488.54 46.28 1489.11 46.2275 1489.64 46.2275C1490.79 46.2275 1491.74 46.4 1492.47 46.745C1493.22 47.075 1493.79 47.5925 1494.16 48.2975C1494.54 48.9875 1494.72 49.88 1494.72 50.975V55.97C1494.72 56.525 1494.59 56.9525 1494.32 57.2525C1494.05 57.5525 1493.66 57.7025 1493.15 57.7025C1492.64 57.7025 1492.24 57.5525 1491.96 57.2525C1491.69 56.9525 1491.55 56.525 1491.55 55.97V55.1375L1491.71 55.2725C1491.62 55.7825 1491.42 56.225 1491.12 56.6C1490.84 56.96 1490.47 57.245 1490.02 57.455C1489.57 57.65 1489.05 57.7475 1488.47 57.7475ZM1501.24 57.7475C1499.9 57.7475 1498.91 57.38 1498.25 56.645C1497.59 55.895 1497.26 54.785 1497.26 53.315V43.1675C1497.26 42.5975 1497.4 42.17 1497.68 41.885C1497.98 41.585 1498.41 41.435 1498.97 41.435C1499.51 41.435 1499.92 41.585 1500.2 41.885C1500.5 42.17 1500.65 42.5975 1500.65 43.1675V53.18C1500.65 53.795 1500.78 54.2525 1501.04 54.5525C1501.31 54.8375 1501.66 54.98 1502.09 54.98C1502.21 54.98 1502.33 54.9725 1502.43 54.9575C1502.54 54.9425 1502.65 54.935 1502.77 54.935C1503.01 54.905 1503.17 54.98 1503.26 55.16C1503.37 55.325 1503.42 55.6625 1503.42 56.1725C1503.42 56.6225 1503.33 56.9675 1503.15 57.2075C1502.97 57.4325 1502.69 57.5825 1502.32 57.6575C1502.17 57.6725 1502 57.6875 1501.8 57.7025C1501.61 57.7325 1501.42 57.7475 1501.24 57.7475ZM1506.46 57.7025C1505.9 57.7025 1505.48 57.5525 1505.18 57.2525C1504.89 56.9525 1504.75 56.525 1504.75 55.97V43.1675C1504.75 42.5975 1504.89 42.17 1505.18 41.885C1505.48 41.585 1505.9 41.435 1506.46 41.435C1507 41.435 1507.41 41.585 1507.7 41.885C1508 42.17 1508.15 42.5975 1508.15 43.1675V51.02H1508.19L1511.45 47.3975C1511.78 47.0225 1512.08 46.745 1512.35 46.565C1512.64 46.37 1513.01 46.2725 1513.48 46.2725C1513.94 46.2725 1514.3 46.3925 1514.54 46.6325C1514.79 46.8725 1514.92 47.165 1514.92 47.51C1514.93 47.84 1514.79 48.1775 1514.49 48.5225L1511.05 52.37V51.0875L1514.87 55.4975C1515.16 55.8425 1515.28 56.1875 1515.23 56.5325C1515.2 56.8775 1515.05 57.1625 1514.78 57.3875C1514.51 57.5975 1514.17 57.7025 1513.75 57.7025C1513.24 57.7025 1512.83 57.605 1512.51 57.41C1512.21 57.215 1511.9 56.915 1511.59 56.51L1508.19 52.73H1508.15V55.97C1508.15 57.125 1507.58 57.7025 1506.46 57.7025ZM1519.01 57.68C1518.45 57.68 1518.02 57.5225 1517.72 57.2075C1517.44 56.8775 1517.3 56.42 1517.3 55.835V48.14C1517.3 47.54 1517.44 47.0825 1517.72 46.7675C1518.02 46.4375 1518.45 46.2725 1519.01 46.2725C1519.55 46.2725 1519.96 46.4375 1520.24 46.7675C1520.54 47.0825 1520.69 47.54 1520.69 48.14V55.835C1520.69 56.42 1520.55 56.8775 1520.27 57.2075C1519.98 57.5225 1519.56 57.68 1519.01 57.68ZM1519.01 44.4275C1518.38 44.4275 1517.89 44.285 1517.54 44C1517.21 43.7 1517.05 43.28 1517.05 42.74C1517.05 42.185 1517.21 41.765 1517.54 41.48C1517.89 41.18 1518.38 41.03 1519.01 41.03C1519.64 41.03 1520.12 41.18 1520.45 41.48C1520.78 41.765 1520.94 42.185 1520.94 42.74C1520.94 43.28 1520.78 43.7 1520.45 44C1520.12 44.285 1519.64 44.4275 1519.01 44.4275ZM1529.05 57.7475C1527.75 57.7475 1526.62 57.515 1525.68 57.05C1524.75 56.57 1524.03 55.9025 1523.52 55.0475C1523.02 54.1775 1522.78 53.1575 1522.78 51.9875C1522.78 50.8475 1523.02 49.85 1523.5 48.995C1523.98 48.125 1524.64 47.45 1525.5 46.97C1526.37 46.475 1527.35 46.2275 1528.45 46.2275C1529.24 46.2275 1529.96 46.3625 1530.61 46.6325C1531.25 46.8875 1531.81 47.2625 1532.27 47.7575C1532.74 48.2375 1533.09 48.83 1533.33 49.535C1533.57 50.225 1533.69 50.9975 1533.69 51.8525C1533.69 52.1375 1533.6 52.355 1533.42 52.505C1533.24 52.64 1532.98 52.7075 1532.63 52.7075H1525.57V50.9525H1531.24L1530.88 51.2675C1530.88 50.6525 1530.79 50.1425 1530.61 49.7375C1530.43 49.3175 1530.16 49.0025 1529.82 48.7925C1529.49 48.5825 1529.08 48.4775 1528.58 48.4775C1528.03 48.4775 1527.55 48.605 1527.16 48.86C1526.77 49.115 1526.47 49.4825 1526.26 49.9625C1526.05 50.4425 1525.95 51.02 1525.95 51.695V51.875C1525.95 53.015 1526.21 53.855 1526.74 54.395C1527.28 54.935 1528.07 55.205 1529.12 55.205C1529.48 55.205 1529.89 55.16 1530.36 55.07C1530.82 54.98 1531.26 54.8375 1531.66 54.6425C1532.01 54.4775 1532.32 54.425 1532.59 54.485C1532.86 54.53 1533.07 54.65 1533.22 54.845C1533.37 55.04 1533.45 55.265 1533.46 55.52C1533.49 55.775 1533.44 56.03 1533.31 56.285C1533.17 56.525 1532.95 56.7275 1532.63 56.8925C1532.12 57.1775 1531.54 57.3875 1530.9 57.5225C1530.27 57.6725 1529.65 57.7475 1529.05 57.7475Z" fill="white"/>
</g>
<defs>
<clipPath id="clip0_3586_948">
<rect width="1440" height="100" fill="white"/>
</clipPath>
<clipPath id="clip1_3586_948">
<rect width="50" height="50" fill="white" transform="translate(115 25)"/>
</clipPath>
<clipPath id="clip2_3586_948">
<rect width="50" height="50" fill="white" transform="translate(325 25)"/>
</clipPath>
<clipPath id="clip3_3586_948">
<rect width="50" height="50" fill="white" transform="translate(535 25)"/>
</clipPath>
<clipPath id="clip4_3586_948">
<rect width="50" height="50" fill="white" transform="translate(745 25)"/>
</clipPath>
<clipPath id="clip5_3586_948">
<rect width="50" height="50" fill="white" transform="translate(955 25)"/>
</clipPath>
<clipPath id="clip6_3586_948">
<rect width="50" height="50" fill="white" transform="translate(1165 25)"/>
</clipPath>
<clipPath id="clip7_3586_948">
<rect width="50" height="50" fill="white" transform="translate(1375 25)"/>
</clipPath>
</defs>
</svg>
