<svg width="166" height="57" viewBox="0 0 166 57" fill="none" xmlns="http://www.w3.org/2000/svg">
<rect x="0.977081" y="0.826111" width="164.239" height="55.898" rx="27.949" fill="#272420"/>
<path d="M44.9822 29.7149C45.0115 27.4334 46.232 25.2746 48.1682 24.0796C46.9467 22.3283 44.9009 21.218 42.7723 21.1511C40.5021 20.9119 38.3012 22.5149 37.1443 22.5149C35.9651 22.5149 34.1839 21.1749 32.2658 21.2145C29.7657 21.2956 27.435 22.7226 26.2187 24.9168C23.604 29.4614 25.5543 36.1403 28.059 39.8138C29.3121 41.6126 30.7766 43.6219 32.6929 43.5506C34.5682 43.4726 35.2685 42.3502 37.5321 42.3502C39.7746 42.3502 40.4317 43.5506 42.3869 43.5053C44.3991 43.4725 45.6669 41.6985 46.8761 39.8827C47.7764 38.601 48.4692 37.1845 48.9289 35.6855C46.5642 34.6814 44.985 32.2924 44.9822 29.7149Z" fill="white"/>
<path d="M41.2892 18.7353C42.3863 17.4131 42.9268 15.7136 42.7959 13.9977C41.1198 14.1745 39.5714 14.9787 38.4595 16.2502C37.3721 17.4925 36.8063 19.1621 36.9132 20.8124C38.59 20.8297 40.2384 20.0472 41.2892 18.7353Z" fill="white"/>
<path d="M61.2329 20.8981C61.0217 20.8981 60.8105 20.8813 60.5993 20.8477C60.3881 20.8189 60.1889 20.7733 60.0017 20.7109C59.8145 20.6437 59.6465 20.5621 59.4977 20.4661C59.4113 20.4085 59.3513 20.3389 59.3177 20.2573C59.2841 20.1757 59.2721 20.0965 59.2817 20.0197C59.2961 19.9381 59.3273 19.8685 59.3753 19.8109C59.4281 19.7485 59.4929 19.7101 59.5697 19.6957C59.6465 19.6813 59.7305 19.7029 59.8217 19.7605C60.0329 19.8853 60.2561 19.9765 60.4913 20.0341C60.7265 20.0917 60.9737 20.1205 61.2329 20.1205C61.6121 20.1205 61.8881 20.0581 62.0609 19.9333C62.2337 19.8037 62.3201 19.6381 62.3201 19.4365C62.3201 19.2685 62.2577 19.1365 62.1329 19.0405C62.0129 18.9445 61.8041 18.8653 61.5065 18.8029L60.7145 18.6373C60.2585 18.5413 59.9177 18.3805 59.6921 18.1549C59.4713 17.9245 59.3609 17.6221 59.3609 17.2477C59.3609 17.0125 59.4089 16.7989 59.5049 16.6069C59.6009 16.4149 59.7353 16.2493 59.9081 16.1101C60.0857 15.9709 60.2945 15.8653 60.5345 15.7933C60.7793 15.7165 61.0481 15.6781 61.3409 15.6781C61.6289 15.6781 61.9025 15.7141 62.1617 15.7861C62.4209 15.8581 62.6537 15.9637 62.8601 16.1029C62.9369 16.1557 62.9873 16.2205 63.0113 16.2973C63.0401 16.3741 63.0473 16.4509 63.0329 16.5277C63.0185 16.5997 62.9849 16.6621 62.9321 16.7149C62.8793 16.7677 62.8121 16.7989 62.7305 16.8085C62.6537 16.8181 62.5649 16.7941 62.4641 16.7365C62.2865 16.6357 62.1065 16.5637 61.9241 16.5205C61.7417 16.4773 61.5449 16.4557 61.3337 16.4557C61.1129 16.4557 60.9233 16.4869 60.7649 16.5493C60.6065 16.6117 60.4841 16.7005 60.3977 16.8157C60.3161 16.9261 60.2753 17.0581 60.2753 17.2117C60.2753 17.3845 60.3329 17.5237 60.4481 17.6293C60.5633 17.7301 60.7601 17.8093 61.0385 17.8669L61.8233 18.0325C62.2985 18.1333 62.6513 18.2917 62.8817 18.5077C63.1169 18.7237 63.2345 19.0117 63.2345 19.3717C63.2345 19.6021 63.1865 19.8109 63.0905 19.9981C62.9993 20.1853 62.8649 20.3461 62.6873 20.4805C62.5145 20.6149 62.3057 20.7181 62.0609 20.7901C61.8161 20.8621 61.5401 20.8981 61.2329 20.8981ZM64.0407 20.8837C63.9255 20.8837 63.8319 20.8573 63.7599 20.8045C63.6927 20.7517 63.6519 20.6821 63.6375 20.5957C63.6231 20.5045 63.6399 20.4037 63.6879 20.2933L65.5887 16.0813C65.6511 15.9421 65.7255 15.8437 65.8119 15.7861C65.9031 15.7237 66.0063 15.6925 66.1215 15.6925C66.2319 15.6925 66.3303 15.7237 66.4167 15.7861C66.5079 15.8437 66.5847 15.9421 66.6471 16.0813L68.5551 20.2933C68.6079 20.4037 68.6271 20.5045 68.6127 20.5957C68.5983 20.6869 68.5575 20.7589 68.4903 20.8117C68.4231 20.8597 68.3343 20.8837 68.2239 20.8837C68.0895 20.8837 67.9839 20.8525 67.9071 20.7901C67.8351 20.7229 67.7703 20.6221 67.7127 20.4877L67.2447 19.4005L67.6335 19.6525H64.5951L64.9839 19.4005L64.5231 20.4877C64.4607 20.6269 64.3959 20.7277 64.3287 20.7901C64.2615 20.8525 64.1655 20.8837 64.0407 20.8837ZM66.1071 16.7509L65.0991 19.1485L64.9119 18.9181H67.3167L67.1367 19.1485L66.1215 16.7509H66.1071ZM66.1215 15.3541C65.8095 15.3541 65.5479 15.2749 65.3367 15.1165C65.1303 14.9581 64.9959 14.7493 64.9335 14.4901C64.9143 14.3989 64.9191 14.3269 64.9479 14.2741C64.9815 14.2165 65.0319 14.1853 65.0991 14.1805C65.1663 14.1709 65.2215 14.1781 65.2647 14.2021C65.3127 14.2261 65.3487 14.2789 65.3727 14.3605C65.4207 14.5045 65.5071 14.6221 65.6319 14.7133C65.7567 14.8045 65.9199 14.8501 66.1215 14.8501C66.3231 14.8501 66.4863 14.8045 66.6111 14.7133C66.7359 14.6221 66.8223 14.5045 66.8703 14.3605C66.8943 14.2789 66.9279 14.2261 66.9711 14.2021C67.0191 14.1781 67.0767 14.1709 67.1439 14.1805C67.2111 14.1853 67.2615 14.2165 67.2951 14.2741C67.3287 14.3269 67.3335 14.3989 67.3095 14.4901C67.2711 14.6629 67.1967 14.8141 67.0863 14.9437C66.9807 15.0733 66.8463 15.1741 66.6831 15.2461C66.5199 15.3181 66.3327 15.3541 66.1215 15.3541ZM66.3591 14.4397C66.3063 14.4973 66.2487 14.5309 66.1863 14.5405C66.1239 14.5453 66.0663 14.5333 66.0135 14.5045C65.9607 14.4709 65.9247 14.4277 65.9055 14.3749C65.8863 14.3173 65.8959 14.2549 65.9343 14.1877L66.3015 13.5253C66.3447 13.4437 66.3999 13.3933 66.4671 13.3741C66.5391 13.3501 66.6087 13.3501 66.6759 13.3741C66.7479 13.3933 66.8079 13.4293 66.8559 13.4821C66.9039 13.5349 66.9303 13.5973 66.9351 13.6693C66.9399 13.7365 66.9111 13.8061 66.8487 13.8781L66.3591 14.4397ZM69.8089 20.8837C69.6601 20.8837 69.5449 20.8429 69.4633 20.7613C69.3865 20.6749 69.3481 20.5573 69.3481 20.4085V16.2181C69.3481 16.0645 69.3889 15.9493 69.4705 15.8725C69.5521 15.7909 69.6673 15.7501 69.8161 15.7501H71.5513C72.1081 15.7501 72.5377 15.8893 72.8401 16.1677C73.1425 16.4461 73.2937 16.8349 73.2937 17.3341C73.2937 17.8333 73.1425 18.2245 72.8401 18.5077C72.5377 18.7861 72.1081 18.9253 71.5513 18.9253H70.2697V20.4085C70.2697 20.5573 70.2313 20.6749 70.1545 20.7613C70.0777 20.8429 69.9625 20.8837 69.8089 20.8837ZM70.2697 18.1981H71.4073C71.7337 18.1981 71.9809 18.1261 72.1489 17.9821C72.3169 17.8333 72.4009 17.6173 72.4009 17.3341C72.4009 17.0509 72.3169 16.8373 72.1489 16.6933C71.9809 16.5493 71.7337 16.4773 71.4073 16.4773H70.2697V18.1981ZM76.4605 20.8837C76.3117 20.8837 76.1965 20.8429 76.1149 20.7613C76.0381 20.6749 75.9997 20.5573 75.9997 20.4085V16.2181C75.9997 16.0645 76.0405 15.9493 76.1221 15.8725C76.2037 15.7909 76.3189 15.7501 76.4677 15.7501H78.2029C78.7597 15.7501 79.1893 15.8845 79.4917 16.1533C79.7941 16.4173 79.9453 16.7893 79.9453 17.2693C79.9453 17.5813 79.8757 17.8501 79.7365 18.0757C79.6021 18.3013 79.4053 18.4741 79.1461 18.5941C78.8869 18.7141 78.5725 18.7741 78.2029 18.7741L78.2677 18.6661H78.5053C78.7021 18.6661 78.8725 18.7141 79.0165 18.8101C79.1653 18.9061 79.2949 19.0573 79.4053 19.2637L79.9453 20.2645C80.0029 20.3653 80.0293 20.4637 80.0245 20.5597C80.0197 20.6557 79.9837 20.7349 79.9165 20.7973C79.8493 20.8549 79.7509 20.8837 79.6213 20.8837C79.4917 20.8837 79.3861 20.8573 79.3045 20.8045C79.2229 20.7469 79.1509 20.6605 79.0885 20.5453L78.3613 19.2061C78.2749 19.0429 78.1717 18.9349 78.0517 18.8821C77.9365 18.8245 77.7877 18.7957 77.6053 18.7957H76.9213V20.4085C76.9213 20.5573 76.8829 20.6749 76.8061 20.7613C76.7293 20.8429 76.6141 20.8837 76.4605 20.8837ZM76.9213 18.1117H78.0445C78.3757 18.1117 78.6253 18.0445 78.7933 17.9101C78.9661 17.7709 79.0525 17.5645 79.0525 17.2909C79.0525 17.0221 78.9661 16.8205 78.7933 16.6861C78.6253 16.5469 78.3757 16.4773 78.0445 16.4773H76.9213V18.1117ZM80.8946 20.8837C80.7794 20.8837 80.6858 20.8573 80.6138 20.8045C80.5466 20.7517 80.5058 20.6821 80.4914 20.5957C80.477 20.5045 80.4938 20.4037 80.5418 20.2933L82.4426 16.0813C82.505 15.9421 82.5794 15.8437 82.6658 15.7861C82.757 15.7237 82.8602 15.6925 82.9754 15.6925C83.0858 15.6925 83.1842 15.7237 83.2706 15.7861C83.3618 15.8437 83.4386 15.9421 83.501 16.0813L85.409 20.2933C85.4618 20.4037 85.481 20.5045 85.4666 20.5957C85.4522 20.6869 85.4114 20.7589 85.3442 20.8117C85.277 20.8597 85.1882 20.8837 85.0778 20.8837C84.9434 20.8837 84.8378 20.8525 84.761 20.7901C84.689 20.7229 84.6242 20.6221 84.5666 20.4877L84.0986 19.4005L84.4874 19.6525H81.449L81.8378 19.4005L81.377 20.4877C81.3146 20.6269 81.2498 20.7277 81.1826 20.7901C81.1154 20.8525 81.0194 20.8837 80.8946 20.8837ZM82.961 16.7509L81.953 19.1485L81.7658 18.9181H84.1706L83.9906 19.1485L82.9754 16.7509H82.961ZM88.5887 20.8837C88.4543 20.8837 88.3511 20.8453 88.2791 20.7685C88.2071 20.6917 88.1711 20.5861 88.1711 20.4517V16.1245C88.1711 15.9853 88.2095 15.8797 88.2863 15.8077C88.3631 15.7309 88.4687 15.6925 88.6031 15.6925C88.7231 15.6925 88.8167 15.7165 88.8839 15.7645C88.9559 15.8077 89.0207 15.8845 89.0783 15.9949L90.8567 19.2853H90.6263L92.4047 15.9949C92.4623 15.8845 92.5247 15.8077 92.5919 15.7645C92.6591 15.7165 92.7527 15.6925 92.8727 15.6925C93.0071 15.6925 93.1103 15.7309 93.1823 15.8077C93.2543 15.8797 93.2903 15.9853 93.2903 16.1245V20.4517C93.2903 20.5861 93.2543 20.6917 93.1823 20.7685C93.1151 20.8453 93.0119 20.8837 92.8727 20.8837C92.7383 20.8837 92.6351 20.8453 92.5631 20.7685C92.4911 20.6917 92.4551 20.5861 92.4551 20.4517V17.1181H92.6135L91.1015 19.8757C91.0535 19.9573 91.0031 20.0173 90.9503 20.0557C90.8975 20.0941 90.8255 20.1133 90.7343 20.1133C90.6431 20.1133 90.5687 20.0941 90.5111 20.0557C90.4535 20.0125 90.4031 19.9525 90.3599 19.8757L88.8335 17.1109H89.0063V20.4517C89.0063 20.5861 88.9703 20.6917 88.8983 20.7685C88.8311 20.8453 88.7279 20.8837 88.5887 20.8837ZM94.4579 20.8837C94.3427 20.8837 94.2491 20.8573 94.1771 20.8045C94.1099 20.7517 94.0691 20.6821 94.0547 20.5957C94.0403 20.5045 94.0571 20.4037 94.1051 20.2933L96.0059 16.0813C96.0683 15.9421 96.1427 15.8437 96.2291 15.7861C96.3203 15.7237 96.4235 15.6925 96.5387 15.6925C96.6491 15.6925 96.7475 15.7237 96.8339 15.7861C96.9251 15.8437 97.0019 15.9421 97.0643 16.0813L98.9723 20.2933C99.0251 20.4037 99.0443 20.5045 99.0299 20.5957C99.0155 20.6869 98.9747 20.7589 98.9075 20.8117C98.8403 20.8597 98.7515 20.8837 98.6411 20.8837C98.5067 20.8837 98.4011 20.8525 98.3243 20.7901C98.2523 20.7229 98.1875 20.6221 98.1299 20.4877L97.6619 19.4005L98.0507 19.6525H95.0123L95.4011 19.4005L94.9403 20.4877C94.8779 20.6269 94.8131 20.7277 94.7459 20.7901C94.6787 20.8525 94.5827 20.8837 94.4579 20.8837ZM96.5243 16.7509L95.5163 19.1485L95.3291 18.9181H97.7339L97.5539 19.1485L96.5387 16.7509H96.5243ZM96.5387 15.3541C96.2267 15.3541 95.9651 15.2749 95.7539 15.1165C95.5475 14.9581 95.4131 14.7493 95.3507 14.4901C95.3315 14.3989 95.3363 14.3269 95.3651 14.2741C95.3987 14.2165 95.4491 14.1853 95.5163 14.1805C95.5835 14.1709 95.6387 14.1781 95.6819 14.2021C95.7299 14.2261 95.7659 14.2789 95.7899 14.3605C95.8379 14.5045 95.9243 14.6221 96.0491 14.7133C96.1739 14.8045 96.3371 14.8501 96.5387 14.8501C96.7403 14.8501 96.9035 14.8045 97.0283 14.7133C97.1531 14.6221 97.2395 14.5045 97.2875 14.3605C97.3115 14.2789 97.3451 14.2261 97.3883 14.2021C97.4363 14.1781 97.4939 14.1709 97.5611 14.1805C97.6283 14.1853 97.6787 14.2165 97.7123 14.2741C97.7459 14.3269 97.7507 14.3989 97.7267 14.4901C97.6883 14.6629 97.6139 14.8141 97.5035 14.9437C97.3979 15.0733 97.2635 15.1741 97.1003 15.2461C96.9371 15.3181 96.7499 15.3541 96.5387 15.3541ZM96.7763 14.4397C96.7235 14.4973 96.6659 14.5309 96.6035 14.5405C96.5411 14.5453 96.4835 14.5333 96.4307 14.5045C96.3779 14.4709 96.3419 14.4277 96.3227 14.3749C96.3035 14.3173 96.3131 14.2549 96.3515 14.1877L96.7187 13.5253C96.7619 13.4437 96.8171 13.3933 96.8843 13.3741C96.9563 13.3501 97.0259 13.3501 97.0931 13.3741C97.1651 13.3933 97.2251 13.4293 97.2731 13.4821C97.3211 13.5349 97.3475 13.5973 97.3523 13.6693C97.3571 13.7365 97.3283 13.8061 97.2659 13.8781L96.7763 14.4397ZM100.888 20.8837C100.739 20.8837 100.624 20.8429 100.542 20.7613C100.465 20.6749 100.427 20.5573 100.427 20.4085V16.5205H99.0228C98.898 16.5205 98.7996 16.4869 98.7276 16.4197C98.6604 16.3477 98.6268 16.2517 98.6268 16.1317C98.6268 16.0069 98.6604 15.9133 98.7276 15.8509C98.7996 15.7837 98.898 15.7501 99.0228 15.7501H102.752C102.877 15.7501 102.973 15.7837 103.04 15.8509C103.112 15.9133 103.148 16.0069 103.148 16.1317C103.148 16.2517 103.112 16.3477 103.04 16.4197C102.973 16.4869 102.877 16.5205 102.752 16.5205H101.348V20.4085C101.348 20.5573 101.31 20.6749 101.233 20.7613C101.156 20.8429 101.041 20.8837 100.888 20.8837ZM107.314 20.8837C107.165 20.8837 107.05 20.8429 106.969 20.7613C106.892 20.6749 106.853 20.5573 106.853 20.4085V16.5205H105.449C105.325 16.5205 105.226 16.4869 105.154 16.4197C105.087 16.3477 105.053 16.2517 105.053 16.1317C105.053 16.0069 105.087 15.9133 105.154 15.8509C105.226 15.7837 105.325 15.7501 105.449 15.7501H109.179C109.304 15.7501 109.4 15.7837 109.467 15.8509C109.539 15.9133 109.575 16.0069 109.575 16.1317C109.575 16.2517 109.539 16.3477 109.467 16.4197C109.4 16.4869 109.304 16.5205 109.179 16.5205H107.775V20.4085C107.775 20.5573 107.737 20.6749 107.66 20.7613C107.583 20.8429 107.468 20.8837 107.314 20.8837ZM109.589 20.8837C109.474 20.8837 109.38 20.8573 109.308 20.8045C109.241 20.7517 109.2 20.6821 109.186 20.5957C109.172 20.5045 109.188 20.4037 109.236 20.2933L111.137 16.0813C111.2 15.9421 111.274 15.8437 111.36 15.7861C111.452 15.7237 111.555 15.6925 111.67 15.6925C111.78 15.6925 111.879 15.7237 111.965 15.7861C112.056 15.8437 112.133 15.9421 112.196 16.0813L114.104 20.2933C114.156 20.4037 114.176 20.5045 114.161 20.5957C114.147 20.6869 114.106 20.7589 114.039 20.8117C113.972 20.8597 113.883 20.8837 113.772 20.8837C113.638 20.8837 113.532 20.8525 113.456 20.7901C113.384 20.7229 113.319 20.6221 113.261 20.4877L112.793 19.4005L113.182 19.6525H110.144L110.532 19.4005L110.072 20.4877C110.009 20.6269 109.944 20.7277 109.877 20.7901C109.81 20.8525 109.714 20.8837 109.589 20.8837ZM111.656 16.7509L110.648 19.1485L110.46 18.9181H112.865L112.685 19.1485L111.67 16.7509H111.656ZM111.67 22.3309C111.521 22.3309 111.406 22.2901 111.324 22.2085C111.243 22.1317 111.202 22.0213 111.202 21.8773C111.202 21.7333 111.243 21.6229 111.324 21.5461C111.406 21.4693 111.521 21.4309 111.67 21.4309C111.824 21.4309 111.941 21.4693 112.023 21.5461C112.104 21.6229 112.145 21.7333 112.145 21.8773C112.145 22.0213 112.104 22.1317 112.023 22.2085C111.941 22.2901 111.824 22.3309 111.67 22.3309ZM115.357 20.8837C115.209 20.8837 115.093 20.8429 115.012 20.7613C114.935 20.6749 114.897 20.5573 114.897 20.4085V16.1677C114.897 16.0141 114.935 15.8965 115.012 15.8149C115.093 15.7333 115.209 15.6925 115.357 15.6925C115.506 15.6925 115.619 15.7333 115.696 15.8149C115.777 15.8965 115.818 16.0141 115.818 16.1677V20.4085C115.818 20.5573 115.78 20.6749 115.703 20.7613C115.626 20.8429 115.511 20.8837 115.357 20.8837Z" fill="white"/>
<path d="M110.523 28.9962V31.517H108.95V33.1702H110.523V38.7873C110.523 40.7054 111.388 41.4726 113.562 41.4726C113.944 41.4726 114.308 41.4269 114.627 41.3721V39.7372C114.354 39.7646 114.181 39.7829 113.881 39.7829C112.907 39.7829 112.48 39.3262 112.48 38.285V33.1702H114.627V31.517H112.48V28.9962H110.523Z" fill="white"/>
<path d="M120.166 41.6096C123.059 41.6096 124.833 39.6641 124.833 36.44C124.833 33.2341 123.05 31.2796 120.166 31.2796C117.273 31.2796 115.49 33.2341 115.49 36.44C115.49 39.6641 117.264 41.6096 120.166 41.6096ZM120.166 39.8651C118.465 39.8651 117.509 38.6138 117.509 36.44C117.509 34.2845 118.465 33.0241 120.166 33.0241C121.858 33.0241 122.823 34.2845 122.823 36.44C122.823 38.6047 121.858 39.8651 120.166 39.8651Z" fill="white"/>
<path d="M126.351 41.4178H128.307V35.5449C128.307 34.1475 129.353 33.2067 130.836 33.2067C131.182 33.2067 131.764 33.2707 131.928 33.3255V31.3892C131.719 31.3344 131.346 31.307 131.055 31.307C129.763 31.307 128.662 32.0194 128.38 32.9967H128.234V31.4714H126.351V41.4178Z" fill="white"/>
<path d="M136.785 32.951C138.232 32.951 139.178 33.9648 139.223 35.5267H134.219C134.329 33.974 135.338 32.951 136.785 32.951ZM139.214 38.7325C138.85 39.5089 138.041 39.9381 136.858 39.9381C135.293 39.9381 134.283 38.833 134.219 37.0885V36.9789H141.216V36.2939C141.216 33.1702 139.551 31.2796 136.794 31.2796C134.001 31.2796 132.227 33.2981 132.227 36.4765C132.227 39.655 133.965 41.6096 136.803 41.6096C139.069 41.6096 140.652 40.5136 141.098 38.7325H139.214Z" fill="white"/>
<path d="M97.6959 37.7447C97.8467 40.1871 99.8741 41.7491 102.892 41.7491C106.117 41.7491 108.135 40.1114 108.135 37.4986C108.135 35.4443 106.984 34.3083 104.193 33.6551L102.694 33.2859C100.921 32.8694 100.204 32.3109 100.204 31.3358C100.204 30.1052 101.317 29.3005 102.986 29.3005C104.57 29.3005 105.664 30.0862 105.862 31.3453H107.918C107.795 29.0449 105.777 27.4261 103.014 27.4261C100.044 27.4261 98.0636 29.0449 98.0636 31.4778C98.0636 33.4847 99.1858 34.6775 101.647 35.255L103.401 35.681C105.202 36.107 105.994 36.7318 105.994 37.7731C105.994 38.9849 104.749 39.8653 103.052 39.8653C101.232 39.8653 99.9684 39.0417 99.7893 37.7447H97.6959Z" fill="white"/>
<path d="M77.433 31.307C76.0865 31.307 74.9219 31.9829 74.3214 33.1154H74.1759V31.4714H72.2926V44.7241H74.2487V39.9107H74.4033C74.9219 40.9611 76.041 41.5822 77.4512 41.5822C79.9531 41.5822 81.5453 39.6002 81.5453 36.44C81.5453 33.2798 79.9531 31.307 77.433 31.307ZM76.878 39.8194C75.2403 39.8194 74.2123 38.5225 74.2123 36.4491C74.2123 34.3667 75.2403 33.0697 76.8871 33.0697C78.5429 33.0697 79.5346 34.3393 79.5346 36.44C79.5346 38.5499 78.5429 39.8194 76.878 39.8194Z" fill="white"/>
<path d="M88.3899 31.307C87.0434 31.307 85.8788 31.9829 85.2783 33.1154H85.1328V31.4714H83.2495V44.7241H85.2056V39.9107H85.3602C85.8788 40.9611 86.9979 41.5822 88.4081 41.5822C90.91 41.5822 92.5022 39.6002 92.5022 36.44C92.5022 33.2798 90.91 31.307 88.3899 31.307ZM87.8349 39.8194C86.1972 39.8194 85.1692 38.5225 85.1692 36.4491C85.1692 34.3667 86.1972 33.0697 87.844 33.0697C89.4998 33.0697 90.4915 34.3393 90.4915 36.44C90.4915 38.5499 89.4998 39.8194 87.8349 39.8194Z" fill="white"/>
<path d="M68.7831 41.4178H71.0273L66.1144 27.7574H63.8418L58.9289 41.4178H61.0978L62.3519 37.7921H67.5383L68.7831 41.4178ZM64.8697 30.2377H65.03L67.0008 36.0123H62.8894L64.8697 30.2377Z" fill="white"/>
</svg>
