<svg width="50" height="50" viewBox="0 0 50 50" fill="none" xmlns="http://www.w3.org/2000/svg">
<g clip-path="url(#clip0_3637_1223)">
<path d="M12.2643 15.8969V16.3119C12.268 16.1609 12.279 15.9425 12.3086 15.6761C12.2801 15.744 12.2643 15.8186 12.2643 15.8969Z" fill="white"/>
<path fill-rule="evenodd" clip-rule="evenodd" d="M12.8366 15.3242C12.5992 15.3242 12.395 15.4695 12.3085 15.676C12.4991 13.9672 13.4581 10.2835 18.1692 9.76428H22.5499L27.471 9.7645H37.184C40.5654 9.7645 43.3163 12.5155 43.3163 15.8968V20.8304C42.9111 20.0809 42.4161 19.3616 41.8281 18.6884C39.9532 16.5415 38.0423 15.6514 37.5238 15.4368C37.4286 15.3663 37.3114 15.3242 37.1842 15.3242H12.8366Z" fill="white"/>
<path fill-rule="evenodd" clip-rule="evenodd" d="M12.9535 13.2528L18.608 11.6316L16.6461 6.65396C17.3022 5.71237 17.5043 4.53042 17.1838 3.41268C16.6014 1.38163 14.4727 0.203742 12.4387 0.787004C10.4046 1.37027 9.22376 3.49715 9.80609 5.52795C10.1266 6.64569 10.9244 7.54093 11.9798 7.99174L12.9535 13.2528Z" fill="white"/>
<path fill-rule="evenodd" clip-rule="evenodd" d="M31.5812 11.6313L37.2356 13.253L38.2095 7.99203C39.2649 7.54121 40.0627 6.64598 40.3832 5.52823C40.9656 3.49719 39.7845 1.37023 37.7504 0.786971C35.7163 0.203709 33.5879 1.38167 33.0056 3.41247C32.6851 4.53021 32.8872 5.71216 33.5433 6.65375L31.5812 11.6313Z" fill="white"/>
<path d="M27.6538 36.5085H16.1424L12.2643 40.2378V16.5433C12.2643 16.5433 12.2608 16.46 12.2643 16.3119V15.8969C12.2643 15.8186 12.2801 15.7442 12.3086 15.6763C12.4989 13.9672 13.4582 10.2838 18.1693 9.76477H12.8367C9.45556 9.76455 6.70459 12.5155 6.70459 15.8969V46.5109C6.70459 47.6903 7.37865 48.7097 8.46403 49.1714C8.83923 49.331 9.22827 49.4091 9.61191 49.4091C10.3383 49.4091 11.0452 49.1295 11.6012 48.5943L18.218 42.2269C19.9489 40.4344 23.3802 37.4301 27.6538 36.5085Z" fill="white"/>
<path d="M12.2642 16.5432V16.3118C12.2608 16.46 12.2642 16.5432 12.2642 16.5432Z" fill="white"/>
<path d="M37.5217 36.3975C37.4269 36.4669 37.3106 36.5084 37.1843 36.5084H37.1181H36.967H27.6538C23.3802 37.4299 19.9489 40.4343 18.218 42.2268L18.383 42.0681H37.1845C40.5659 42.0681 43.3168 39.3171 43.3168 35.9358V31.7943C42.1132 33.9235 40.1543 35.6183 37.5217 36.3975Z" fill="white"/>
<path d="M37.524 15.4369C37.665 15.5413 37.7569 15.7083 37.7569 15.8966V35.936C37.7569 36.1255 37.6639 36.2933 37.5216 36.3975C40.1543 35.6184 42.1131 33.9236 43.3166 31.7946V20.8305C42.9113 20.0809 42.4163 19.3617 41.8283 18.6885C39.9534 16.5417 38.0426 15.6514 37.524 15.4369Z" fill="white"/>
<path d="M32.2857 29.2339C33.063 28.4715 32.9393 27.2143 32.0978 26.5146L31.3804 25.9181C30.8888 25.5094 30.1556 25.5996 29.7826 26.1147C27.6865 28.8509 25.7523 30.3713 22.9739 29.8697C21.171 29.5442 19.7168 28.6159 19.2541 28.294C19.1503 28.2218 19.0364 28.1664 18.914 28.135C18.5007 28.0289 18.0697 28.2179 17.87 28.5928L17.6181 29.0655C17.2672 29.724 17.4114 30.5466 18.0319 30.9676C20.8831 32.9022 26.5324 34.8761 32.2857 29.2339Z" fill="white"/>
<path d="M15.9147 22.8243C15.6043 23.3305 15.7619 23.978 16.2212 24.3542L16.2758 24.3989C16.3455 24.456 16.4239 24.5018 16.508 24.5344L16.5385 24.5463C16.8931 24.684 17.2958 24.5578 17.5083 24.2423C17.5276 24.2036 17.8786 23.5103 18.4996 23.0457C19.3355 22.4201 20.3513 22.4727 21.5188 23.2019C21.9207 23.453 22.4515 23.2559 22.5922 22.8034L22.7786 22.2042C22.9659 21.6019 22.6574 20.9468 22.0517 20.7712C18.5788 19.7642 16.8614 21.2806 15.9147 22.8243Z" fill="white"/>
<circle cx="29.6814" cy="21.4808" r="2.26705" transform="rotate(-8.70619 29.6814 21.4808)" fill="white"/>
</g>
<defs>
<clipPath id="clip0_3637_1223">
<rect width="50" height="50" fill="white"/>
</clipPath>
</defs>
</svg>
