<svg width="40" height="40" viewBox="0 0 40 40" fill="none" xmlns="http://www.w3.org/2000/svg">
<g clip-path="url(#clip0_3637_1489)">
<path d="M9.8114 12.7175V13.0495C9.81434 12.9288 9.82317 12.754 9.84687 12.5409C9.82403 12.5952 9.8114 12.6549 9.8114 12.7175Z" fill="#FEA623"/>
<path fill-rule="evenodd" clip-rule="evenodd" d="M10.2693 12.2593C10.0794 12.2593 9.91606 12.3756 9.84686 12.5408C9.99928 11.1737 10.7665 8.22678 14.5354 7.8114H18.0399L21.9768 7.81157H29.7473C32.4523 7.81157 34.6531 10.0123 34.6531 12.7174V16.6643C34.3289 16.0647 33.9329 15.4893 33.4625 14.9507C31.9626 13.2332 30.4339 12.5211 30.019 12.3495C29.9429 12.2931 29.8492 12.2593 29.7474 12.2593H10.2693Z" fill="#FEA623"/>
<path fill-rule="evenodd" clip-rule="evenodd" d="M10.3628 10.2188L14.8864 8.92191L13.3168 4.9398C13.8418 4.18652 14.0035 3.24096 13.7471 2.34677C13.2811 0.721933 11.5782 -0.22038 9.95091 0.246229C8.32365 0.712838 7.379 2.41435 7.84486 4.03898C8.10126 4.93318 8.73947 5.64937 9.58379 6.01002L10.3628 10.2188Z" fill="#FEA623"/>
<path fill-rule="evenodd" clip-rule="evenodd" d="M25.265 8.92169L29.7885 10.219L30.5676 6.01025C31.4119 5.6496 32.0502 4.93341 32.3066 4.03921C32.7725 2.41438 31.8276 0.712812 30.2004 0.246203C28.5731 -0.220407 26.8703 0.721964 26.4045 2.3466C26.1481 3.24079 26.3098 4.18636 26.8347 4.93963L25.265 8.92169Z" fill="#FEA623"/>
<path d="M22.123 29.2067H12.9139L9.81139 32.1902V13.2346C9.81139 13.2346 9.80862 13.1679 9.81139 13.0494V12.7174C9.81139 12.6548 9.82402 12.5953 9.84685 12.541C9.9991 11.1737 10.7665 8.22698 14.5354 7.81177H10.2693C7.56442 7.81159 5.36365 10.0124 5.36365 12.7174V37.2087C5.36365 38.1522 5.9029 38.9677 6.7712 39.3371C7.07136 39.4648 7.3826 39.5272 7.6895 39.5272C8.27062 39.5272 8.83617 39.3035 9.28096 38.8754L14.5743 33.7815C15.9591 32.3474 18.7041 29.9441 22.123 29.2067Z" fill="#FEA623"/>
<path d="M9.81135 13.2346V13.0494C9.80858 13.1679 9.81135 13.2346 9.81135 13.2346Z" fill="#FEA623"/>
<path d="M30.0173 29.118C29.9415 29.1735 29.8485 29.2067 29.7474 29.2067H29.6945H29.5736H22.123C18.7041 29.9439 15.9591 32.3474 14.5743 33.7814L14.7063 33.6545H29.7476C32.4527 33.6545 34.6534 31.4537 34.6534 28.7486V25.4354C33.6905 27.1388 32.1234 28.4946 30.0173 29.118Z" fill="#FEA623"/>
<path d="M30.0192 12.3495C30.132 12.433 30.2055 12.5666 30.2055 12.7173V28.7488C30.2055 28.9004 30.1311 29.0346 30.0173 29.118C32.1234 28.4947 33.6905 27.1388 34.6532 25.4356V16.6644C34.329 16.0647 33.933 15.4893 33.4626 14.9508C31.9627 13.2334 30.434 12.5211 30.0192 12.3495Z" fill="#FEA623"/>
<path d="M25.8285 23.3871C26.4504 22.7773 26.3514 21.7715 25.6782 21.2118L25.1043 20.7346C24.711 20.4076 24.1244 20.4798 23.8261 20.8918C22.1492 23.0808 20.6018 24.2971 18.3791 23.8958C16.9367 23.6354 15.7734 22.8928 15.4032 22.6353C15.3202 22.5775 15.2291 22.5332 15.1312 22.508C14.8005 22.4232 14.4558 22.5744 14.2959 22.8743L14.0944 23.2525C13.8137 23.7792 13.9291 24.4373 14.4255 24.7741C16.7065 26.3218 21.2259 27.9009 25.8285 23.3871Z" fill="#FEA623"/>
<path d="M12.7317 18.2594C12.4834 18.6643 12.6095 19.1823 12.977 19.4833L13.0206 19.5191C13.0764 19.5648 13.1391 19.6014 13.2064 19.6275L13.2308 19.637C13.5145 19.7472 13.8366 19.6462 14.0066 19.3938C14.022 19.3628 14.3028 18.8082 14.7996 18.4365C15.4684 17.936 16.281 17.9781 17.215 18.5615C17.5365 18.7623 17.9611 18.6047 18.0737 18.2427L18.2228 17.7633C18.3727 17.2815 18.1259 16.7574 17.6413 16.6169C14.863 15.8113 13.4891 17.0244 12.7317 18.2594Z" fill="#FEA623"/>
<circle cx="23.7451" cy="17.1846" r="1.81364" transform="rotate(-8.70619 23.7451 17.1846)" fill="#FEA623"/>
</g>
<defs>
<clipPath id="clip0_3637_1489">
<rect width="40" height="40" fill="white"/>
</clipPath>
</defs>
</svg>
