<svg width="123" height="131" viewBox="0 0 123 131" fill="none" xmlns="http://www.w3.org/2000/svg">
<g filter="url(#filter0_ddd_3596_4524)">
<rect x="11" y="6" width="100.8" height="108" rx="7.2" fill="white" shape-rendering="crispEdges"/>
<path d="M83.5323 50.1151C83.5323 50.1151 90.4774 70.4643 89.9012 73.0974C89.3251 75.7306 79.4341 79.18 76.0669 79.3989C72.6997 79.6178 69.3077 50.2152 69.3077 50.2152L80.7692 46.9878L83.5323 50.1151Z" fill="#C20024"/>
<path d="M68.7255 42.8061C68.7255 42.8061 70.5036 64.2561 69.3048 66.6641C68.1059 69.0721 57.6791 69.9634 54.3614 69.3379C51.0438 68.7125 54.9128 39.3723 54.9128 39.3723L66.8111 39.0878L68.7255 42.8061Z" fill="#C20024"/>
<path d="M30.0804 42.42C31.4715 51.5412 43.1084 50.4036 61.9019 52.402C80.6925 54.4004 88.3948 54.1648 92.6641 42.42C94.1852 38.2353 87.782 40.5505 89.5349 34.389C91.1069 28.8599 84.5876 29.2703 84.5282 29.3353C84.4406 29.4293 76.7116 34.7379 59.7531 33.7296C43.2611 32.7503 33.713 27.4573 33.2097 31.4686C31.9883 41.1861 29.1616 36.4103 30.0804 42.42Z" fill="#FD002E"/>
<path d="M50.5 85.8998V92.1998H55.9L48.7 102.1V95.7998H43.3L50.5 85.8998Z" fill="#FEA623" stroke="#FEA623" stroke-width="1.8" stroke-linecap="round" stroke-linejoin="round"/>
<path d="M66.7771 99C66.5503 99 66.3721 98.9352 66.2425 98.8056C66.1129 98.676 66.0481 98.5032 66.0481 98.2872C66.0481 98.0604 66.1129 97.8876 66.2425 97.7688C66.3721 97.65 66.5503 97.5906 66.7771 97.5906H68.7535V88.9722H69.5959L67.2307 90.4788C67.0579 90.576 66.8959 90.6138 66.7447 90.5922C66.6043 90.5706 66.4801 90.5112 66.3721 90.414C66.2749 90.3168 66.2047 90.198 66.1615 90.0576C66.1291 89.9172 66.1399 89.7714 66.1939 89.6202C66.2587 89.469 66.3721 89.3448 66.5341 89.2476L68.7697 87.8382C68.9533 87.7302 69.1261 87.6438 69.2881 87.579C69.4609 87.5034 69.6229 87.4656 69.7741 87.4656C69.9577 87.4656 70.1089 87.5196 70.2277 87.6276C70.3573 87.7248 70.4221 87.8922 70.4221 88.1298V97.5906H72.2365C72.4741 97.5906 72.6577 97.65 72.7873 97.7688C72.9169 97.8876 72.9817 98.0604 72.9817 98.2872C72.9817 98.514 72.9169 98.6922 72.7873 98.8218C72.6577 98.9406 72.4741 99 72.2365 99H66.7771ZM78.8802 99.1458C77.5518 99.1458 76.5366 98.6436 75.8346 97.6392C75.1434 96.624 74.7978 95.1714 74.7978 93.2814C74.7978 91.9962 74.9544 90.9216 75.2676 90.0576C75.5808 89.1936 76.0398 88.5402 76.6446 88.0974C77.2494 87.6546 77.9946 87.4332 78.8802 87.4332C80.2194 87.4332 81.2346 87.93 81.9258 88.9236C82.617 89.9064 82.9626 91.3536 82.9626 93.2652C82.9626 94.5288 82.806 95.598 82.4928 96.4728C82.1796 97.3476 81.7206 98.0118 81.1158 98.4654C80.511 98.919 79.7658 99.1458 78.8802 99.1458ZM78.8802 97.7526C79.7118 97.7526 80.322 97.3908 80.7108 96.6672C81.1104 95.9328 81.3102 94.7988 81.3102 93.2652C81.3102 91.7208 81.1104 90.5976 80.7108 89.8956C80.322 89.1828 79.7118 88.8264 78.8802 88.8264C78.0594 88.8264 77.4492 89.1828 77.0496 89.8956C76.65 90.5976 76.4502 91.7208 76.4502 93.2652C76.4502 94.7988 76.65 95.9328 77.0496 96.6672C77.4492 97.3908 78.0594 97.7526 78.8802 97.7526Z" fill="#252937"/>
</g>
<defs>
<filter id="filter0_ddd_3596_4524" x="0.200001" y="0.6" width="122.4" height="129.6" filterUnits="userSpaceOnUse" color-interpolation-filters="sRGB">
<feFlood flood-opacity="0" result="BackgroundImageFix"/>
<feColorMatrix in="SourceAlpha" type="matrix" values="0 0 0 0 0 0 0 0 0 0 0 0 0 0 0 0 0 0 127 0" result="hardAlpha"/>
<feOffset dy="5.4"/>
<feGaussianBlur stdDeviation="5.4"/>
<feComposite in2="hardAlpha" operator="out"/>
<feColorMatrix type="matrix" values="0 0 0 0 0.306667 0 0 0 0 0.160498 0 0 0 0 0.0766667 0 0 0 0.06 0"/>
<feBlend mode="normal" in2="BackgroundImageFix" result="effect1_dropShadow_3596_4524"/>
<feColorMatrix in="SourceAlpha" type="matrix" values="0 0 0 0 0 0 0 0 0 0 0 0 0 0 0 0 0 0 127 0" result="hardAlpha"/>
<feOffset dy="-0.9"/>
<feGaussianBlur stdDeviation="0.9"/>
<feComposite in2="hardAlpha" operator="out"/>
<feColorMatrix type="matrix" values="0 0 0 0 0.305882 0 0 0 0 0.160784 0 0 0 0 0.0784314 0 0 0 0.04 0"/>
<feBlend mode="normal" in2="effect1_dropShadow_3596_4524" result="effect2_dropShadow_3596_4524"/>
<feColorMatrix in="SourceAlpha" type="matrix" values="0 0 0 0 0 0 0 0 0 0 0 0 0 0 0 0 0 0 127 0" result="hardAlpha"/>
<feOffset dy="1.8"/>
<feGaussianBlur stdDeviation="1.8"/>
<feComposite in2="hardAlpha" operator="out"/>
<feColorMatrix type="matrix" values="0 0 0 0 0.458009 0 0 0 0 0.169264 0 0 0 0 0.00199134 0 0 0 0.06 0"/>
<feBlend mode="normal" in2="effect2_dropShadow_3596_4524" result="effect3_dropShadow_3596_4524"/>
<feBlend mode="normal" in="SourceGraphic" in2="effect3_dropShadow_3596_4524" result="shape"/>
</filter>
</defs>
</svg>
