<svg width="124" height="131" viewBox="0 0 124 131" fill="none" xmlns="http://www.w3.org/2000/svg">
<g filter="url(#filter0_ddd_3596_4536)">
<rect x="11.6" y="6" width="100.8" height="108" rx="7.2" fill="white" shape-rendering="crispEdges"/>
<path d="M38.6381 60.6872C42.8884 62.3621 50.9911 58.2661 59.254 51.8649C61.5367 50.096 61.6639 43.7225 59.337 42.3572C55.0922 39.8697 40.9484 32.7887 37.0961 34.049C31.1158 36.0224 32.376 58.2218 38.6381 60.6872Z" fill="#FC2222"/>
<path opacity="0.53" d="M58.7124 47.2327C56.9272 48.5704 53.6054 51.5001 50.9358 51.4946C47.603 51.4946 47.0503 45.5191 50.3444 44.1372C52.9311 43.0537 56.988 46.1437 58.7124 47.2327Z" fill="#560202"/>
<path d="M84.3137 61.0852C80.0358 62.6883 72.0049 58.454 63.8525 51.9036C61.603 50.096 61.5864 43.7225 63.9354 42.3959C68.2189 39.9858 83.6891 34.0821 87.5194 35.4143C93.472 37.4872 90.6145 58.7304 84.3137 61.0852Z" fill="#FC2222"/>
<path opacity="0.53" d="M64.4771 47.2824C66.2347 48.6533 69.5067 51.6383 72.1763 51.6825C75.5091 51.7378 76.1668 45.7733 72.8948 44.3361C70.3358 43.2029 66.2181 46.2211 64.4771 47.2824Z" fill="#560202"/>
<path d="M66.3618 46.9507C66.3895 44.0321 64.2615 41.6441 61.6196 41.622C58.9722 41.5999 56.8111 43.9492 56.7834 46.8678C56.7558 49.7865 58.8837 52.1745 61.5257 52.1966C64.1731 52.2187 66.3342 49.8694 66.3618 46.9507Z" fill="#FC2222"/>
<path d="M51.1 85.8998V92.1998H56.5L49.3 102.1V95.7998H43.9L51.1 85.8998Z" fill="#FEA623" stroke="#FEA623" stroke-width="1.8" stroke-linecap="round" stroke-linejoin="round"/>
<path d="M67.3771 99C67.1503 99 66.9721 98.9352 66.8425 98.8056C66.7129 98.676 66.6481 98.5032 66.6481 98.2872C66.6481 98.0604 66.7129 97.8876 66.8425 97.7688C66.9721 97.65 67.1503 97.5906 67.3771 97.5906H69.3535V88.9722H70.1959L67.8307 90.4788C67.6579 90.576 67.4959 90.6138 67.3447 90.5922C67.2043 90.5706 67.0801 90.5112 66.9721 90.414C66.8749 90.3168 66.8047 90.198 66.7615 90.0576C66.7291 89.9172 66.7399 89.7714 66.7939 89.6202C66.8587 89.469 66.9721 89.3448 67.1341 89.2476L69.3697 87.8382C69.5533 87.7302 69.7261 87.6438 69.8881 87.579C70.0609 87.5034 70.2229 87.4656 70.3741 87.4656C70.5577 87.4656 70.7089 87.5196 70.8277 87.6276C70.9573 87.7248 71.0221 87.8922 71.0221 88.1298V97.5906H72.8365C73.0741 97.5906 73.2577 97.65 73.3873 97.7688C73.5169 97.8876 73.5817 98.0604 73.5817 98.2872C73.5817 98.514 73.5169 98.6922 73.3873 98.8218C73.2577 98.9406 73.0741 99 72.8365 99H67.3771ZM79.4802 99.1458C78.1518 99.1458 77.1366 98.6436 76.4346 97.6392C75.7434 96.624 75.3978 95.1714 75.3978 93.2814C75.3978 91.9962 75.5544 90.9216 75.8676 90.0576C76.1808 89.1936 76.6398 88.5402 77.2446 88.0974C77.8494 87.6546 78.5946 87.4332 79.4802 87.4332C80.8194 87.4332 81.8346 87.93 82.5258 88.9236C83.217 89.9064 83.5626 91.3536 83.5626 93.2652C83.5626 94.5288 83.406 95.598 83.0928 96.4728C82.7796 97.3476 82.3206 98.0118 81.7158 98.4654C81.111 98.919 80.3658 99.1458 79.4802 99.1458ZM79.4802 97.7526C80.3118 97.7526 80.922 97.3908 81.3108 96.6672C81.7104 95.9328 81.9102 94.7988 81.9102 93.2652C81.9102 91.7208 81.7104 90.5976 81.3108 89.8956C80.922 89.1828 80.3118 88.8264 79.4802 88.8264C78.6594 88.8264 78.0492 89.1828 77.6496 89.8956C77.25 90.5976 77.0502 91.7208 77.0502 93.2652C77.0502 94.7988 77.25 95.9328 77.6496 96.6672C78.0492 97.3908 78.6594 97.7526 79.4802 97.7526Z" fill="#252937"/>
</g>
<defs>
<filter id="filter0_ddd_3596_4536" x="0.799976" y="0.6" width="122.4" height="129.6" filterUnits="userSpaceOnUse" color-interpolation-filters="sRGB">
<feFlood flood-opacity="0" result="BackgroundImageFix"/>
<feColorMatrix in="SourceAlpha" type="matrix" values="0 0 0 0 0 0 0 0 0 0 0 0 0 0 0 0 0 0 127 0" result="hardAlpha"/>
<feOffset dy="5.4"/>
<feGaussianBlur stdDeviation="5.4"/>
<feComposite in2="hardAlpha" operator="out"/>
<feColorMatrix type="matrix" values="0 0 0 0 0.306667 0 0 0 0 0.160498 0 0 0 0 0.0766667 0 0 0 0.06 0"/>
<feBlend mode="normal" in2="BackgroundImageFix" result="effect1_dropShadow_3596_4536"/>
<feColorMatrix in="SourceAlpha" type="matrix" values="0 0 0 0 0 0 0 0 0 0 0 0 0 0 0 0 0 0 127 0" result="hardAlpha"/>
<feOffset dy="-0.9"/>
<feGaussianBlur stdDeviation="0.9"/>
<feComposite in2="hardAlpha" operator="out"/>
<feColorMatrix type="matrix" values="0 0 0 0 0.305882 0 0 0 0 0.160784 0 0 0 0 0.0784314 0 0 0 0.04 0"/>
<feBlend mode="normal" in2="effect1_dropShadow_3596_4536" result="effect2_dropShadow_3596_4536"/>
<feColorMatrix in="SourceAlpha" type="matrix" values="0 0 0 0 0 0 0 0 0 0 0 0 0 0 0 0 0 0 127 0" result="hardAlpha"/>
<feOffset dy="1.8"/>
<feGaussianBlur stdDeviation="1.8"/>
<feComposite in2="hardAlpha" operator="out"/>
<feColorMatrix type="matrix" values="0 0 0 0 0.458009 0 0 0 0 0.169264 0 0 0 0 0.00199134 0 0 0 0.06 0"/>
<feBlend mode="normal" in2="effect2_dropShadow_3596_4536" result="effect3_dropShadow_3596_4536"/>
<feBlend mode="normal" in="SourceGraphic" in2="effect3_dropShadow_3596_4536" result="shape"/>
</filter>
</defs>
</svg>
