<svg width="123" height="131" viewBox="0 0 123 131" fill="none" xmlns="http://www.w3.org/2000/svg">
<g filter="url(#filter0_ddd_3596_4548)">
<rect x="11.2" y="6" width="100.8" height="108" rx="7.2" fill="white" shape-rendering="crispEdges"/>
<path d="M79.4685 44.6248C73.6122 47.3686 65.0913 51.4319 61.7142 52.2785C58.3378 51.4319 51.0582 47.8731 43.8827 44.6248C33.7363 48.5091 28.1145 58.939 31.144 67.1069C31.5171 68.1118 32.1709 69.0762 33.0143 69.9993C35.6369 69.8224 37.3175 70.3104 37.8727 70.784C39.3774 72.0664 39.6753 74.0832 39.8663 74.7165C42.2793 74.0653 44.3434 74.1032 45.7619 74.5176C47.2136 74.9416 48.2983 76.2522 49.6645 78.044C49.6948 78.0509 54.2105 76.5916 56.0593 76.7802C57.3841 76.9151 61.0046 78.7874 61.7142 79.4C62.4238 78.7874 66.0443 76.9151 67.3691 76.7802C69.218 76.5916 73.7329 78.0509 73.7633 78.044C75.1294 76.2522 76.2142 74.9416 77.6658 74.5176C79.0844 74.1025 81.1484 74.0646 83.5614 74.7165C83.7531 74.0832 84.0503 72.0664 85.5551 70.784C86.1109 70.3104 87.7908 69.8224 90.4135 69.9993C91.2562 69.0762 91.9106 68.1118 92.2837 67.1069C95.3146 58.939 89.6156 48.5091 79.4685 44.6248Z" fill="#D10000"/>
<path opacity="0.16" d="M79.4682 44.6248C73.612 47.3741 65.0911 51.4456 61.714 52.2939C58.3377 51.4456 51.0581 47.8797 43.8826 44.6248C33.7363 48.517 28.1145 58.9678 31.144 67.1521C31.484 68.0709 32.0667 68.9537 32.8053 69.8042C34.2969 63.4228 38.7512 56.7441 45.2205 56.9489C52.6111 57.1835 58.4259 60.0665 61.7133 63.071C64.8821 62.2226 72.3072 58.0298 78.3745 57.7946C84.8548 57.5442 89.1015 63.4117 90.6076 69.8221C91.353 68.9661 91.9413 68.0778 92.284 67.1521C95.3142 58.9678 89.6152 48.517 79.4682 44.6248Z" fill="#2C0B07"/>
<path d="M89.3544 56.5707C86.1811 51.7848 82.1802 48.8406 76.306 46.6914C77.6956 46.054 77.7352 45.0031 79.1476 44.3665C89.7388 47.983 95.3137 58.9221 92.2752 67.0804C91.9011 68.0842 91.2447 69.0474 90.3995 69.9694C92.1203 65.5733 91.7662 60.2085 89.3544 56.5707Z" fill="#3A3A3A"/>
<path d="M34.0673 56.5707C37.2406 51.7848 41.7581 48.4531 47.6323 46.3039C46.2427 45.6665 46.0739 44.7448 44.6616 44.1082C34.3287 47.5955 27.3541 58.9617 31.1465 67.0804C31.5207 68.0842 32.177 69.0474 33.0222 69.9694C31.3007 65.574 31.6548 60.2085 34.0673 56.5707Z" fill="#3A3A3A"/>
<path opacity="0.15" d="M83.6318 74.6847C83.5459 73.2044 83.1062 69.2002 82.9038 68.3238C82.4258 66.2539 81.9307 63.9144 80.2773 61.2756C83.3314 64.442 84.6254 70.2739 83.6318 74.6847Z" fill="black"/>
<path opacity="0.15" d="M73.7332 78.0738C73.5558 75.3683 73.1649 73.1175 72.9861 72.0848C72.5682 69.6686 71.6784 65.298 71.7331 65.4034C73.1192 68.0834 74.4692 73.9622 73.7332 78.0738Z" fill="black"/>
<path opacity="0.15" d="M39.9244 74.6847C40.0069 73.205 40.4289 69.1999 40.6232 68.3235C41.082 66.2535 41.5572 63.9138 43.1444 61.2756C40.2121 64.4415 38.9699 70.2737 39.9244 74.6847Z" fill="black"/>
<path opacity="0.15" d="M49.6881 78.2212C49.8656 75.4842 50.2565 73.2072 50.4353 72.1625C50.8533 69.7183 51.7432 65.2967 51.6885 65.4034C50.3022 68.1146 48.9528 74.0617 49.6881 78.2212Z" fill="black"/>
<path d="M63.9272 27.5353C72.2029 26.8947 85.8039 26.1567 93.097 29.3393C87.8716 32.1826 79.0489 49.2807 63.5874 52.4228L63.9272 27.5353Z" fill="#C10F0F"/>
<path d="M60.2683 27.5353C51.9925 26.8947 38.3916 26.1567 31.0997 29.3393C36.3251 32.1826 45.1478 49.2807 60.6093 52.4228L60.2683 27.5353Z" fill="#C10F0F"/>
<path d="M61.4214 53.235C63.3698 48.4393 69.7634 47.8661 75.5297 44.6673C81.8075 41.185 86.996 32.5653 93.0969 29.4108C89.4012 32.0098 82.6652 41.4937 77.8267 45.5986C71.7602 50.7461 64.561 51.9102 61.4214 53.235Z" fill="#3A3A3A"/>
<path d="M62.2337 53.235C60.2876 48.4365 54.3908 47.8756 48.6351 44.6762C42.3686 41.1919 37.1896 32.5672 31.0997 29.4108C34.7887 32.0113 41.5124 41.5008 46.3422 45.608C52.3964 50.7585 59.3133 51.6005 62.2337 53.235Z" fill="#3A3A3A"/>
<path d="M50.7 85.8998V92.1998H56.1L48.9 102.1V95.7998H43.5L50.7 85.8998Z" fill="#FEA623" stroke="#FEA623" stroke-width="1.8" stroke-linecap="round" stroke-linejoin="round"/>
<path d="M66.9771 99C66.7503 99 66.5721 98.9352 66.4425 98.8056C66.3129 98.676 66.2481 98.5032 66.2481 98.2872C66.2481 98.0604 66.3129 97.8876 66.4425 97.7688C66.5721 97.65 66.7503 97.5906 66.9771 97.5906H68.9535V88.9722H69.7959L67.4307 90.4788C67.2579 90.576 67.0959 90.6138 66.9447 90.5922C66.8043 90.5706 66.6801 90.5112 66.5721 90.414C66.4749 90.3168 66.4047 90.198 66.3615 90.0576C66.3291 89.9172 66.3399 89.7714 66.3939 89.6202C66.4587 89.469 66.5721 89.3448 66.7341 89.2476L68.9697 87.8382C69.1533 87.7302 69.3261 87.6438 69.4881 87.579C69.6609 87.5034 69.8229 87.4656 69.9741 87.4656C70.1577 87.4656 70.3089 87.5196 70.4277 87.6276C70.5573 87.7248 70.6221 87.8922 70.6221 88.1298V97.5906H72.4365C72.6741 97.5906 72.8577 97.65 72.9873 97.7688C73.1169 97.8876 73.1817 98.0604 73.1817 98.2872C73.1817 98.514 73.1169 98.6922 72.9873 98.8218C72.8577 98.9406 72.6741 99 72.4365 99H66.9771ZM79.0803 99.1458C77.7519 99.1458 76.7367 98.6436 76.0347 97.6392C75.3435 96.624 74.9979 95.1714 74.9979 93.2814C74.9979 91.9962 75.1545 90.9216 75.4677 90.0576C75.7809 89.1936 76.2399 88.5402 76.8447 88.0974C77.4495 87.6546 78.1947 87.4332 79.0803 87.4332C80.4195 87.4332 81.4347 87.93 82.1259 88.9236C82.8171 89.9064 83.1627 91.3536 83.1627 93.2652C83.1627 94.5288 83.0061 95.598 82.6929 96.4728C82.3797 97.3476 81.9207 98.0118 81.3159 98.4654C80.7111 98.919 79.9659 99.1458 79.0803 99.1458ZM79.0803 97.7526C79.9119 97.7526 80.5221 97.3908 80.9109 96.6672C81.3105 95.9328 81.5103 94.7988 81.5103 93.2652C81.5103 91.7208 81.3105 90.5976 80.9109 89.8956C80.5221 89.1828 79.9119 88.8264 79.0803 88.8264C78.2595 88.8264 77.6493 89.1828 77.2497 89.8956C76.8501 90.5976 76.6503 91.7208 76.6503 93.2652C76.6503 94.7988 76.8501 95.9328 77.2497 96.6672C77.6493 97.3908 78.2595 97.7526 79.0803 97.7526Z" fill="#252937"/>
</g>
<defs>
<filter id="filter0_ddd_3596_4548" x="0.399982" y="0.6" width="122.4" height="129.6" filterUnits="userSpaceOnUse" color-interpolation-filters="sRGB">
<feFlood flood-opacity="0" result="BackgroundImageFix"/>
<feColorMatrix in="SourceAlpha" type="matrix" values="0 0 0 0 0 0 0 0 0 0 0 0 0 0 0 0 0 0 127 0" result="hardAlpha"/>
<feOffset dy="5.4"/>
<feGaussianBlur stdDeviation="5.4"/>
<feComposite in2="hardAlpha" operator="out"/>
<feColorMatrix type="matrix" values="0 0 0 0 0.306667 0 0 0 0 0.160498 0 0 0 0 0.0766667 0 0 0 0.06 0"/>
<feBlend mode="normal" in2="BackgroundImageFix" result="effect1_dropShadow_3596_4548"/>
<feColorMatrix in="SourceAlpha" type="matrix" values="0 0 0 0 0 0 0 0 0 0 0 0 0 0 0 0 0 0 127 0" result="hardAlpha"/>
<feOffset dy="-0.9"/>
<feGaussianBlur stdDeviation="0.9"/>
<feComposite in2="hardAlpha" operator="out"/>
<feColorMatrix type="matrix" values="0 0 0 0 0.305882 0 0 0 0 0.160784 0 0 0 0 0.0784314 0 0 0 0.04 0"/>
<feBlend mode="normal" in2="effect1_dropShadow_3596_4548" result="effect2_dropShadow_3596_4548"/>
<feColorMatrix in="SourceAlpha" type="matrix" values="0 0 0 0 0 0 0 0 0 0 0 0 0 0 0 0 0 0 127 0" result="hardAlpha"/>
<feOffset dy="1.8"/>
<feGaussianBlur stdDeviation="1.8"/>
<feComposite in2="hardAlpha" operator="out"/>
<feColorMatrix type="matrix" values="0 0 0 0 0.458009 0 0 0 0 0.169264 0 0 0 0 0.00199134 0 0 0 0.06 0"/>
<feBlend mode="normal" in2="effect2_dropShadow_3596_4548" result="effect3_dropShadow_3596_4548"/>
<feBlend mode="normal" in="SourceGraphic" in2="effect3_dropShadow_3596_4548" result="shape"/>
</filter>
</defs>
</svg>
