<svg width="123" height="130" viewBox="0 0 123 130" fill="none" xmlns="http://www.w3.org/2000/svg">
<g filter="url(#filter0_ddd_3596_4569)">
<rect x="11" y="5.40002" width="100.8" height="108" rx="7.2" fill="white" shape-rendering="crispEdges"/>
<path d="M30.7207 69.1282C30.2914 69.1282 29.9299 68.7412 29.9014 68.2404C29.8751 67.7169 30.2191 67.2692 30.6681 67.2363C34.7141 66.9454 43.4501 65.4708 47.5749 61.9652C47.9385 61.6566 48.4555 61.7426 48.7205 62.165C48.99 62.5874 48.9133 63.1793 48.5475 63.4879C44.116 67.2565 34.9835 68.8222 30.7711 69.1231L30.7207 69.1282Z" fill="#252937"/>
<path fill-rule="evenodd" clip-rule="evenodd" d="M54.1024 59.9764C54.342 60.1336 54.6598 60.2057 54.9691 60.1974C55.2752 60.1892 55.5759 60.1025 55.8037 59.9415C60.3683 56.7419 64.4299 52.1889 68.7313 47.367L68.7445 47.3522L68.7487 47.3475C74.7424 40.6299 81.5942 32.9505 91.7426 26.7319C92.2628 25.3829 92.0687 25.0061 90.4533 25.3255C79.9066 31.7174 72.8552 39.6226 66.6913 46.5328C62.4633 51.2752 58.4636 55.754 54.0907 58.8229C53.6224 59.1518 53.6265 59.6664 54.1024 59.9764Z" fill="#252937"/>
<path d="M73.5913 55.5358C73.5913 63.0434 67.5122 69.1283 60.0117 69.1283C52.513 69.1283 46.4322 63.0434 46.4322 55.5358C46.4322 48.0281 56.2789 44.0238 63.7794 44.0238C71.2799 44.0238 73.5913 48.0281 73.5913 55.5358Z" fill="#383243"/>
<path d="M50.5 85.2999V91.5999H55.9L48.7 101.5V95.1999H43.3L50.5 85.2999Z" fill="#FEA623" stroke="#FEA623" stroke-width="1.8" stroke-linecap="round" stroke-linejoin="round"/>
<path d="M66.777 98.4C66.5502 98.4 66.372 98.3352 66.2424 98.2056C66.1128 98.076 66.048 97.9032 66.048 97.6872C66.048 97.4604 66.1128 97.2876 66.2424 97.1688C66.372 97.05 66.5502 96.9906 66.777 96.9906H68.7534V88.3722H69.5958L67.2306 89.8788C67.0578 89.976 66.8958 90.0138 66.7446 89.9922C66.6042 89.9706 66.48 89.9112 66.372 89.814C66.2748 89.7168 66.2046 89.598 66.1614 89.4576C66.129 89.3172 66.1398 89.1714 66.1938 89.0202C66.2586 88.869 66.372 88.7448 66.534 88.6476L68.7696 87.2382C68.9532 87.1302 69.126 87.0438 69.288 86.979C69.4608 86.9034 69.6228 86.8656 69.774 86.8656C69.9576 86.8656 70.1088 86.9196 70.2276 87.0276C70.3572 87.1248 70.422 87.2922 70.422 87.5298V96.9906H72.2364C72.474 96.9906 72.6576 97.05 72.7872 97.1688C72.9168 97.2876 72.9816 97.4604 72.9816 97.6872C72.9816 97.914 72.9168 98.0922 72.7872 98.2218C72.6576 98.3406 72.474 98.4 72.2364 98.4H66.777ZM78.8802 98.5458C77.5518 98.5458 76.5366 98.0436 75.8346 97.0392C75.1434 96.024 74.7978 94.5714 74.7978 92.6814C74.7978 91.3962 74.9544 90.3216 75.2676 89.4576C75.5808 88.5936 76.0398 87.9402 76.6446 87.4974C77.2494 87.0546 77.9946 86.8332 78.8802 86.8332C80.2194 86.8332 81.2346 87.33 81.9258 88.3236C82.617 89.3064 82.9626 90.7536 82.9626 92.6652C82.9626 93.9288 82.806 94.998 82.4928 95.8728C82.1796 96.7476 81.7206 97.4118 81.1158 97.8654C80.511 98.319 79.7658 98.5458 78.8802 98.5458ZM78.8802 97.1526C79.7118 97.1526 80.322 96.7908 80.7108 96.0672C81.1104 95.3328 81.3102 94.1988 81.3102 92.6652C81.3102 91.1208 81.1104 89.9976 80.7108 89.2956C80.322 88.5828 79.7118 88.2264 78.8802 88.2264C78.0594 88.2264 77.4492 88.5828 77.0496 89.2956C76.65 89.9976 76.4502 91.1208 76.4502 92.6652C76.4502 94.1988 76.65 95.3328 77.0496 96.0672C77.4492 96.7908 78.0594 97.1526 78.8802 97.1526Z" fill="#252937"/>
</g>
<defs>
<filter id="filter0_ddd_3596_4569" x="0.19997" y="2.47955e-05" width="122.4" height="129.6" filterUnits="userSpaceOnUse" color-interpolation-filters="sRGB">
<feFlood flood-opacity="0" result="BackgroundImageFix"/>
<feColorMatrix in="SourceAlpha" type="matrix" values="0 0 0 0 0 0 0 0 0 0 0 0 0 0 0 0 0 0 127 0" result="hardAlpha"/>
<feOffset dy="5.4"/>
<feGaussianBlur stdDeviation="5.4"/>
<feComposite in2="hardAlpha" operator="out"/>
<feColorMatrix type="matrix" values="0 0 0 0 0.306667 0 0 0 0 0.160498 0 0 0 0 0.0766667 0 0 0 0.06 0"/>
<feBlend mode="normal" in2="BackgroundImageFix" result="effect1_dropShadow_3596_4569"/>
<feColorMatrix in="SourceAlpha" type="matrix" values="0 0 0 0 0 0 0 0 0 0 0 0 0 0 0 0 0 0 127 0" result="hardAlpha"/>
<feOffset dy="-0.9"/>
<feGaussianBlur stdDeviation="0.9"/>
<feComposite in2="hardAlpha" operator="out"/>
<feColorMatrix type="matrix" values="0 0 0 0 0.305882 0 0 0 0 0.160784 0 0 0 0 0.0784314 0 0 0 0.04 0"/>
<feBlend mode="normal" in2="effect1_dropShadow_3596_4569" result="effect2_dropShadow_3596_4569"/>
<feColorMatrix in="SourceAlpha" type="matrix" values="0 0 0 0 0 0 0 0 0 0 0 0 0 0 0 0 0 0 127 0" result="hardAlpha"/>
<feOffset dy="1.8"/>
<feGaussianBlur stdDeviation="1.8"/>
<feComposite in2="hardAlpha" operator="out"/>
<feColorMatrix type="matrix" values="0 0 0 0 0.458009 0 0 0 0 0.169264 0 0 0 0 0.00199134 0 0 0 0.06 0"/>
<feBlend mode="normal" in2="effect2_dropShadow_3596_4569" result="effect3_dropShadow_3596_4569"/>
<feBlend mode="normal" in="SourceGraphic" in2="effect3_dropShadow_3596_4569" result="shape"/>
</filter>
</defs>
</svg>
