<svg width="124" height="130" viewBox="0 0 124 130" fill="none" xmlns="http://www.w3.org/2000/svg">
<g filter="url(#filter0_ddd_3596_4579)">
<rect x="11.6" y="5.40002" width="100.8" height="108" rx="7.2" fill="white" shape-rendering="crispEdges"/>
<path d="M41.4227 36.8883C41.4227 36.8883 30.9119 41.0895 31.9627 42.3925C33.0136 43.6955 35.9051 42.8276 35.9051 42.8276C35.9051 42.8276 32.3577 44.7106 32.882 46.1586C33.4085 47.6066 36.5611 47.8967 36.5611 47.8967C36.5611 47.8967 33.4085 49.0546 33.5379 52.9658C33.5379 52.9658 30.2537 51.2277 30.5147 53.1108C30.778 54.9939 33.6673 56.2968 33.0114 56.5869C32.3554 56.8769 30.2515 61.511 31.1729 61.801C32.0922 62.0911 35.247 58.76 35.247 58.76C35.247 58.76 33.6696 63.2512 34.591 64.2642C35.5102 65.2771 37.6142 62.9612 37.6142 62.9612C37.6142 62.9612 36.4317 66.7273 38.9283 69.3355C41.425 71.9437 44.4593 71.2163 44.4593 71.2163C44.4593 71.2163 46.0233 76.8655 50.0973 77.5907C54.1714 78.3158 61.9045 75.7901 61.9045 75.7901C61.9045 75.7901 62.8661 80.2881 67.2569 78.2868C71.6478 76.2854 75.5813 72.2159 75.5813 72.2159C75.5813 72.2159 75.8535 76.5755 77.9552 74.1123C80.0569 71.6492 79.1377 67.4502 79.1377 67.4502C79.1377 67.4502 83.7985 72.0062 84.8851 69.8732C85.9716 67.7403 84.6575 61.801 84.6575 61.801C84.6575 61.801 88.4683 66.2923 88.4683 64.4092C88.4683 62.5261 86.2349 59.6301 86.2349 59.6301C86.2349 59.6301 89.914 62.6712 91.0965 59.7752C92.279 56.8792 89.2581 50.6499 89.2581 50.6499C89.2581 50.6499 92.9372 54.561 93.4637 52.823C93.9903 51.0849 88.6021 47.8989 88.6021 47.8989C88.6021 47.8989 90.0479 44.4228 87.6829 42.5398C87.6829 42.5398 93.727 45.4358 92.6762 42.6848C91.6253 39.9316 70.6014 35.4426 70.6014 35.4426L41.4227 36.8883Z" fill="#E5F7FB"/>
<path opacity="0.29" d="M39.35 38.571C39.35 38.571 39.0287 38.6803 38.5691 38.8543C37.3018 39.334 34.9792 40.3001 35.4678 40.7887C36.1327 41.4536 37.7971 40.9002 37.7971 40.9002C37.7971 40.9002 36.0234 41.0118 36.6882 43.8944C36.6882 43.8944 34.0265 44.6708 34.9145 45.7797C35.8025 46.8886 37.6856 45.7797 37.6856 45.7797C37.6856 45.7797 35.9118 48.2183 36.7976 51.8774C36.7976 51.8774 34.0265 53.0978 34.4683 54.4275C34.9123 55.7573 36.686 54.6484 36.686 54.6484C36.686 54.6484 34.6892 57.531 35.9096 58.5283C37.13 59.5256 37.6833 57.7519 37.6833 57.7519C37.6833 57.7519 35.798 60.9669 39.9011 64.2935C44.0041 67.6201 79.8159 64.7375 81.8128 60.7461C81.8128 60.7461 81.4803 63.9611 83.0332 64.2935C84.5861 64.626 83.9212 56.9755 83.9212 56.9755C83.9212 56.9755 86.5829 59.0816 87.2478 57.9728C87.9127 56.8639 86.0274 54.4253 86.0274 54.4253C86.0274 54.4253 89.1309 56.0875 89.1309 54.9786C89.1309 53.8697 87.3571 52.8724 87.3571 52.8724C87.3571 52.8724 88.466 51.2102 87.1362 49.9898C85.8065 48.7694 83.9212 47.1072 83.9212 47.1072C83.9212 47.1072 86.6923 48.1045 86.3598 46.9957C86.0274 45.8868 84.8069 45.3335 84.8069 45.3335C84.8069 45.3335 87.2456 46.5539 86.8038 44.4455C86.3598 42.3393 79.4857 38.3478 79.4857 38.3478" fill="#005BC6"/>
<path d="M72.757 55.4582L72.7569 55.4582C72.4634 55.5197 72.2142 55.4033 71.9951 55.1688C71.7733 54.9314 71.5933 54.5828 71.4521 54.2146C71.3115 53.8483 71.2126 53.4718 71.1488 53.186C71.117 53.0433 71.094 52.9237 71.079 52.84C71.0715 52.7982 71.066 52.7653 71.0624 52.743L71.0584 52.7178L71.0574 52.7115L71.0572 52.71L71.0572 52.7096L71.0572 52.7096L71.0419 52.6056L70.9373 52.6146L70.9468 52.7257C70.9373 52.6146 70.9372 52.6146 70.9371 52.6146L70.9367 52.6146L70.935 52.6148L70.9281 52.6154L70.901 52.6177L70.7947 52.6266C70.7014 52.6343 70.5641 52.6456 70.3884 52.6596C70.0368 52.6877 69.5314 52.7269 68.9156 52.7714C67.6842 52.8606 66.012 52.971 64.2491 53.0564C62.486 53.1418 60.6333 53.2021 59.0403 53.191C57.4425 53.1799 56.1201 53.0968 55.4086 52.9008L55.29 52.8681L55.2691 52.9893L55.379 53.0083L55.2691 52.9893L55.2691 52.9894L55.269 52.9898L55.2686 52.9917L55.2673 52.9995L55.2616 53.0303C55.2566 53.0573 55.249 53.0972 55.2388 53.1477C55.2184 53.2489 55.1877 53.3931 55.1465 53.5643C55.064 53.9073 54.94 54.3566 54.7734 54.7863C54.6058 55.2186 54.3994 55.6197 54.157 55.8752C54.0366 56.0021 53.9121 56.0879 53.7844 56.1274C53.6592 56.1661 53.5233 56.1627 53.3718 56.0985C53.2243 56.0361 53.0761 55.9002 52.9302 55.694C52.7852 55.4891 52.6488 55.2238 52.5217 54.9165C52.2676 54.3019 52.0566 53.5335 51.8881 52.7789C51.7198 52.0251 51.5949 51.2893 51.512 50.7415C51.4706 50.4677 51.4397 50.2412 51.4192 50.0832C51.4115 50.0238 51.4052 49.9741 51.4005 49.9353C51.425 49.9297 51.454 49.9232 51.4874 49.9158C51.6085 49.8889 51.7873 49.8499 52.0175 49.8015C52.478 49.7049 53.1441 49.571 53.9663 49.4222C55.6107 49.1247 57.8786 48.7679 60.3725 48.5305C62.8669 48.2931 65.5851 48.1755 68.1308 48.3555C70.6456 48.5332 72.983 49.0009 74.7694 49.9233C74.7638 49.9617 74.7561 50.0136 74.7463 50.0774C74.7236 50.2255 74.6895 50.4375 74.6444 50.6929C74.5542 51.2039 74.4197 51.8874 74.2426 52.5792C74.0653 53.2721 73.8464 53.9683 73.5888 54.5069C73.4599 54.7764 73.3234 55.0019 73.1806 55.1671C73.0372 55.3332 72.8953 55.4294 72.757 55.4582Z" fill="#FBF8EC" stroke="#BFC1CF" stroke-width="0.223112"/>
<path opacity="0.28" d="M51.2775 50.7463C51.2775 50.7463 51.5439 53.0891 52.0981 54.9388C53.6095 54.4849 55.8529 53.7057 56.8887 52.8281L70.4291 52.6855C70.4291 52.6855 72.1619 54.2372 74.0045 54.6623C74.5863 52.9865 74.8907 50.7541 74.8907 50.7541C67.6311 46.9264 51.2775 50.7463 51.2775 50.7463Z" fill="#3F2436"/>
<path d="M49.9649 20.5639C49.9649 20.5639 47.8817 16.8405 46.7327 15.7402C46.7327 15.7402 46.125 13.551 45.68 13.7857C45.235 14.0204 45.456 15.2189 45.456 15.2189C45.456 15.2189 44.2715 12.9021 43.69 13.6219C43.1085 14.3417 43.9264 15.8513 43.9264 15.8513C43.9264 15.8513 42.8892 14.9276 42.3904 15.5445C41.8917 16.1615 42.8551 17.2798 42.8551 17.2798C42.8551 17.2798 41.3102 16.8792 41.5739 17.6036C41.8376 18.326 42.8057 18.6011 42.8057 18.6011C42.6197 20.4055 43.9655 21.5775 43.9655 21.5775L49.9649 20.5639Z" fill="#FBF8EC"/>
<path d="M71.6104 19.6456C71.6104 19.6456 73.4959 15.8172 74.5857 14.6595C74.5857 14.6595 75.0773 12.4412 75.5334 12.6517C75.9895 12.8623 75.8335 14.071 75.8335 14.071C75.8335 14.071 76.8942 11.6948 77.512 12.3831C78.1298 13.0713 77.3928 14.6209 77.3928 14.6209C77.3928 14.6209 78.3792 13.6444 78.9094 14.2331C79.4396 14.8218 78.537 15.9894 78.537 15.9894C78.537 15.9894 80.0596 15.508 79.8333 16.2449C79.6071 16.9818 78.6558 17.3053 78.6558 17.3053C78.9343 19.0967 77.6534 20.3383 77.6534 20.3383L71.6104 19.6456Z" fill="#FBF8EC"/>
<path d="M53.2999 25.3597C53.2999 25.3597 49.9233 17.6866 47.3869 16.3035C44.8483 14.9183 38.4274 24.6371 48.5972 27.6658L53.2999 25.3597Z" fill="#0500F9"/>
<path d="M51.9813 26.334C51.9813 26.334 51.1148 22.9157 48.8573 21.5313C48.8573 21.5313 48.2212 18.4409 47.5633 18.791C46.9054 19.1411 46.8413 20.92 46.8413 20.92C46.8413 20.92 46.2364 19.0481 45.8044 19.5044C45.3724 19.9608 46.0815 21.6067 46.0815 21.6067C46.0815 21.6067 44.1626 21.0418 43.9634 21.5769C43.7643 22.112 45.8073 28.0534 45.8073 28.0534L51.9813 26.334Z" fill="#85A7FF"/>
<path d="M68.6172 24.6766C68.6172 24.6766 71.684 16.8752 74.1637 15.3912C76.6435 13.9073 83.45 23.3608 73.4081 26.7924L68.6172 24.6766Z" fill="#0500F9"/>
<path d="M70.0374 25.8601C70.0374 25.8601 70.7238 22.4018 72.9036 20.8997C72.9036 20.8997 73.3775 17.7783 74.051 18.0949C74.7245 18.4116 74.8819 20.1817 74.8819 20.1817C74.8819 20.1817 75.3869 18.2809 75.8433 18.7129C76.2996 19.1449 75.6773 20.8264 75.6773 20.8264C75.6773 20.8264 77.563 20.1621 77.7899 20.6857C78.0168 21.2094 76.2893 27.2486 76.2893 27.2486L70.0374 25.8601Z" fill="#85A7FF"/>
<path d="M66.5057 23.2244C48.2601 20.1731 41.5825 34.7781 44.656 45.0775C44.656 45.0775 46.4164 48.8717 56.1454 47.7872C65.8744 46.7028 76.8345 49.009 78.8437 46.4647C80.8529 43.9205 84.7514 26.2757 66.5057 23.2244Z" fill="#0500F9"/>
<path opacity="0.28" d="M66.5057 23.2244C48.2601 20.1731 41.5825 34.7781 44.656 45.0775C44.656 45.0775 46.4164 48.8717 56.1454 47.7872C65.8744 46.7028 76.8345 49.009 78.8437 46.4647C80.8529 43.9205 84.7514 26.2757 66.5057 23.2244Z" fill="#85A7FF"/>
<path opacity="0.13" d="M70.8057 24.3451C66.2688 28.5513 62.984 38.8719 62.984 38.8719L61.5188 39.0072C60.143 31.8472 55.4003 27.1878 52.5511 24.9644C45.0018 29.0267 42.5624 38.051 44.6561 45.0749C44.6561 45.0749 46.4164 48.8691 56.1454 47.7846C65.8744 46.7002 76.8345 49.0064 78.8437 46.4622C80.6764 44.1446 84.0779 29.2546 70.8057 24.3451Z" fill="#3F2436"/>
<path d="M44.167 25.8515C32.2523 28.5274 44.1478 40.3279 44.1478 40.3279C44.1478 40.3279 39.7568 44.1194 44.6559 45.0789C49.555 46.0384 56.5027 44.5076 59.3824 42.1025C62.2621 39.6953 55.3634 23.335 44.167 25.8515Z" fill="#85A7FF"/>
<path opacity="0.57" d="M44.167 25.8515C32.2523 28.5274 44.1478 40.3279 44.1478 40.3279C44.1478 40.3279 39.7568 44.1194 44.6559 45.0789C49.555 46.0384 56.5027 44.5076 59.3824 42.1025C62.2621 39.6953 55.3634 23.335 44.167 25.8515Z" fill="#FBF8EC"/>
<path d="M47.1776 33.2758C47.1776 33.2758 45.583 35.1483 45.6839 36.9834C45.6839 36.9834 44.4223 35.3999 44.337 36.348C44.2517 37.2961 45.9843 39.0947 45.9843 39.0947C45.9843 39.0947 44.9122 38.3279 44.895 39.2794C44.8778 40.2287 45.4794 44.5194 49.9478 45.2773C54.4161 46.0374 57.7232 43.3122 57.7968 39.2403C57.8705 35.1684 47.1776 33.2758 47.1776 33.2758Z" fill="#85A7FF"/>
<path d="M52.3281 45.0603C49.772 45.2291 47.569 43.4262 47.4079 41.03L47.2536 38.734C47.0925 36.34 49.0358 34.2608 51.5918 34.092C54.1478 33.9232 56.3509 35.7261 56.512 38.1222L56.6663 40.4182C56.8274 42.8144 54.8841 44.8915 52.3281 45.0603Z" fill="white"/>
<path d="M52.2086 44.1238C54.2366 44.071 55.8385 42.3839 55.7858 40.3537L55.6762 36.1763C55.6234 34.1483 53.9362 32.5464 51.9061 32.5991C49.8781 32.6518 48.2762 34.339 48.3289 36.3691L48.4385 40.5466C48.4912 42.5767 50.1784 44.1786 52.2086 44.1238Z" fill="#1A931F"/>
<path d="M51.1021 42.2194C51.4943 42.4309 51.9436 42.5455 52.4208 42.5328C53.88 42.4953 55.0305 41.2812 54.993 39.822L54.9314 37.4595C54.8939 36.0003 53.6798 34.8498 52.2206 34.8873C50.7614 34.9248 49.6109 36.1389 49.6484 37.5981L49.71 39.9606C49.7369 40.9427 50.2944 41.7853 51.1021 42.2194Z" fill="#3F2436"/>
<path d="M50.0226 38.3205C48.4409 38.3089 48.9149 40.3528 50.0746 40.2695C51.2321 40.1883 51.236 38.3297 50.0226 38.3205Z" fill="white"/>
<path d="M60.3927 41.3504C60.3927 41.3504 61.2749 35.3065 54.1371 27.9273C45.0135 18.4978 38.1683 24.2486 38.991 27.4956C40.4239 33.1492 62.2553 45.0251 60.3927 41.3504Z" fill="#FBF8EC"/>
<path opacity="0.52" d="M60.3927 41.3506C60.3927 41.3506 60.5921 39.9808 60.032 37.7478C59.7217 38.5406 59.2816 39.214 58.7605 38.7127C57.7223 37.7187 56.2564 33.3017 55.8308 34.3501C55.4051 35.3985 56.1446 39.4788 55.5198 38.0025C54.8971 36.5285 53.0717 29.503 51.0271 30.1154C48.9826 30.73 48.865 32.7592 48.865 32.7592C48.865 32.7592 47.6321 28.9958 46.9726 29.5545C46.3131 30.111 46.0271 32.3842 46.0271 32.3842C46.0271 32.3842 46.2197 26.2086 44.681 25.9359C43.1401 25.6631 41.3741 28.8847 41.3741 28.8847C41.3741 28.8847 40.1959 26.6915 40.2822 24.2743C39.2193 25.2366 38.7347 26.4862 38.9911 27.4937C40.424 33.1494 62.2553 45.0253 60.3927 41.3506Z" fill="#4B28B8"/>
<path d="M79.1096 27.7643C91.105 30.0446 80.7764 40.3804 80.7764 40.3804C80.7764 40.3804 85.3602 43.9362 80.5176 45.1517C75.675 46.3671 68.6568 45.2011 65.6548 42.9515C62.6528 40.6998 64.9414 25.0721 79.1096 27.7643Z" fill="#85A7FF"/>
<path opacity="0.57" d="M79.1096 27.7643C91.105 30.0446 80.7764 40.3804 80.7764 40.3804C80.7764 40.3804 85.3602 43.9362 80.5176 45.1517C75.675 46.3671 68.6568 45.2011 65.6548 42.9515C62.6528 40.6998 64.9414 25.0721 79.1096 27.7643Z" fill="#FBF8EC"/>
<path d="M77.2649 32.8704C77.2649 32.8704 78.6455 35.4079 78.548 37.035C78.548 37.035 79.3964 35.2171 80.1996 35.7746C81.0051 36.3321 78.5694 39.616 78.5694 39.616C78.5694 39.616 79.8133 38.4164 79.9918 39.8462C80.1704 41.276 77.9136 45.8514 71.538 45.5337C65.1603 45.2139 65.3463 38.6997 65.3463 38.6997L77.2649 32.8704Z" fill="#85A7FF"/>
<path d="M72.408 45.228C74.9709 45.2637 77.0753 43.345 77.1102 40.946L77.1433 38.6449C77.1782 36.2458 75.1294 34.2711 72.5685 34.2376C70.0055 34.2019 67.9012 36.1206 67.8663 38.5196L67.8332 40.8207C67.7983 43.2197 69.8471 45.1923 72.408 45.228Z" fill="white"/>
<path d="M72.4784 44.2865C70.4504 44.3392 68.7611 42.7373 68.7083 40.7093L68.5987 36.5319C68.546 34.5039 70.1479 32.8145 72.1759 32.7618C74.2039 32.7091 75.8932 34.311 75.946 36.339L76.0556 40.5165C76.1083 42.5466 74.5064 44.2338 72.4784 44.2865Z" fill="#1A931F"/>
<path d="M72.1832 42.7074C70.724 42.7449 69.5099 41.5944 69.4724 40.1352L69.4108 37.7728C69.3733 36.3136 70.5238 35.0994 71.983 35.0619C73.4422 35.0245 74.6564 36.1749 74.6939 37.6341L74.7555 39.9966C74.7929 41.4558 73.6425 42.6699 72.1832 42.7074Z" fill="#3F2436"/>
<path d="M74.3568 38.3777C75.9361 38.2828 75.5687 40.3498 74.4088 40.3267C73.2468 40.3035 73.1462 38.4495 74.3568 38.3777Z" fill="white"/>
<path d="M64.0361 41.572C64.0361 41.572 62.8392 35.5842 69.58 27.8408C78.1951 17.9445 85.3329 23.3286 84.6815 26.6151C83.5475 32.335 62.3689 45.3383 64.0361 41.572Z" fill="#FBF8EC"/>
<path opacity="0.52" d="M83.4465 26.9654C83.4465 26.9654 84.7029 24.9547 82.5098 24.8341C80.3168 24.7135 79.5801 29.4165 79.5801 29.4165C79.5801 29.4165 79.8572 27.6329 78.5641 27.2029C77.2709 26.7728 76.7628 32.3741 76.7628 32.3741C76.7628 32.3741 76.7864 31.0736 74.5198 30.545C72.2532 30.0164 68.6007 36.5339 68.6007 36.5339C68.6007 36.5339 69.419 33.7871 68.6192 33.0401C67.8193 32.2932 66.3261 38.4474 65.3442 38.6979C64.8929 38.8132 64.6901 37.664 64.6003 36.387C63.6356 39.5719 64.036 41.5721 64.036 41.5721C62.3687 45.3384 83.5473 32.3351 84.6814 26.6151C84.8055 25.9893 84.6479 25.288 84.251 24.6314C84.4179 26.2292 83.4465 26.9654 83.4465 26.9654Z" fill="#4B28B8"/>
<path d="M62.1017 27.0265C57.5429 27.1463 56.7382 33.9644 62.0185 34.094C67.2989 34.2237 67.4636 26.8871 62.1017 27.0265Z" fill="#85A7FF"/>
<path d="M62.1336 28.0937C59.0106 28.1756 58.4598 32.8478 62.0758 32.9366C65.6939 33.0234 65.8062 27.9962 62.1336 28.0937Z" fill="#FD4A4A"/>
<path opacity="0.41" d="M62.5237 28.8818C61.0803 29.1133 61.4633 30.8916 63.2538 30.8941C65.0421 30.8946 63.9693 28.6503 62.5237 28.8818Z" fill="#FFCDCD"/>
<path d="M67.5294 23.9563C67.2556 26.73 56.9646 27.0996 56.4224 24.5879C55.768 21.5717 67.6911 22.3134 67.5294 23.9563Z" fill="#FF5B5B"/>
<path d="M65.5676 24.01C65.5676 24.01 64.0112 17.2939 61.6905 17.2838C59.438 17.275 57.8617 23.6619 58.3332 24.2006C58.8047 24.7372 64.767 24.9473 65.5676 24.01Z" fill="#85A7FF"/>
<path d="M64.7883 21.4151C64.9686 21.9209 65.1218 22.3985 65.2422 22.8052C62.8521 23.1026 60.3218 23.0249 58.3466 22.8657C58.4226 22.4327 58.5424 21.9281 58.701 21.4029C60.8405 21.7759 63.0529 21.6499 64.7883 21.4151Z" fill="#FF5B5B"/>
<path d="M59.4761 19.4005C60.0639 18.2167 60.826 17.2808 61.6883 17.2837C62.5698 17.2868 63.3421 18.2611 63.9591 19.4668C62.7099 19.7806 61.1318 19.916 59.4761 19.4005Z" fill="#FF5B5B"/>
<path d="M68.9498 41.7225C66.3679 41.7908 65.9126 45.6514 68.9029 45.7247C71.8932 45.7979 71.9875 41.6434 68.9498 41.7225Z" fill="#F90000"/>
<path opacity="0.41" d="M69.272 42.3753C68.0784 42.5666 68.3967 44.0371 69.8742 44.0383C71.3539 44.0374 70.4677 42.184 69.272 42.3753Z" fill="#85A7FF"/>
<path d="M56.3232 41.6092C58.9009 41.7708 59.2162 45.6453 56.2253 45.6104C53.2343 45.5754 53.2925 41.4202 56.3232 41.6092Z" fill="#F90000"/>
<path opacity="0.41" d="M55.9771 42.2501C57.163 42.4844 56.7917 43.9425 55.3151 43.8902C53.8364 43.8358 54.7912 42.0157 55.9771 42.2501Z" fill="#85A7FF"/>
<path d="M67.4668 41.6678C65.8078 39.8023 58.1271 40.1829 57.643 42.2225C57.159 44.262 58.166 45.6834 60.7235 46.0172C66.8265 46.8132 69.1258 43.5332 67.4668 41.6678Z" fill="#3F2436"/>
<path opacity="0.26" d="M67.4668 41.6678C65.8078 39.8023 58.1271 40.1829 57.643 42.2225C57.159 44.262 58.166 45.6834 60.7235 46.0172C66.8265 46.8132 69.1258 43.5332 67.4668 41.6678Z" fill="#FBF8EC"/>
<path d="M66.369 42.6782C64.9143 42.2345 63.4121 45.2309 64.791 45.4006C66.1698 45.5703 67.8238 43.1218 66.369 42.6782Z" fill="#3F2436"/>
<path d="M59.1047 42.8685C60.5343 42.3493 62.1913 45.2623 60.8242 45.5037C59.455 45.7472 57.675 43.3878 59.1047 42.8685Z" fill="#3F2436"/>
<path opacity="0.28" d="M64.0425 46.0322C63.3337 46.1365 62.5304 46.1688 61.633 46.1079C61.7223 45.0576 61.8439 42.4558 61.0773 40.5767C62.2404 40.4253 63.5287 40.4209 64.6651 40.5756C64.0423 41.4544 63.4288 43.1168 64.0425 46.0322Z" fill="#85A7FF"/>
<path d="M80.7824 39.816C80.7824 39.816 86.5297 44.6129 84.4122 49.6145C82.2946 54.6161 76.7878 54.6484 74.1686 53.3682C71.5493 52.088 60.1507 50.3636 55.9368 52.6103C51.7228 54.8571 41.001 57.4992 40.701 50.3119C40.4009 43.1245 44.15 40.3285 44.15 40.3285C44.15 40.3285 46.8391 48.5769 51.7592 47.5481C56.6794 46.5192 58.7556 44.2721 63.4851 44.5983C68.2147 44.9245 71.5609 48.1534 75.2412 47.0446C78.9193 45.9358 80.7824 39.816 80.7824 39.816Z" fill="white"/>
<path opacity="0.52" d="M80.6725 51.295C79.3572 51.7375 81.7395 49.1659 80.5138 48.4155C79.2903 47.6651 77.6705 51.988 76.2699 51.9627C74.8693 51.9373 78.3527 50.4119 78.0903 49.3809C77.8279 48.3477 74.4365 49.9684 72.5681 50.0283C70.6997 50.0882 66.6338 47.6789 63.836 47.4409C61.0382 47.2029 59.6258 47.831 56.8962 49.2401C54.1665 50.6493 52.1449 48.3493 50.5435 49.0677C48.9421 49.7861 52.7528 50.8813 52.7528 50.8813C49.5572 52.0372 47.2593 49.9409 46.0392 50.2935C44.8192 50.6441 46.4699 52.2624 46.4699 52.2624C44.1298 52.5011 43.7059 50.1576 43.0559 49.7222C42.4058 49.2867 42.3597 52.188 42.3597 52.188C41.1869 51.3428 40.7738 49.8107 40.7288 48.1832C40.6806 48.8445 40.6636 49.5511 40.6967 50.3097C40.9967 57.4971 51.7206 54.855 55.9324 52.6082C60.1464 50.3614 71.545 52.0858 74.1643 53.3661C76.7835 54.6463 82.2903 54.6139 84.4079 49.6123C85.6001 46.7977 84.2999 44.0466 82.9369 42.1823C83.3702 46.3592 81.7608 50.9293 80.6725 51.295Z" fill="#9CB2EB"/>
<path d="M51.1 85.2999V91.5999H56.5L49.3 101.5V95.1999H43.9L51.1 85.2999Z" fill="#FEA623" stroke="#FEA623" stroke-width="1.8" stroke-linecap="round" stroke-linejoin="round"/>
<path d="M67.3771 98.4C67.1503 98.4 66.9721 98.3352 66.8425 98.2056C66.7129 98.076 66.6481 97.9032 66.6481 97.6872C66.6481 97.4604 66.7129 97.2876 66.8425 97.1688C66.9721 97.05 67.1503 96.9906 67.3771 96.9906H69.3535V88.3722H70.1959L67.8307 89.8788C67.6579 89.976 67.4959 90.0138 67.3447 89.9922C67.2043 89.9706 67.0801 89.9112 66.9721 89.814C66.8749 89.7168 66.8047 89.598 66.7615 89.4576C66.7291 89.3172 66.7399 89.1714 66.7939 89.0202C66.8587 88.869 66.9721 88.7448 67.1341 88.6476L69.3697 87.2382C69.5533 87.1302 69.7261 87.0438 69.8881 86.979C70.0609 86.9034 70.2229 86.8656 70.3741 86.8656C70.5577 86.8656 70.7089 86.9196 70.8277 87.0276C70.9573 87.1248 71.0221 87.2922 71.0221 87.5298V96.9906H72.8365C73.0741 96.9906 73.2577 97.05 73.3873 97.1688C73.5169 97.2876 73.5817 97.4604 73.5817 97.6872C73.5817 97.914 73.5169 98.0922 73.3873 98.2218C73.2577 98.3406 73.0741 98.4 72.8365 98.4H67.3771ZM79.4802 98.5458C78.1518 98.5458 77.1366 98.0436 76.4346 97.0392C75.7434 96.024 75.3978 94.5714 75.3978 92.6814C75.3978 91.3962 75.5544 90.3216 75.8676 89.4576C76.1808 88.5936 76.6398 87.9402 77.2446 87.4974C77.8494 87.0546 78.5946 86.8332 79.4802 86.8332C80.8194 86.8332 81.8346 87.33 82.5258 88.3236C83.217 89.3064 83.5626 90.7536 83.5626 92.6652C83.5626 93.9288 83.406 94.998 83.0928 95.8728C82.7796 96.7476 82.3206 97.4118 81.7158 97.8654C81.111 98.319 80.3658 98.5458 79.4802 98.5458ZM79.4802 97.1526C80.3118 97.1526 80.922 96.7908 81.3108 96.0672C81.7104 95.3328 81.9102 94.1988 81.9102 92.6652C81.9102 91.1208 81.7104 89.9976 81.3108 89.2956C80.922 88.5828 80.3118 88.2264 79.4802 88.2264C78.6594 88.2264 78.0492 88.5828 77.6496 89.2956C77.25 89.9976 77.0502 91.1208 77.0502 92.6652C77.0502 94.1988 77.25 95.3328 77.6496 96.0672C78.0492 96.7908 78.6594 97.1526 79.4802 97.1526Z" fill="#252937"/>
</g>
<defs>
<filter id="filter0_ddd_3596_4579" x="0.799976" y="2.47955e-05" width="122.4" height="129.6" filterUnits="userSpaceOnUse" color-interpolation-filters="sRGB">
<feFlood flood-opacity="0" result="BackgroundImageFix"/>
<feColorMatrix in="SourceAlpha" type="matrix" values="0 0 0 0 0 0 0 0 0 0 0 0 0 0 0 0 0 0 127 0" result="hardAlpha"/>
<feOffset dy="5.4"/>
<feGaussianBlur stdDeviation="5.4"/>
<feComposite in2="hardAlpha" operator="out"/>
<feColorMatrix type="matrix" values="0 0 0 0 0.306667 0 0 0 0 0.160498 0 0 0 0 0.0766667 0 0 0 0.06 0"/>
<feBlend mode="normal" in2="BackgroundImageFix" result="effect1_dropShadow_3596_4579"/>
<feColorMatrix in="SourceAlpha" type="matrix" values="0 0 0 0 0 0 0 0 0 0 0 0 0 0 0 0 0 0 127 0" result="hardAlpha"/>
<feOffset dy="-0.9"/>
<feGaussianBlur stdDeviation="0.9"/>
<feComposite in2="hardAlpha" operator="out"/>
<feColorMatrix type="matrix" values="0 0 0 0 0.305882 0 0 0 0 0.160784 0 0 0 0 0.0784314 0 0 0 0.04 0"/>
<feBlend mode="normal" in2="effect1_dropShadow_3596_4579" result="effect2_dropShadow_3596_4579"/>
<feColorMatrix in="SourceAlpha" type="matrix" values="0 0 0 0 0 0 0 0 0 0 0 0 0 0 0 0 0 0 127 0" result="hardAlpha"/>
<feOffset dy="1.8"/>
<feGaussianBlur stdDeviation="1.8"/>
<feComposite in2="hardAlpha" operator="out"/>
<feColorMatrix type="matrix" values="0 0 0 0 0.458009 0 0 0 0 0.169264 0 0 0 0 0.00199134 0 0 0 0.06 0"/>
<feBlend mode="normal" in2="effect2_dropShadow_3596_4579" result="effect3_dropShadow_3596_4579"/>
<feBlend mode="normal" in="SourceGraphic" in2="effect3_dropShadow_3596_4579" result="shape"/>
</filter>
</defs>
</svg>
