<svg width="123" height="130" viewBox="0 0 123 130" fill="none" xmlns="http://www.w3.org/2000/svg">
<g filter="url(#filter0_ddd_3596_4645)">
<rect x="11.2" y="5.40002" width="100.8" height="108" rx="7.2" fill="white" shape-rendering="crispEdges"/>
<path d="M63.7988 32.2746L63.7191 32.3067C58.0966 35.6895 53.1862 36.0831 53.1862 36.0831L53.1454 36.0667C55.9609 29.6708 58.2441 24.7887 58.6469 24.7797C59.2169 24.773 61.2082 27.8176 63.7988 32.2746Z" fill="#06B5C2"/>
<path d="M67.8685 39.4985C66.9714 40.1411 61.2715 43.9054 49.0146 45.6539C50.4166 42.3578 51.8421 39.0465 53.1455 36.0671L53.1863 36.0835C53.1863 36.0835 58.0967 35.6899 63.7118 32.3105L63.7915 32.2784C65.0516 34.4223 66.4372 36.8898 67.8685 39.4985Z" fill="#68BC25"/>
<path d="M67.8685 39.4987C69.2407 41.968 70.6479 44.5702 72.0365 47.1459C72.0365 47.1459 65.0641 53.3935 44.8676 55.4672C46.1357 52.4514 47.5648 49.0552 49.0133 45.659C61.2716 43.9055 66.9714 40.1413 67.8685 39.4987Z" fill="#FFE505"/>
<path d="M76.7202 55.9901L76.6151 56.0207C76.6151 56.0207 65.8018 64.5557 40.4839 65.9893C40.4839 65.9893 42.3404 61.4908 44.8691 55.4626C65.0656 53.389 72.038 47.1413 72.038 47.1413C73.6779 50.2197 75.2899 53.2582 76.7202 55.9901Z" fill="#E67045"/>
<path d="M82.4001 66.9006C82.4001 66.9006 74.1587 71.9678 61.1502 71.1252C48.1342 70.2859 40.4821 65.9938 40.4821 65.9938C65.8 64.5602 76.6133 56.0252 76.6133 56.0252L76.7184 55.9946C80.0048 62.2228 82.4001 66.9006 82.4001 66.9006Z" fill="#D50044"/>
<path d="M62.004 24.7379C62.0713 22.9584 60.7291 21.4899 59.0109 21.4577C57.297 21.4334 55.8531 22.8604 55.7917 24.6416C55.7303 26.4227 57.0665 27.8896 58.7864 27.9156C60.4986 27.9461 61.9426 26.5191 62.004 24.7379Z" fill="#D50044"/>
<path opacity="0.2" d="M72.8264 61.8369C73.8058 61.4151 74.335 63.2056 73.7175 63.4356C73.1047 63.6721 71.9489 62.2165 72.8264 61.8369Z" fill="#650E81"/>
<path opacity="0.2" d="M75.0259 63.4677C75.6822 63.2375 76.8588 65.3319 76.2413 65.5619C75.6284 65.7985 74.1124 63.7892 75.0259 63.4677Z" fill="#650E81"/>
<path opacity="0.2" d="M73.1613 64.1543C73.8116 63.9225 74.5647 65.339 73.9532 65.5706C73.3417 65.8022 72.2538 64.4775 73.1613 64.1543Z" fill="#650E81"/>
<path opacity="0.2" d="M74.5408 60.1063C75.1971 59.8761 75.9442 61.2909 75.3327 61.5225C74.7199 61.7591 73.6333 60.4295 74.5408 60.1063Z" fill="#650E81"/>
<path opacity="0.2" d="M51.6273 45.9485C52.7482 45.8387 52.5696 47.62 51.8811 47.6591C51.1926 47.6981 50.6255 46.0476 51.6273 45.9485Z" fill="#650E81"/>
<path opacity="0.2" d="M45.6646 63.7377C46.3892 63.7084 46.7298 65.9576 46.0412 65.9966C45.3527 66.0357 44.6536 63.7753 45.6646 63.7377Z" fill="#650E81"/>
<path opacity="0.2" d="M51.055 48.1596C51.7797 48.1303 51.9665 49.635 51.278 49.674C50.5895 49.7131 50.044 48.1972 51.055 48.1596Z" fill="#650E81"/>
<path opacity="0.2" d="M52.5263 42.9613C53.2509 42.932 53.4378 44.4367 52.7492 44.4757C52.0667 44.5164 51.5153 42.9989 52.5263 42.9613Z" fill="#650E81"/>
<path d="M40.2823 65.5648C40.2823 65.5648 40.954 65.7788 42.117 66.1579C42.6998 66.3424 43.4123 66.5728 44.2271 66.8308C45.0432 67.0838 45.9616 67.3646 46.9629 67.6731C47.9655 67.9766 49.051 68.3079 50.1953 68.6605C51.3484 69.0047 52.5811 69.3168 53.8716 69.5587C55.1607 69.8056 56.4962 70.0006 57.8632 70.1505C59.2275 70.3105 60.6102 70.3788 61.9975 70.4537L63.0404 70.4891L64.0827 70.5029C64.7858 70.5053 65.5002 70.5377 66.1787 70.512C66.8558 70.4913 67.5329 70.4707 68.2007 70.4367C68.8632 70.3746 69.5183 70.3158 70.1548 70.2304C71.4292 70.0548 72.6182 69.7649 73.725 69.4688C74.8164 69.1578 75.8502 68.8688 76.807 68.6019C78.6993 68.0515 80.2043 67.4768 81.2005 67.0167C81.7003 66.7924 82.0889 66.5971 82.3268 66.4576C82.4488 66.3886 82.5399 66.3382 82.6016 66.3012C82.6545 66.2726 82.678 66.2575 82.678 66.2575L82.747 66.2171C83.0084 66.0625 83.3895 66.1334 83.5962 66.3718C83.7675 66.5738 83.7614 66.835 83.6003 67.0007C83.6003 67.0007 83.5654 67.0342 83.5017 67.1028C83.4406 67.1614 83.352 67.2501 83.234 67.3523C82.9905 67.5601 82.6251 67.8368 82.1357 68.1658C81.8864 68.3237 81.5982 68.4818 81.2899 68.6667C80.969 68.8267 80.6232 69.0067 80.2461 69.1837C79.4837 69.5193 78.5949 69.869 77.5912 70.1662C76.5921 70.47 75.4767 70.7262 74.2586 70.8849C73.0532 71.0684 71.7631 71.1593 70.448 71.3185C69.7868 71.3757 69.1235 71.4645 68.4449 71.5384C67.7584 71.5941 67.0737 71.6664 66.3744 71.7454C65.6764 71.8195 64.9892 71.8535 64.2892 71.9109C63.9332 71.938 63.6147 71.9698 63.2226 71.9871L62.1413 72.0219C60.6961 72.0654 59.2426 71.9726 57.8126 71.8646C56.3792 71.745 54.9709 71.5571 53.6181 71.3305C52.2654 71.104 50.9568 70.8572 49.7166 70.5967C48.4763 70.3362 47.3152 70.022 46.2752 69.6655C45.2279 69.3123 44.2918 68.9302 43.4753 68.559C42.6575 68.1929 41.9668 67.8343 41.4132 67.5181C40.8521 67.2053 40.4341 66.9366 40.145 66.7403C39.868 66.5473 39.7124 66.4301 39.7124 66.4301C39.4441 66.2287 39.4049 65.8961 39.617 65.6852C39.7753 65.5296 40.0384 65.4881 40.2703 65.5616L40.2823 65.5648Z" fill="#7B348C"/>
<path d="M50.7 85.2999V91.5999H56.1L48.9 101.5V95.1999H43.5L50.7 85.2999Z" fill="#FEA623" stroke="#FEA623" stroke-width="1.8" stroke-linecap="round" stroke-linejoin="round"/>
<path d="M66.9771 98.4C66.7503 98.4 66.5721 98.3352 66.4425 98.2056C66.3129 98.076 66.2481 97.9032 66.2481 97.6872C66.2481 97.4604 66.3129 97.2876 66.4425 97.1688C66.5721 97.05 66.7503 96.9906 66.9771 96.9906H68.9535V88.3722H69.7959L67.4307 89.8788C67.2579 89.976 67.0959 90.0138 66.9447 89.9922C66.8043 89.9706 66.6801 89.9112 66.5721 89.814C66.4749 89.7168 66.4047 89.598 66.3615 89.4576C66.3291 89.3172 66.3399 89.1714 66.3939 89.0202C66.4587 88.869 66.5721 88.7448 66.7341 88.6476L68.9697 87.2382C69.1533 87.1302 69.3261 87.0438 69.4881 86.979C69.6609 86.9034 69.8229 86.8656 69.9741 86.8656C70.1577 86.8656 70.3089 86.9196 70.4277 87.0276C70.5573 87.1248 70.6221 87.2922 70.6221 87.5298V96.9906H72.4365C72.6741 96.9906 72.8577 97.05 72.9873 97.1688C73.1169 97.2876 73.1817 97.4604 73.1817 97.6872C73.1817 97.914 73.1169 98.0922 72.9873 98.2218C72.8577 98.3406 72.6741 98.4 72.4365 98.4H66.9771ZM79.0803 98.5458C77.7519 98.5458 76.7367 98.0436 76.0347 97.0392C75.3435 96.024 74.9979 94.5714 74.9979 92.6814C74.9979 91.3962 75.1545 90.3216 75.4677 89.4576C75.7809 88.5936 76.2399 87.9402 76.8447 87.4974C77.4495 87.0546 78.1947 86.8332 79.0803 86.8332C80.4195 86.8332 81.4347 87.33 82.1259 88.3236C82.8171 89.3064 83.1627 90.7536 83.1627 92.6652C83.1627 93.9288 83.0061 94.998 82.6929 95.8728C82.3797 96.7476 81.9207 97.4118 81.3159 97.8654C80.7111 98.319 79.9659 98.5458 79.0803 98.5458ZM79.0803 97.1526C79.9119 97.1526 80.5221 96.7908 80.9109 96.0672C81.3105 95.3328 81.5103 94.1988 81.5103 92.6652C81.5103 91.1208 81.3105 89.9976 80.9109 89.2956C80.5221 88.5828 79.9119 88.2264 79.0803 88.2264C78.2595 88.2264 77.6493 88.5828 77.2497 89.2956C76.8501 89.9976 76.6503 91.1208 76.6503 92.6652C76.6503 94.1988 76.8501 95.3328 77.2497 96.0672C77.6493 96.7908 78.2595 97.1526 79.0803 97.1526Z" fill="#252937"/>
</g>
<defs>
<filter id="filter0_ddd_3596_4645" x="0.399982" y="2.47955e-05" width="122.4" height="129.6" filterUnits="userSpaceOnUse" color-interpolation-filters="sRGB">
<feFlood flood-opacity="0" result="BackgroundImageFix"/>
<feColorMatrix in="SourceAlpha" type="matrix" values="0 0 0 0 0 0 0 0 0 0 0 0 0 0 0 0 0 0 127 0" result="hardAlpha"/>
<feOffset dy="5.4"/>
<feGaussianBlur stdDeviation="5.4"/>
<feComposite in2="hardAlpha" operator="out"/>
<feColorMatrix type="matrix" values="0 0 0 0 0.306667 0 0 0 0 0.160498 0 0 0 0 0.0766667 0 0 0 0.06 0"/>
<feBlend mode="normal" in2="BackgroundImageFix" result="effect1_dropShadow_3596_4645"/>
<feColorMatrix in="SourceAlpha" type="matrix" values="0 0 0 0 0 0 0 0 0 0 0 0 0 0 0 0 0 0 127 0" result="hardAlpha"/>
<feOffset dy="-0.9"/>
<feGaussianBlur stdDeviation="0.9"/>
<feComposite in2="hardAlpha" operator="out"/>
<feColorMatrix type="matrix" values="0 0 0 0 0.305882 0 0 0 0 0.160784 0 0 0 0 0.0784314 0 0 0 0.04 0"/>
<feBlend mode="normal" in2="effect1_dropShadow_3596_4645" result="effect2_dropShadow_3596_4645"/>
<feColorMatrix in="SourceAlpha" type="matrix" values="0 0 0 0 0 0 0 0 0 0 0 0 0 0 0 0 0 0 127 0" result="hardAlpha"/>
<feOffset dy="1.8"/>
<feGaussianBlur stdDeviation="1.8"/>
<feComposite in2="hardAlpha" operator="out"/>
<feColorMatrix type="matrix" values="0 0 0 0 0.458009 0 0 0 0 0.169264 0 0 0 0 0.00199134 0 0 0 0.06 0"/>
<feBlend mode="normal" in2="effect2_dropShadow_3596_4645" result="effect3_dropShadow_3596_4645"/>
<feBlend mode="normal" in="SourceGraphic" in2="effect3_dropShadow_3596_4645" result="shape"/>
</filter>
</defs>
</svg>
